<?xml version="1.0" encoding="utf-8" standalone="no"?>
<!DOCTYPE svg PUBLIC "-//W3C//DTD SVG 1.1//EN"
  "http://www.w3.org/Graphics/SVG/1.1/DTD/svg11.dtd">
<!-- Created with matplotlib (http://matplotlib.org/) -->
<svg height="345.6pt" version="1.1" viewBox="0 0 460.8 345.6" width="460.8pt" xmlns="http://www.w3.org/2000/svg" xmlns:xlink="http://www.w3.org/1999/xlink">
 <defs>
  <style type="text/css">
*{stroke-linecap:butt;stroke-linejoin:round;}
  </style>
 </defs>
 <g id="figure_1">
  <g id="patch_1">
   <path d="M 0 345.6 
L 460.8 345.6 
L 460.8 0 
L 0 0 
z
" style="fill:#ffffff;"/>
  </g>
  <g id="axes_1">
   <g id="patch_2">
    <path d="M 57.6 307.584 
L 414.72 307.584 
L 414.72 41.472 
L 57.6 41.472 
z
" style="fill:#ffffff;"/>
   </g>
   <g id="matplotlib.axis_1">
    <g id="xtick_1">
     <g id="line2d_1">
      <defs>
       <path d="M 0 0 
L 0 3.5 
" id="md12df31b8c" style="stroke:#000000;stroke-width:0.8;"/>
      </defs>
      <g>
       <use style="stroke:#000000;stroke-width:0.8;" x="57.6" xlink:href="#md12df31b8c" y="307.584"/>
      </g>
     </g>
     <g id="text_1">
      <!-- 0 -->
      <defs>
       <path d="M 31.78125 66.40625 
Q 24.171875 66.40625 20.328125 58.90625 
Q 16.5 51.421875 16.5 36.375 
Q 16.5 21.390625 20.328125 13.890625 
Q 24.171875 6.390625 31.78125 6.390625 
Q 39.453125 6.390625 43.28125 13.890625 
Q 47.125 21.390625 47.125 36.375 
Q 47.125 51.421875 43.28125 58.90625 
Q 39.453125 66.40625 31.78125 66.40625 
z
M 31.78125 74.21875 
Q 44.046875 74.21875 50.515625 64.515625 
Q 56.984375 54.828125 56.984375 36.375 
Q 56.984375 17.96875 50.515625 8.265625 
Q 44.046875 -1.421875 31.78125 -1.421875 
Q 19.53125 -1.421875 13.0625 8.265625 
Q 6.59375 17.96875 6.59375 36.375 
Q 6.59375 54.828125 13.0625 64.515625 
Q 19.53125 74.21875 31.78125 74.21875 
z
" id="DejaVuSans-30"/>
      </defs>
      <g transform="translate(54.41875 322.182437)scale(0.1 -0.1)">
       <use xlink:href="#DejaVuSans-30"/>
      </g>
     </g>
    </g>
    <g id="xtick_2">
     <g id="line2d_2">
      <g>
       <use style="stroke:#000000;stroke-width:0.8;" x="114.466242" xlink:href="#md12df31b8c" y="307.584"/>
      </g>
     </g>
     <g id="text_2">
      <!-- 50 -->
      <defs>
       <path d="M 10.796875 72.90625 
L 49.515625 72.90625 
L 49.515625 64.59375 
L 19.828125 64.59375 
L 19.828125 46.734375 
Q 21.96875 47.46875 24.109375 47.828125 
Q 26.265625 48.1875 28.421875 48.1875 
Q 40.625 48.1875 47.75 41.5 
Q 54.890625 34.8125 54.890625 23.390625 
Q 54.890625 11.625 47.5625 5.09375 
Q 40.234375 -1.421875 26.90625 -1.421875 
Q 22.3125 -1.421875 17.546875 -0.640625 
Q 12.796875 0.140625 7.71875 1.703125 
L 7.71875 11.625 
Q 12.109375 9.234375 16.796875 8.0625 
Q 21.484375 6.890625 26.703125 6.890625 
Q 35.15625 6.890625 40.078125 11.328125 
Q 45.015625 15.765625 45.015625 23.390625 
Q 45.015625 31 40.078125 35.4375 
Q 35.15625 39.890625 26.703125 39.890625 
Q 22.75 39.890625 18.8125 39.015625 
Q 14.890625 38.140625 10.796875 36.28125 
z
" id="DejaVuSans-35"/>
      </defs>
      <g transform="translate(108.103742 322.182437)scale(0.1 -0.1)">
       <use xlink:href="#DejaVuSans-35"/>
       <use x="63.623047" xlink:href="#DejaVuSans-30"/>
      </g>
     </g>
    </g>
    <g id="xtick_3">
     <g id="line2d_3">
      <g>
       <use style="stroke:#000000;stroke-width:0.8;" x="171.332484" xlink:href="#md12df31b8c" y="307.584"/>
      </g>
     </g>
     <g id="text_3">
      <!-- 100 -->
      <defs>
       <path d="M 12.40625 8.296875 
L 28.515625 8.296875 
L 28.515625 63.921875 
L 10.984375 60.40625 
L 10.984375 69.390625 
L 28.421875 72.90625 
L 38.28125 72.90625 
L 38.28125 8.296875 
L 54.390625 8.296875 
L 54.390625 0 
L 12.40625 0 
z
" id="DejaVuSans-31"/>
      </defs>
      <g transform="translate(161.788734 322.182437)scale(0.1 -0.1)">
       <use xlink:href="#DejaVuSans-31"/>
       <use x="63.623047" xlink:href="#DejaVuSans-30"/>
       <use x="127.246094" xlink:href="#DejaVuSans-30"/>
      </g>
     </g>
    </g>
    <g id="xtick_4">
     <g id="line2d_4">
      <g>
       <use style="stroke:#000000;stroke-width:0.8;" x="228.198726" xlink:href="#md12df31b8c" y="307.584"/>
      </g>
     </g>
     <g id="text_4">
      <!-- 150 -->
      <g transform="translate(218.654976 322.182437)scale(0.1 -0.1)">
       <use xlink:href="#DejaVuSans-31"/>
       <use x="63.623047" xlink:href="#DejaVuSans-35"/>
       <use x="127.246094" xlink:href="#DejaVuSans-30"/>
      </g>
     </g>
    </g>
    <g id="xtick_5">
     <g id="line2d_5">
      <g>
       <use style="stroke:#000000;stroke-width:0.8;" x="285.064968" xlink:href="#md12df31b8c" y="307.584"/>
      </g>
     </g>
     <g id="text_5">
      <!-- 200 -->
      <defs>
       <path d="M 19.1875 8.296875 
L 53.609375 8.296875 
L 53.609375 0 
L 7.328125 0 
L 7.328125 8.296875 
Q 12.9375 14.109375 22.625 23.890625 
Q 32.328125 33.6875 34.8125 36.53125 
Q 39.546875 41.84375 41.421875 45.53125 
Q 43.3125 49.21875 43.3125 52.78125 
Q 43.3125 58.59375 39.234375 62.25 
Q 35.15625 65.921875 28.609375 65.921875 
Q 23.96875 65.921875 18.8125 64.3125 
Q 13.671875 62.703125 7.8125 59.421875 
L 7.8125 69.390625 
Q 13.765625 71.78125 18.9375 73 
Q 24.125 74.21875 28.421875 74.21875 
Q 39.75 74.21875 46.484375 68.546875 
Q 53.21875 62.890625 53.21875 53.421875 
Q 53.21875 48.921875 51.53125 44.890625 
Q 49.859375 40.875 45.40625 35.40625 
Q 44.1875 33.984375 37.640625 27.21875 
Q 31.109375 20.453125 19.1875 8.296875 
z
" id="DejaVuSans-32"/>
      </defs>
      <g transform="translate(275.521218 322.182437)scale(0.1 -0.1)">
       <use xlink:href="#DejaVuSans-32"/>
       <use x="63.623047" xlink:href="#DejaVuSans-30"/>
       <use x="127.246094" xlink:href="#DejaVuSans-30"/>
      </g>
     </g>
    </g>
    <g id="xtick_6">
     <g id="line2d_6">
      <g>
       <use style="stroke:#000000;stroke-width:0.8;" x="341.93121" xlink:href="#md12df31b8c" y="307.584"/>
      </g>
     </g>
     <g id="text_6">
      <!-- 250 -->
      <g transform="translate(332.38746 322.182437)scale(0.1 -0.1)">
       <use xlink:href="#DejaVuSans-32"/>
       <use x="63.623047" xlink:href="#DejaVuSans-35"/>
       <use x="127.246094" xlink:href="#DejaVuSans-30"/>
      </g>
     </g>
    </g>
    <g id="xtick_7">
     <g id="line2d_7">
      <g>
       <use style="stroke:#000000;stroke-width:0.8;" x="398.797452" xlink:href="#md12df31b8c" y="307.584"/>
      </g>
     </g>
     <g id="text_7">
      <!-- 300 -->
      <defs>
       <path d="M 40.578125 39.3125 
Q 47.65625 37.796875 51.625 33 
Q 55.609375 28.21875 55.609375 21.1875 
Q 55.609375 10.40625 48.1875 4.484375 
Q 40.765625 -1.421875 27.09375 -1.421875 
Q 22.515625 -1.421875 17.65625 -0.515625 
Q 12.796875 0.390625 7.625 2.203125 
L 7.625 11.71875 
Q 11.71875 9.328125 16.59375 8.109375 
Q 21.484375 6.890625 26.8125 6.890625 
Q 36.078125 6.890625 40.9375 10.546875 
Q 45.796875 14.203125 45.796875 21.1875 
Q 45.796875 27.640625 41.28125 31.265625 
Q 36.765625 34.90625 28.71875 34.90625 
L 20.21875 34.90625 
L 20.21875 43.015625 
L 29.109375 43.015625 
Q 36.375 43.015625 40.234375 45.921875 
Q 44.09375 48.828125 44.09375 54.296875 
Q 44.09375 59.90625 40.109375 62.90625 
Q 36.140625 65.921875 28.71875 65.921875 
Q 24.65625 65.921875 20.015625 65.03125 
Q 15.375 64.15625 9.8125 62.3125 
L 9.8125 71.09375 
Q 15.4375 72.65625 20.34375 73.4375 
Q 25.25 74.21875 29.59375 74.21875 
Q 40.828125 74.21875 47.359375 69.109375 
Q 53.90625 64.015625 53.90625 55.328125 
Q 53.90625 49.265625 50.4375 45.09375 
Q 46.96875 40.921875 40.578125 39.3125 
z
" id="DejaVuSans-33"/>
      </defs>
      <g transform="translate(389.253702 322.182437)scale(0.1 -0.1)">
       <use xlink:href="#DejaVuSans-33"/>
       <use x="63.623047" xlink:href="#DejaVuSans-30"/>
       <use x="127.246094" xlink:href="#DejaVuSans-30"/>
      </g>
     </g>
    </g>
    <g id="text_8">
     <!-- Residue Index -->
     <defs>
      <path d="M 44.390625 34.1875 
Q 47.5625 33.109375 50.5625 29.59375 
Q 53.5625 26.078125 56.59375 19.921875 
L 66.609375 0 
L 56 0 
L 46.6875 18.703125 
Q 43.0625 26.03125 39.671875 28.421875 
Q 36.28125 30.8125 30.421875 30.8125 
L 19.671875 30.8125 
L 19.671875 0 
L 9.8125 0 
L 9.8125 72.90625 
L 32.078125 72.90625 
Q 44.578125 72.90625 50.734375 67.671875 
Q 56.890625 62.453125 56.890625 51.90625 
Q 56.890625 45.015625 53.6875 40.46875 
Q 50.484375 35.9375 44.390625 34.1875 
z
M 19.671875 64.796875 
L 19.671875 38.921875 
L 32.078125 38.921875 
Q 39.203125 38.921875 42.84375 42.21875 
Q 46.484375 45.515625 46.484375 51.90625 
Q 46.484375 58.296875 42.84375 61.546875 
Q 39.203125 64.796875 32.078125 64.796875 
z
" id="DejaVuSans-52"/>
      <path d="M 56.203125 29.59375 
L 56.203125 25.203125 
L 14.890625 25.203125 
Q 15.484375 15.921875 20.484375 11.0625 
Q 25.484375 6.203125 34.421875 6.203125 
Q 39.59375 6.203125 44.453125 7.46875 
Q 49.3125 8.734375 54.109375 11.28125 
L 54.109375 2.78125 
Q 49.265625 0.734375 44.1875 -0.34375 
Q 39.109375 -1.421875 33.890625 -1.421875 
Q 20.796875 -1.421875 13.15625 6.1875 
Q 5.515625 13.8125 5.515625 26.8125 
Q 5.515625 40.234375 12.765625 48.109375 
Q 20.015625 56 32.328125 56 
Q 43.359375 56 49.78125 48.890625 
Q 56.203125 41.796875 56.203125 29.59375 
z
M 47.21875 32.234375 
Q 47.125 39.59375 43.09375 43.984375 
Q 39.0625 48.390625 32.421875 48.390625 
Q 24.90625 48.390625 20.390625 44.140625 
Q 15.875 39.890625 15.1875 32.171875 
z
" id="DejaVuSans-65"/>
      <path d="M 44.28125 53.078125 
L 44.28125 44.578125 
Q 40.484375 46.53125 36.375 47.5 
Q 32.28125 48.484375 27.875 48.484375 
Q 21.1875 48.484375 17.84375 46.4375 
Q 14.5 44.390625 14.5 40.28125 
Q 14.5 37.15625 16.890625 35.375 
Q 19.28125 33.59375 26.515625 31.984375 
L 29.59375 31.296875 
Q 39.15625 29.25 43.1875 25.515625 
Q 47.21875 21.78125 47.21875 15.09375 
Q 47.21875 7.46875 41.1875 3.015625 
Q 35.15625 -1.421875 24.609375 -1.421875 
Q 20.21875 -1.421875 15.453125 -0.5625 
Q 10.6875 0.296875 5.421875 2 
L 5.421875 11.28125 
Q 10.40625 8.6875 15.234375 7.390625 
Q 20.0625 6.109375 24.8125 6.109375 
Q 31.15625 6.109375 34.5625 8.28125 
Q 37.984375 10.453125 37.984375 14.40625 
Q 37.984375 18.0625 35.515625 20.015625 
Q 33.0625 21.96875 24.703125 23.78125 
L 21.578125 24.515625 
Q 13.234375 26.265625 9.515625 29.90625 
Q 5.8125 33.546875 5.8125 39.890625 
Q 5.8125 47.609375 11.28125 51.796875 
Q 16.75 56 26.8125 56 
Q 31.78125 56 36.171875 55.265625 
Q 40.578125 54.546875 44.28125 53.078125 
z
" id="DejaVuSans-73"/>
      <path d="M 9.421875 54.6875 
L 18.40625 54.6875 
L 18.40625 0 
L 9.421875 0 
z
M 9.421875 75.984375 
L 18.40625 75.984375 
L 18.40625 64.59375 
L 9.421875 64.59375 
z
" id="DejaVuSans-69"/>
      <path d="M 45.40625 46.390625 
L 45.40625 75.984375 
L 54.390625 75.984375 
L 54.390625 0 
L 45.40625 0 
L 45.40625 8.203125 
Q 42.578125 3.328125 38.25 0.953125 
Q 33.9375 -1.421875 27.875 -1.421875 
Q 17.96875 -1.421875 11.734375 6.484375 
Q 5.515625 14.40625 5.515625 27.296875 
Q 5.515625 40.1875 11.734375 48.09375 
Q 17.96875 56 27.875 56 
Q 33.9375 56 38.25 53.625 
Q 42.578125 51.265625 45.40625 46.390625 
z
M 14.796875 27.296875 
Q 14.796875 17.390625 18.875 11.75 
Q 22.953125 6.109375 30.078125 6.109375 
Q 37.203125 6.109375 41.296875 11.75 
Q 45.40625 17.390625 45.40625 27.296875 
Q 45.40625 37.203125 41.296875 42.84375 
Q 37.203125 48.484375 30.078125 48.484375 
Q 22.953125 48.484375 18.875 42.84375 
Q 14.796875 37.203125 14.796875 27.296875 
z
" id="DejaVuSans-64"/>
      <path d="M 8.5 21.578125 
L 8.5 54.6875 
L 17.484375 54.6875 
L 17.484375 21.921875 
Q 17.484375 14.15625 20.5 10.265625 
Q 23.53125 6.390625 29.59375 6.390625 
Q 36.859375 6.390625 41.078125 11.03125 
Q 45.3125 15.671875 45.3125 23.6875 
L 45.3125 54.6875 
L 54.296875 54.6875 
L 54.296875 0 
L 45.3125 0 
L 45.3125 8.40625 
Q 42.046875 3.421875 37.71875 1 
Q 33.40625 -1.421875 27.6875 -1.421875 
Q 18.265625 -1.421875 13.375 4.4375 
Q 8.5 10.296875 8.5 21.578125 
z
M 31.109375 56 
z
" id="DejaVuSans-75"/>
      <path id="DejaVuSans-20"/>
      <path d="M 9.8125 72.90625 
L 19.671875 72.90625 
L 19.671875 0 
L 9.8125 0 
z
" id="DejaVuSans-49"/>
      <path d="M 54.890625 33.015625 
L 54.890625 0 
L 45.90625 0 
L 45.90625 32.71875 
Q 45.90625 40.484375 42.875 44.328125 
Q 39.84375 48.1875 33.796875 48.1875 
Q 26.515625 48.1875 22.3125 43.546875 
Q 18.109375 38.921875 18.109375 30.90625 
L 18.109375 0 
L 9.078125 0 
L 9.078125 54.6875 
L 18.109375 54.6875 
L 18.109375 46.1875 
Q 21.34375 51.125 25.703125 53.5625 
Q 30.078125 56 35.796875 56 
Q 45.21875 56 50.046875 50.171875 
Q 54.890625 44.34375 54.890625 33.015625 
z
" id="DejaVuSans-6e"/>
      <path d="M 54.890625 54.6875 
L 35.109375 28.078125 
L 55.90625 0 
L 45.3125 0 
L 29.390625 21.484375 
L 13.484375 0 
L 2.875 0 
L 24.125 28.609375 
L 4.6875 54.6875 
L 15.28125 54.6875 
L 29.78125 35.203125 
L 44.28125 54.6875 
z
" id="DejaVuSans-78"/>
     </defs>
     <g transform="translate(179.515 340.419625)scale(0.16 -0.16)">
      <use xlink:href="#DejaVuSans-52"/>
      <use x="69.419922" xlink:href="#DejaVuSans-65"/>
      <use x="130.943359" xlink:href="#DejaVuSans-73"/>
      <use x="183.042969" xlink:href="#DejaVuSans-69"/>
      <use x="210.826172" xlink:href="#DejaVuSans-64"/>
      <use x="274.302734" xlink:href="#DejaVuSans-75"/>
      <use x="337.681641" xlink:href="#DejaVuSans-65"/>
      <use x="399.205078" xlink:href="#DejaVuSans-20"/>
      <use x="430.992188" xlink:href="#DejaVuSans-49"/>
      <use x="460.484375" xlink:href="#DejaVuSans-6e"/>
      <use x="523.863281" xlink:href="#DejaVuSans-64"/>
      <use x="587.339844" xlink:href="#DejaVuSans-65"/>
      <use x="648.847656" xlink:href="#DejaVuSans-78"/>
     </g>
    </g>
   </g>
   <g id="matplotlib.axis_2">
    <g id="ytick_1">
     <g id="line2d_8">
      <defs>
       <path d="M 0 0 
L -3.5 0 
" id="mf52f334a0b" style="stroke:#000000;stroke-width:0.8;"/>
      </defs>
      <g>
       <use style="stroke:#000000;stroke-width:0.8;" x="57.6" xlink:href="#mf52f334a0b" y="275.484154"/>
      </g>
     </g>
     <g id="text_9">
      <!-- 0.5 -->
      <defs>
       <path d="M 10.6875 12.40625 
L 21 12.40625 
L 21 0 
L 10.6875 0 
z
" id="DejaVuSans-2e"/>
      </defs>
      <g transform="translate(34.696875 279.283373)scale(0.1 -0.1)">
       <use xlink:href="#DejaVuSans-30"/>
       <use x="63.623047" xlink:href="#DejaVuSans-2e"/>
       <use x="95.410156" xlink:href="#DejaVuSans-35"/>
      </g>
     </g>
    </g>
    <g id="ytick_2">
     <g id="line2d_9">
      <g>
       <use style="stroke:#000000;stroke-width:0.8;" x="57.6" xlink:href="#mf52f334a0b" y="243.384309"/>
      </g>
     </g>
     <g id="text_10">
      <!-- 1.0 -->
      <g transform="translate(34.696875 247.183528)scale(0.1 -0.1)">
       <use xlink:href="#DejaVuSans-31"/>
       <use x="63.623047" xlink:href="#DejaVuSans-2e"/>
       <use x="95.410156" xlink:href="#DejaVuSans-30"/>
      </g>
     </g>
    </g>
    <g id="ytick_3">
     <g id="line2d_10">
      <g>
       <use style="stroke:#000000;stroke-width:0.8;" x="57.6" xlink:href="#mf52f334a0b" y="211.284463"/>
      </g>
     </g>
     <g id="text_11">
      <!-- 1.5 -->
      <g transform="translate(34.696875 215.083682)scale(0.1 -0.1)">
       <use xlink:href="#DejaVuSans-31"/>
       <use x="63.623047" xlink:href="#DejaVuSans-2e"/>
       <use x="95.410156" xlink:href="#DejaVuSans-35"/>
      </g>
     </g>
    </g>
    <g id="ytick_4">
     <g id="line2d_11">
      <g>
       <use style="stroke:#000000;stroke-width:0.8;" x="57.6" xlink:href="#mf52f334a0b" y="179.184618"/>
      </g>
     </g>
     <g id="text_12">
      <!-- 2.0 -->
      <g transform="translate(34.696875 182.983836)scale(0.1 -0.1)">
       <use xlink:href="#DejaVuSans-32"/>
       <use x="63.623047" xlink:href="#DejaVuSans-2e"/>
       <use x="95.410156" xlink:href="#DejaVuSans-30"/>
      </g>
     </g>
    </g>
    <g id="ytick_5">
     <g id="line2d_12">
      <g>
       <use style="stroke:#000000;stroke-width:0.8;" x="57.6" xlink:href="#mf52f334a0b" y="147.084772"/>
      </g>
     </g>
     <g id="text_13">
      <!-- 2.5 -->
      <g transform="translate(34.696875 150.883991)scale(0.1 -0.1)">
       <use xlink:href="#DejaVuSans-32"/>
       <use x="63.623047" xlink:href="#DejaVuSans-2e"/>
       <use x="95.410156" xlink:href="#DejaVuSans-35"/>
      </g>
     </g>
    </g>
    <g id="ytick_6">
     <g id="line2d_13">
      <g>
       <use style="stroke:#000000;stroke-width:0.8;" x="57.6" xlink:href="#mf52f334a0b" y="114.984926"/>
      </g>
     </g>
     <g id="text_14">
      <!-- 3.0 -->
      <g transform="translate(34.696875 118.784145)scale(0.1 -0.1)">
       <use xlink:href="#DejaVuSans-33"/>
       <use x="63.623047" xlink:href="#DejaVuSans-2e"/>
       <use x="95.410156" xlink:href="#DejaVuSans-30"/>
      </g>
     </g>
    </g>
    <g id="ytick_7">
     <g id="line2d_14">
      <g>
       <use style="stroke:#000000;stroke-width:0.8;" x="57.6" xlink:href="#mf52f334a0b" y="82.885081"/>
      </g>
     </g>
     <g id="text_15">
      <!-- 3.5 -->
      <g transform="translate(34.696875 86.6843)scale(0.1 -0.1)">
       <use xlink:href="#DejaVuSans-33"/>
       <use x="63.623047" xlink:href="#DejaVuSans-2e"/>
       <use x="95.410156" xlink:href="#DejaVuSans-35"/>
      </g>
     </g>
    </g>
    <g id="ytick_8">
     <g id="line2d_15">
      <g>
       <use style="stroke:#000000;stroke-width:0.8;" x="57.6" xlink:href="#mf52f334a0b" y="50.785235"/>
      </g>
     </g>
     <g id="text_16">
      <!-- 4.0 -->
      <defs>
       <path d="M 37.796875 64.3125 
L 12.890625 25.390625 
L 37.796875 25.390625 
z
M 35.203125 72.90625 
L 47.609375 72.90625 
L 47.609375 25.390625 
L 58.015625 25.390625 
L 58.015625 17.1875 
L 47.609375 17.1875 
L 47.609375 0 
L 37.796875 0 
L 37.796875 17.1875 
L 4.890625 17.1875 
L 4.890625 26.703125 
z
" id="DejaVuSans-34"/>
      </defs>
      <g transform="translate(34.696875 54.584454)scale(0.1 -0.1)">
       <use xlink:href="#DejaVuSans-34"/>
       <use x="63.623047" xlink:href="#DejaVuSans-2e"/>
       <use x="95.410156" xlink:href="#DejaVuSans-30"/>
      </g>
     </g>
    </g>
    <g id="text_17">
     <!-- RMSF ($\AA$) -->
     <defs>
      <path d="M 9.8125 72.90625 
L 24.515625 72.90625 
L 43.109375 23.296875 
L 61.8125 72.90625 
L 76.515625 72.90625 
L 76.515625 0 
L 66.890625 0 
L 66.890625 64.015625 
L 48.09375 14.015625 
L 38.1875 14.015625 
L 19.390625 64.015625 
L 19.390625 0 
L 9.8125 0 
z
" id="DejaVuSans-4d"/>
      <path d="M 53.515625 70.515625 
L 53.515625 60.890625 
Q 47.90625 63.578125 42.921875 64.890625 
Q 37.9375 66.21875 33.296875 66.21875 
Q 25.25 66.21875 20.875 63.09375 
Q 16.5 59.96875 16.5 54.203125 
Q 16.5 49.359375 19.40625 46.890625 
Q 22.3125 44.4375 30.421875 42.921875 
L 36.375 41.703125 
Q 47.40625 39.59375 52.65625 34.296875 
Q 57.90625 29 57.90625 20.125 
Q 57.90625 9.515625 50.796875 4.046875 
Q 43.703125 -1.421875 29.984375 -1.421875 
Q 24.8125 -1.421875 18.96875 -0.25 
Q 13.140625 0.921875 6.890625 3.21875 
L 6.890625 13.375 
Q 12.890625 10.015625 18.65625 8.296875 
Q 24.421875 6.59375 29.984375 6.59375 
Q 38.421875 6.59375 43.015625 9.90625 
Q 47.609375 13.234375 47.609375 19.390625 
Q 47.609375 24.75 44.3125 27.78125 
Q 41.015625 30.8125 33.5 32.328125 
L 27.484375 33.5 
Q 16.453125 35.6875 11.515625 40.375 
Q 6.59375 45.0625 6.59375 53.421875 
Q 6.59375 63.09375 13.40625 68.65625 
Q 20.21875 74.21875 32.171875 74.21875 
Q 37.3125 74.21875 42.625 73.28125 
Q 47.953125 72.359375 53.515625 70.515625 
z
" id="DejaVuSans-53"/>
      <path d="M 9.8125 72.90625 
L 51.703125 72.90625 
L 51.703125 64.59375 
L 19.671875 64.59375 
L 19.671875 43.109375 
L 48.578125 43.109375 
L 48.578125 34.8125 
L 19.671875 34.8125 
L 19.671875 0 
L 9.8125 0 
z
" id="DejaVuSans-46"/>
      <path d="M 31 75.875 
Q 24.46875 64.65625 21.28125 53.65625 
Q 18.109375 42.671875 18.109375 31.390625 
Q 18.109375 20.125 21.3125 9.0625 
Q 24.515625 -2 31 -13.1875 
L 23.1875 -13.1875 
Q 15.875 -1.703125 12.234375 9.375 
Q 8.59375 20.453125 8.59375 31.390625 
Q 8.59375 42.28125 12.203125 53.3125 
Q 15.828125 64.359375 23.1875 75.875 
z
" id="DejaVuSans-28"/>
      <path d="M 56.40625 0 
L 31.90625 0 
L 31.90625 1.59375 
Q 36.40625 1.796875 38 3 
Q 39.59375 4.203125 39.59375 6.90625 
Q 39.59375 7.703125 39.40625 9.5 
L 37.40625 22.59375 
L 15.40625 22.59375 
L 9.5 11.5 
Q 7.296875 7.40625 7.296875 4.90625 
Q 7.296875 1.90625 13.5 1.59375 
L 13.5 0 
L -5.09375 0 
L -5.09375 1.59375 
Q -1.703125 2.296875 0.4375 4.796875 
Q 2.59375 7.296875 8.296875 17.203125 
L 36.796875 66.796875 
L 39.40625 66.796875 
L 48.59375 11.5 
Q 49.59375 5.296875 51 3.59375 
Q 52.40625 1.90625 56.40625 1.59375 
z
M 36.90625 26.203125 
L 32.40625 52.5 
L 17.5 26.203125 
z
M 44.59375 95.703125 
Q 50.5 89.796875 50.5 85.6875 
Q 50.5 81.59375 47.546875 78.6875 
Q 44.59375 75.796875 40.5 75.796875 
Q 36.203125 75.796875 33.34375 78.6875 
Q 30.5 81.59375 30.5 85.796875 
Q 30.5 89.796875 33.453125 92.75 
Q 36.40625 95.703125 40.40625 95.703125 
Q 44.59375 95.703125 50.5 89.796875 
z
M 43.296875 79.203125 
Q 47.09375 82.90625 47.09375 85.703125 
Q 47.09375 88.5 45.140625 90.390625 
Q 43.203125 92.296875 40.40625 92.296875 
Q 37.796875 92.296875 35.84375 90.34375 
Q 33.90625 88.40625 33.90625 85.796875 
Q 33.90625 83 35.75 81.09375 
Q 37.59375 79.203125 40.40625 79.203125 
Q 43.296875 79.203125 47.09375 82.90625 
z
" id="STIXGeneral-Italic-c5"/>
      <path d="M 8.015625 75.875 
L 15.828125 75.875 
Q 23.140625 64.359375 26.78125 53.3125 
Q 30.421875 42.28125 30.421875 31.390625 
Q 30.421875 20.453125 26.78125 9.375 
Q 23.140625 -1.703125 15.828125 -13.1875 
L 8.015625 -13.1875 
Q 14.5 -2 17.703125 9.0625 
Q 20.90625 20.125 20.90625 31.390625 
Q 20.90625 42.671875 17.703125 53.65625 
Q 14.5 64.65625 8.015625 75.875 
z
" id="DejaVuSans-29"/>
     </defs>
     <g transform="translate(27.369375 210.368)rotate(-90)scale(0.16 -0.16)">
      <use transform="translate(0 0.296875)" xlink:href="#DejaVuSans-52"/>
      <use transform="translate(69.482422 0.296875)" xlink:href="#DejaVuSans-4d"/>
      <use transform="translate(155.761719 0.296875)" xlink:href="#DejaVuSans-53"/>
      <use transform="translate(219.238281 0.296875)" xlink:href="#DejaVuSans-46"/>
      <use transform="translate(276.757812 0.296875)" xlink:href="#DejaVuSans-20"/>
      <use transform="translate(308.544922 0.296875)" xlink:href="#DejaVuSans-28"/>
      <use transform="translate(347.558594 0.296875)" xlink:href="#STIXGeneral-Italic-c5"/>
      <use transform="translate(408.658585 0.296875)" xlink:href="#DejaVuSans-29"/>
     </g>
    </g>
   </g>
   <g id="line2d_16">
    <path clip-path="url(#pbb877b17d9)" d="M 57.6 165.317484 
L 58.737325 217.961231 
L 59.87465 230.801169 
L 61.011975 220.850217 
L 62.149299 223.033007 
L 63.286624 249.162281 
L 64.423949 265.597402 
L 65.561274 265.9826 
L 66.698599 267.972791 
L 67.835924 266.688797 
L 68.973248 263.029414 
L 70.110573 270.21978 
L 71.247898 267.715992 
L 72.385223 257.444041 
L 74.659873 225.793593 
L 75.797197 230.865369 
L 76.934522 242.421313 
L 78.071847 231.892564 
L 80.346497 268.550588 
L 81.483822 274.26436 
L 82.621146 278.822538 
L 83.758471 277.987942 
L 84.895796 272.530969 
L 86.033121 264.506007 
L 87.170446 234.332152 
L 88.307771 228.040583 
L 89.445096 238.248334 
L 91.719745 263.543012 
L 92.85707 273.301365 
L 93.994395 278.244741 
L 95.13172 278.116342 
L 96.269045 277.089147 
L 97.406369 274.39276 
L 98.543694 268.10119 
L 99.681019 258.599636 
L 100.818344 247.23629 
L 101.955669 249.611679 
L 103.092994 241.586717 
L 104.230318 242.999111 
L 105.367643 255.903249 
L 106.504968 251.794468 
L 107.642293 239.211329 
L 108.779618 239.917525 
L 109.916943 246.915292 
L 111.054268 256.288447 
L 112.191592 263.735611 
L 113.328917 258.150238 
L 114.466242 260.397227 
L 115.603567 267.651792 
L 116.740892 268.293789 
L 117.878217 268.16539 
L 119.015541 270.990176 
L 120.152866 271.118575 
L 121.290191 270.15558 
L 122.427516 264.634407 
L 123.564841 262.194818 
L 124.702166 260.975024 
L 125.83949 244.475704 
L 126.976815 225.729394 
L 129.251465 259.883629 
L 133.800764 276.44715 
L 134.938089 272.33837 
L 136.075414 276.38295 
L 137.212739 273.108766 
L 138.350064 272.787767 
L 139.487389 270.540778 
L 140.624713 263.543012 
L 141.762038 235.872945 
L 142.899363 213.788251 
L 144.036688 207.432482 
L 145.174013 233.818555 
L 146.311338 251.280871 
L 147.448662 262.772616 
L 148.585987 264.698606 
L 149.723312 275.997752 
L 150.860637 279.657134 
L 151.997962 271.311174 
L 153.135287 272.402569 
L 154.272611 274.713758 
L 155.409936 273.172966 
L 156.547261 274.26436 
L 157.684586 274.713758 
L 158.821911 269.064185 
L 159.959236 272.402569 
L 161.096561 273.108766 
L 162.233885 267.266594 
L 163.37121 262.515817 
L 164.508535 268.678987 
L 165.64586 266.239399 
L 166.783185 255.71065 
L 167.92051 254.426656 
L 169.057834 259.626831 
L 170.195159 258.728035 
L 171.332484 266.175199 
L 172.469809 269.962981 
L 173.607134 266.110999 
L 174.744459 268.422188 
L 175.881783 272.916167 
L 177.019108 272.595168 
L 178.156433 277.538545 
L 179.293758 278.629939 
L 180.431083 280.49173 
L 181.568408 281.197927 
L 182.705732 280.363331 
L 183.843057 280.106532 
L 184.980382 280.941128 
L 186.117707 280.62013 
L 187.255032 279.785534 
L 188.392357 275.740953 
L 189.529682 274.970557 
L 190.667006 279.528735 
L 191.804331 278.308941 
L 192.941656 275.612554 
L 194.078981 276.960747 
L 195.216306 279.079337 
L 196.353631 267.459193 
L 197.490955 263.735611 
L 198.62828 268.807387 
L 199.765605 275.869353 
L 200.90293 277.666944 
L 202.040255 275.098956 
L 203.17758 269.898781 
L 204.314904 272.081571 
L 205.452229 269.320984 
L 206.589554 268.550588 
L 207.726879 273.301365 
L 208.864204 264.377608 
L 210.001529 268.422188 
L 211.138854 274.777958 
L 212.276178 276.768148 
L 213.413503 279.207736 
L 214.550828 277.153346 
L 215.688153 269.449383 
L 217.962803 276.832348 
L 219.100127 281.968323 
L 220.237452 281.133727 
L 221.374777 276.960747 
L 222.512102 277.024947 
L 223.649427 271.696373 
L 224.786752 269.706182 
L 225.924076 272.466769 
L 227.061401 265.597402 
L 228.198726 261.167623 
L 229.336051 273.493964 
L 230.473376 269.513583 
L 231.610701 268.293789 
L 232.748025 259.562631 
L 233.88535 264.185009 
L 235.022675 240.559522 
L 236.16 211.220264 
L 237.297325 198.765523 
L 238.43465 235.487747 
L 239.571975 253.206862 
L 240.709299 257.893439 
L 241.846624 247.043691 
L 242.983949 240.880521 
L 244.121274 238.569332 
L 245.258599 236.90014 
L 246.395924 248.520284 
L 247.533248 248.327685 
L 248.670573 231.186367 
L 249.807898 217.640233 
L 250.945223 215.072245 
L 252.082548 260.975024 
L 253.219873 267.394993 
L 254.357197 264.827006 
L 255.494522 264.955405 
L 256.631847 262.708416 
L 257.769172 250.638874 
L 260.043822 212.119059 
L 262.318471 246.273295 
L 263.455796 252.950063 
L 264.593121 256.095848 
L 265.730446 270.09138 
L 266.867771 273.301365 
L 268.005096 279.336136 
L 269.14242 282.54612 
L 270.279745 284.72891 
L 271.41707 284.407911 
L 272.554395 278.50154 
L 273.69172 281.583125 
L 274.829045 280.812729 
L 275.966369 276.832348 
L 277.103694 275.484154 
L 278.241019 281.197927 
L 279.378344 277.538545 
L 280.515669 272.787767 
L 281.652994 277.474345 
L 282.790318 272.27417 
L 283.927643 264.570207 
L 285.064968 259.498431 
L 286.202293 252.950063 
L 287.339618 255.261252 
L 288.476943 264.313408 
L 289.614268 262.836815 
L 290.751592 236.193943 
L 291.888917 196.325935 
L 293.026242 152.413346 
L 294.163567 132.062044 
L 295.300892 141.3068 
L 296.438217 126.861869 
L 297.575541 155.045534 
L 298.712866 204.864494 
L 299.850191 212.440058 
L 300.987516 207.68928 
L 302.124841 222.070011 
L 303.262166 264.506007 
L 304.39949 259.305832 
L 305.536815 231.314767 
L 306.67414 240.495323 
L 307.811465 247.621488 
L 308.94879 236.771741 
L 310.086115 235.808745 
L 311.223439 243.705307 
L 312.360764 237.477937 
L 313.498089 232.277762 
L 314.635414 232.213563 
L 315.772739 251.280871 
L 316.910064 256.160047 
L 318.047389 255.774849 
L 319.184713 262.194818 
L 320.322038 270.540778 
L 321.459363 268.03699 
L 322.596688 266.303599 
L 323.734013 275.163156 
L 324.871338 276.703949 
L 326.008662 270.09138 
L 328.283312 283.123918 
L 329.420637 278.886738 
L 330.557962 277.410145 
L 331.695287 274.39276 
L 332.832611 265.9826 
L 333.969936 263.157814 
L 335.107261 264.698606 
L 336.244586 267.780191 
L 337.381911 278.822538 
L 338.519236 279.143537 
L 339.656561 271.439574 
L 340.793885 266.817196 
L 341.93121 246.915292 
L 343.068535 244.026306 
L 344.20586 256.673645 
L 345.343185 273.108766 
L 346.48051 272.916167 
L 347.617834 265.212204 
L 348.755159 265.533202 
L 349.892484 272.14577 
L 352.167134 261.424422 
L 353.304459 268.10119 
L 354.441783 264.570207 
L 355.579108 270.733377 
L 356.716433 261.360222 
L 357.853758 233.048159 
L 358.991083 220.33662 
L 360.128408 241.13732 
L 361.265732 231.892564 
L 362.403057 241.650917 
L 363.540382 226.49979 
L 365.815032 253.399461 
L 366.952357 240.238524 
L 368.089682 238.184134 
L 369.227006 248.584484 
L 370.364331 246.915292 
L 371.501656 247.942487 
L 372.638981 250.831473 
L 373.776306 267.202394 
L 374.913631 262.644216 
L 376.050955 265.533202 
L 377.18828 267.844391 
L 378.325605 265.9826 
L 379.46293 258.663835 
L 380.600255 258.021838 
L 381.73758 240.238524 
L 382.874904 247.878287 
L 384.012229 250.125276 
L 385.149554 248.520284 
L 387.424204 262.901015 
L 388.561529 259.305832 
L 389.698854 262.002219 
L 390.836178 258.342837 
L 391.973503 240.880521 
L 393.110828 235.937145 
L 394.248153 231.571566 
L 395.385478 213.146254 
L 396.522803 188.557773 
L 397.660127 193.950547 
L 398.797452 206.469486 
L 399.934777 183.421797 
L 401.072102 177.515426 
L 402.209427 91.552039 
L 403.346752 184.769991 
L 404.484076 218.795827 
L 405.621401 189.328169 
L 406.758726 219.758822 
L 407.896051 200.884113 
L 409.033376 204.029898 
L 410.170701 252.821663 
L 411.308025 260.782425 
L 412.44535 261.167623 
L 413.582675 229.517176 
L 414.72 245.567098 
L 414.72 245.567098 
" style="fill:none;stroke:#4a738c;stroke-linecap:square;stroke-width:1.5;"/>
   </g>
   <g id="patch_3">
    <path d="M 57.6 307.584 
L 57.6 41.472 
" style="fill:none;stroke:#000000;stroke-linecap:square;stroke-linejoin:miter;stroke-width:0.8;"/>
   </g>
   <g id="patch_4">
    <path d="M 414.72 307.584 
L 414.72 41.472 
" style="fill:none;stroke:#000000;stroke-linecap:square;stroke-linejoin:miter;stroke-width:0.8;"/>
   </g>
   <g id="patch_5">
    <path d="M 57.6 307.584 
L 414.72 307.584 
" style="fill:none;stroke:#000000;stroke-linecap:square;stroke-linejoin:miter;stroke-width:0.8;"/>
   </g>
   <g id="patch_6">
    <path d="M 57.6 41.472 
L 414.72 41.472 
" style="fill:none;stroke:#000000;stroke-linecap:square;stroke-linejoin:miter;stroke-width:0.8;"/>
   </g>
   <g id="legend_1">
    <g id="patch_7">
     <path d="M 208.399844 29.41711 
L 263.920156 29.41711 
Q 265.920156 29.41711 265.920156 27.41711 
L 265.920156 17.738985 
Q 265.920156 15.738985 263.920156 15.738985 
L 208.399844 15.738985 
Q 206.399844 15.738985 206.399844 17.738985 
L 206.399844 27.41711 
Q 206.399844 29.41711 208.399844 29.41711 
z
" style="fill:#ffffff;opacity:0.8;stroke:#cccccc;stroke-linejoin:miter;"/>
    </g>
    <g id="line2d_17">
     <path d="M 208.399844 21.837423 
L 218.399844 21.837423 
" style="fill:none;stroke:#4a738c;stroke-linecap:square;stroke-width:8;"/>
    </g>
    <g id="line2d_18"/>
    <g id="text_18">
     <!-- C-alphas -->
     <defs>
      <path d="M 64.40625 67.28125 
L 64.40625 56.890625 
Q 59.421875 61.53125 53.78125 63.8125 
Q 48.140625 66.109375 41.796875 66.109375 
Q 29.296875 66.109375 22.65625 58.46875 
Q 16.015625 50.828125 16.015625 36.375 
Q 16.015625 21.96875 22.65625 14.328125 
Q 29.296875 6.6875 41.796875 6.6875 
Q 48.140625 6.6875 53.78125 8.984375 
Q 59.421875 11.28125 64.40625 15.921875 
L 64.40625 5.609375 
Q 59.234375 2.09375 53.4375 0.328125 
Q 47.65625 -1.421875 41.21875 -1.421875 
Q 24.65625 -1.421875 15.125 8.703125 
Q 5.609375 18.84375 5.609375 36.375 
Q 5.609375 53.953125 15.125 64.078125 
Q 24.65625 74.21875 41.21875 74.21875 
Q 47.75 74.21875 53.53125 72.484375 
Q 59.328125 70.75 64.40625 67.28125 
z
" id="DejaVuSans-43"/>
      <path d="M 4.890625 31.390625 
L 31.203125 31.390625 
L 31.203125 23.390625 
L 4.890625 23.390625 
z
" id="DejaVuSans-2d"/>
      <path d="M 34.28125 27.484375 
Q 23.390625 27.484375 19.1875 25 
Q 14.984375 22.515625 14.984375 16.5 
Q 14.984375 11.71875 18.140625 8.90625 
Q 21.296875 6.109375 26.703125 6.109375 
Q 34.1875 6.109375 38.703125 11.40625 
Q 43.21875 16.703125 43.21875 25.484375 
L 43.21875 27.484375 
z
M 52.203125 31.203125 
L 52.203125 0 
L 43.21875 0 
L 43.21875 8.296875 
Q 40.140625 3.328125 35.546875 0.953125 
Q 30.953125 -1.421875 24.3125 -1.421875 
Q 15.921875 -1.421875 10.953125 3.296875 
Q 6 8.015625 6 15.921875 
Q 6 25.140625 12.171875 29.828125 
Q 18.359375 34.515625 30.609375 34.515625 
L 43.21875 34.515625 
L 43.21875 35.40625 
Q 43.21875 41.609375 39.140625 45 
Q 35.0625 48.390625 27.6875 48.390625 
Q 23 48.390625 18.546875 47.265625 
Q 14.109375 46.140625 10.015625 43.890625 
L 10.015625 52.203125 
Q 14.9375 54.109375 19.578125 55.046875 
Q 24.21875 56 28.609375 56 
Q 40.484375 56 46.34375 49.84375 
Q 52.203125 43.703125 52.203125 31.203125 
z
" id="DejaVuSans-61"/>
      <path d="M 9.421875 75.984375 
L 18.40625 75.984375 
L 18.40625 0 
L 9.421875 0 
z
" id="DejaVuSans-6c"/>
      <path d="M 18.109375 8.203125 
L 18.109375 -20.796875 
L 9.078125 -20.796875 
L 9.078125 54.6875 
L 18.109375 54.6875 
L 18.109375 46.390625 
Q 20.953125 51.265625 25.265625 53.625 
Q 29.59375 56 35.59375 56 
Q 45.5625 56 51.78125 48.09375 
Q 58.015625 40.1875 58.015625 27.296875 
Q 58.015625 14.40625 51.78125 6.484375 
Q 45.5625 -1.421875 35.59375 -1.421875 
Q 29.59375 -1.421875 25.265625 0.953125 
Q 20.953125 3.328125 18.109375 8.203125 
z
M 48.6875 27.296875 
Q 48.6875 37.203125 44.609375 42.84375 
Q 40.53125 48.484375 33.40625 48.484375 
Q 26.265625 48.484375 22.1875 42.84375 
Q 18.109375 37.203125 18.109375 27.296875 
Q 18.109375 17.390625 22.1875 11.75 
Q 26.265625 6.109375 33.40625 6.109375 
Q 40.53125 6.109375 44.609375 11.75 
Q 48.6875 17.390625 48.6875 27.296875 
z
" id="DejaVuSans-70"/>
      <path d="M 54.890625 33.015625 
L 54.890625 0 
L 45.90625 0 
L 45.90625 32.71875 
Q 45.90625 40.484375 42.875 44.328125 
Q 39.84375 48.1875 33.796875 48.1875 
Q 26.515625 48.1875 22.3125 43.546875 
Q 18.109375 38.921875 18.109375 30.90625 
L 18.109375 0 
L 9.078125 0 
L 9.078125 75.984375 
L 18.109375 75.984375 
L 18.109375 46.1875 
Q 21.34375 51.125 25.703125 53.5625 
Q 30.078125 56 35.796875 56 
Q 45.21875 56 50.046875 50.171875 
Q 54.890625 44.34375 54.890625 33.015625 
z
" id="DejaVuSans-68"/>
     </defs>
     <g transform="translate(220.399844 25.337423)scale(0.1 -0.1)">
      <use xlink:href="#DejaVuSans-43"/>
      <use x="69.824219" xlink:href="#DejaVuSans-2d"/>
      <use x="105.908203" xlink:href="#DejaVuSans-61"/>
      <use x="167.1875" xlink:href="#DejaVuSans-6c"/>
      <use x="194.970703" xlink:href="#DejaVuSans-70"/>
      <use x="258.447266" xlink:href="#DejaVuSans-68"/>
      <use x="321.826172" xlink:href="#DejaVuSans-61"/>
      <use x="383.105469" xlink:href="#DejaVuSans-73"/>
     </g>
    </g>
   </g>
  </g>
 </g>
 <defs>
  <clipPath id="pbb877b17d9">
   <rect height="266.112" width="357.12" x="57.6" y="41.472"/>
  </clipPath>
 </defs>
</svg>
