<?xml version="1.0" encoding="utf-8" standalone="no"?>
<!DOCTYPE svg PUBLIC "-//W3C//DTD SVG 1.1//EN"
  "http://www.w3.org/Graphics/SVG/1.1/DTD/svg11.dtd">
<!-- Created with matplotlib (http://matplotlib.org/) -->
<svg height="345.6pt" version="1.1" viewBox="0 0 460.8 345.6" width="460.8pt" xmlns="http://www.w3.org/2000/svg" xmlns:xlink="http://www.w3.org/1999/xlink">
 <defs>
  <style type="text/css">
*{stroke-linecap:butt;stroke-linejoin:round;}
  </style>
 </defs>
 <g id="figure_1">
  <g id="patch_1">
   <path d="M 0 345.6 
L 460.8 345.6 
L 460.8 0 
L 0 0 
z
" style="fill:#ffffff;"/>
  </g>
  <g id="axes_1">
   <g id="patch_2">
    <path d="M 57.6 276.48 
L 414.72 276.48 
L 414.72 41.472 
L 57.6 41.472 
z
" style="fill:#ffffff;"/>
   </g>
   <g id="PolyCollection_1">
    <path clip-path="url(#pf77b206253)" d="M 57.6 276.48 
L 57.6 276.48 
L 58.733714 276.48 
L 59.867429 276.48 
L 61.001143 276.48 
L 62.134857 276.48 
L 63.268571 276.48 
L 64.402286 276.48 
L 65.536 276.48 
L 66.669714 276.48 
L 67.803429 276.48 
L 68.937143 276.48 
L 70.070857 276.48 
L 71.204571 276.48 
L 72.338286 276.48 
L 73.472 276.48 
L 74.605714 276.48 
L 75.739429 276.48 
L 76.873143 276.48 
L 78.006857 276.48 
L 79.140571 276.48 
L 80.274286 276.48 
L 81.408 276.48 
L 82.541714 276.48 
L 83.675429 276.48 
L 84.809143 276.48 
L 85.942857 276.48 
L 87.076571 276.48 
L 88.210286 276.48 
L 89.344 276.48 
L 90.477714 276.48 
L 91.611429 276.48 
L 92.745143 276.48 
L 93.878857 276.48 
L 95.012571 276.48 
L 96.146286 276.48 
L 97.28 276.48 
L 98.413714 276.48 
L 99.547429 276.48 
L 100.681143 276.48 
L 101.814857 276.48 
L 102.948571 276.48 
L 104.082286 276.48 
L 105.216 276.48 
L 106.349714 276.48 
L 107.483429 276.48 
L 108.617143 276.48 
L 109.750857 276.48 
L 110.884571 276.48 
L 112.018286 276.48 
L 113.152 276.48 
L 114.285714 276.48 
L 115.419429 276.48 
L 116.553143 276.48 
L 117.686857 276.48 
L 118.820571 276.48 
L 119.954286 276.48 
L 121.088 276.48 
L 122.221714 276.48 
L 123.355429 276.48 
L 124.489143 276.48 
L 125.622857 276.48 
L 126.756571 276.48 
L 127.890286 276.48 
L 129.024 276.48 
L 130.157714 276.48 
L 131.291429 276.48 
L 132.425143 276.48 
L 133.558857 276.48 
L 134.692571 276.48 
L 135.826286 276.48 
L 136.96 276.48 
L 138.093714 276.48 
L 139.227429 276.48 
L 140.361143 276.48 
L 141.494857 276.48 
L 142.628571 276.48 
L 143.762286 276.48 
L 144.896 276.48 
L 146.029714 276.48 
L 147.163429 276.48 
L 148.297143 276.48 
L 149.430857 276.48 
L 150.564571 276.48 
L 151.698286 276.48 
L 152.832 276.48 
L 153.965714 276.48 
L 155.099429 276.48 
L 156.233143 276.48 
L 157.366857 276.48 
L 158.500571 276.48 
L 159.634286 276.48 
L 160.768 276.48 
L 161.901714 276.48 
L 163.035429 276.48 
L 164.169143 276.48 
L 165.302857 276.48 
L 166.436571 276.48 
L 167.570286 276.48 
L 168.704 276.48 
L 169.837714 276.48 
L 170.971429 276.48 
L 172.105143 276.48 
L 173.238857 276.48 
L 174.372571 276.48 
L 175.506286 276.48 
L 176.64 276.48 
L 177.773714 276.48 
L 178.907429 276.48 
L 180.041143 276.48 
L 181.174857 276.48 
L 182.308571 276.48 
L 183.442286 276.48 
L 184.576 276.48 
L 185.709714 276.48 
L 186.843429 276.48 
L 187.977143 276.48 
L 189.110857 276.48 
L 190.244571 276.48 
L 191.378286 276.48 
L 192.512 276.48 
L 193.645714 276.48 
L 194.779429 276.48 
L 195.913143 276.48 
L 197.046857 276.48 
L 198.180571 276.48 
L 199.314286 276.48 
L 200.448 276.48 
L 201.581714 276.48 
L 202.715429 276.48 
L 203.849143 276.48 
L 204.982857 276.48 
L 206.116571 276.48 
L 207.250286 276.48 
L 208.384 276.48 
L 209.517714 276.48 
L 210.651429 276.48 
L 211.785143 276.48 
L 212.918857 276.48 
L 214.052571 276.48 
L 215.186286 276.48 
L 216.32 276.48 
L 217.453714 276.48 
L 218.587429 276.48 
L 219.721143 276.48 
L 220.854857 276.48 
L 221.988571 276.48 
L 223.122286 276.48 
L 224.256 276.48 
L 225.389714 276.48 
L 226.523429 276.48 
L 227.657143 276.48 
L 228.790857 276.48 
L 229.924571 276.48 
L 231.058286 276.48 
L 232.192 276.48 
L 233.325714 276.48 
L 234.459429 276.48 
L 235.593143 276.48 
L 236.726857 276.48 
L 237.860571 276.48 
L 238.994286 276.48 
L 240.128 276.48 
L 241.261714 276.48 
L 242.395429 276.48 
L 243.529143 276.48 
L 244.662857 276.48 
L 245.796571 276.48 
L 246.930286 276.48 
L 248.064 276.48 
L 249.197714 276.48 
L 250.331429 276.48 
L 251.465143 276.48 
L 252.598857 276.48 
L 253.732571 276.48 
L 254.866286 276.48 
L 256 276.48 
L 257.133714 276.48 
L 258.267429 276.48 
L 259.401143 276.48 
L 260.534857 276.48 
L 261.668571 276.48 
L 262.802286 276.48 
L 263.936 276.48 
L 265.069714 276.48 
L 266.203429 276.48 
L 267.337143 276.48 
L 268.470857 276.48 
L 269.604571 276.48 
L 270.738286 276.48 
L 271.872 276.48 
L 273.005714 276.48 
L 274.139429 276.48 
L 275.273143 276.48 
L 276.406857 276.48 
L 277.540571 276.48 
L 278.674286 276.48 
L 279.808 276.48 
L 280.941714 276.48 
L 282.075429 276.48 
L 283.209143 276.48 
L 284.342857 276.48 
L 285.476571 276.48 
L 286.610286 276.48 
L 287.744 276.48 
L 288.877714 276.48 
L 290.011429 276.48 
L 291.145143 276.48 
L 292.278857 276.48 
L 293.412571 276.48 
L 294.546286 276.48 
L 295.68 276.48 
L 296.813714 276.48 
L 297.947429 276.48 
L 299.081143 276.48 
L 300.214857 276.48 
L 301.348571 276.48 
L 302.482286 276.48 
L 303.616 276.48 
L 304.749714 276.48 
L 305.883429 276.48 
L 307.017143 276.48 
L 308.150857 276.48 
L 309.284571 276.48 
L 310.418286 276.48 
L 311.552 276.48 
L 312.685714 276.48 
L 313.819429 276.48 
L 314.953143 276.48 
L 316.086857 276.48 
L 317.220571 276.48 
L 318.354286 276.48 
L 319.488 276.48 
L 320.621714 276.48 
L 321.755429 276.48 
L 322.889143 276.48 
L 324.022857 276.48 
L 325.156571 276.48 
L 326.290286 276.48 
L 327.424 276.48 
L 328.557714 276.48 
L 329.691429 276.48 
L 330.825143 276.48 
L 331.958857 276.48 
L 333.092571 276.48 
L 334.226286 276.48 
L 335.36 276.48 
L 336.493714 276.48 
L 337.627429 276.48 
L 338.761143 276.48 
L 339.894857 276.48 
L 341.028571 276.48 
L 342.162286 276.48 
L 343.296 276.48 
L 344.429714 276.48 
L 345.563429 276.48 
L 346.697143 276.48 
L 347.830857 276.48 
L 348.964571 276.48 
L 350.098286 276.48 
L 351.232 276.48 
L 352.365714 276.48 
L 353.499429 276.48 
L 354.633143 276.48 
L 355.766857 276.48 
L 356.900571 276.48 
L 358.034286 276.48 
L 359.168 276.48 
L 360.301714 276.48 
L 361.435429 276.48 
L 362.569143 276.48 
L 363.702857 276.48 
L 364.836571 276.48 
L 365.970286 276.48 
L 367.104 276.48 
L 368.237714 276.48 
L 369.371429 276.48 
L 370.505143 276.48 
L 371.638857 276.48 
L 372.772571 276.48 
L 373.906286 276.48 
L 375.04 276.48 
L 376.173714 276.48 
L 377.307429 276.48 
L 378.441143 276.48 
L 379.574857 276.48 
L 380.708571 276.48 
L 381.842286 276.48 
L 382.976 276.48 
L 384.109714 276.48 
L 385.243429 276.48 
L 386.377143 276.48 
L 387.510857 276.48 
L 388.644571 276.48 
L 389.778286 276.48 
L 390.912 276.48 
L 392.045714 276.48 
L 393.179429 276.48 
L 394.313143 276.48 
L 395.446857 276.48 
L 396.580571 276.48 
L 397.714286 276.48 
L 398.848 276.48 
L 399.981714 276.48 
L 401.115429 276.48 
L 402.249143 276.48 
L 403.382857 276.48 
L 404.516571 276.48 
L 405.650286 276.48 
L 406.784 276.48 
L 407.917714 276.48 
L 409.051429 276.48 
L 410.185143 276.48 
L 411.318857 276.48 
L 412.452571 276.48 
L 413.586286 276.48 
L 413.586286 276.48 
L 413.586286 276.48 
L 412.452571 276.48 
L 411.318857 276.48 
L 410.185143 276.48 
L 409.051429 276.48 
L 407.917714 276.48 
L 406.784 276.48 
L 405.650286 276.48 
L 404.516571 276.48 
L 403.382857 276.48 
L 402.249143 276.48 
L 401.115429 276.48 
L 399.981714 276.48 
L 398.848 276.48 
L 397.714286 276.48 
L 396.580571 223.264735 
L 395.446857 113.92749 
L 394.313143 113.92749 
L 393.179429 113.92749 
L 392.045714 137.404812 
L 390.912 276.48 
L 389.778286 276.48 
L 388.644571 276.48 
L 387.510857 276.48 
L 386.377143 276.48 
L 385.243429 276.48 
L 384.109714 276.48 
L 382.976 276.48 
L 381.842286 276.48 
L 380.708571 276.48 
L 379.574857 276.48 
L 378.441143 276.48 
L 377.307429 276.48 
L 376.173714 276.48 
L 375.04 276.48 
L 373.906286 276.48 
L 372.772571 276.48 
L 371.638857 276.48 
L 370.505143 276.48 
L 369.371429 276.48 
L 368.237714 276.48 
L 367.104 190.620077 
L 365.970286 103.86578 
L 364.836571 83.518767 
L 363.702857 83.518767 
L 362.569143 132.932941 
L 361.435429 137.628406 
L 360.301714 276.48 
L 359.168 276.48 
L 358.034286 276.48 
L 356.900571 238.02191 
L 355.766857 238.02191 
L 354.633143 238.02191 
L 353.499429 238.02191 
L 352.365714 276.48 
L 351.232 248.7544 
L 350.098286 85.531109 
L 348.964571 59.817851 
L 347.830857 59.594257 
L 346.697143 59.594257 
L 345.563429 114.821864 
L 344.429714 273.34969 
L 343.296 276.48 
L 342.162286 276.48 
L 341.028571 276.48 
L 339.894857 276.48 
L 338.761143 276.48 
L 337.627429 276.48 
L 336.493714 276.48 
L 335.36 276.48 
L 334.226286 276.48 
L 333.092571 276.48 
L 331.958857 276.48 
L 330.825143 276.48 
L 329.691429 276.48 
L 328.557714 272.231723 
L 327.424 53.333638 
L 326.290286 52.886451 
L 325.156571 52.662857 
L 324.022857 52.662857 
L 322.889143 52.662857 
L 321.755429 52.662857 
L 320.621714 52.662857 
L 319.488 54.675199 
L 318.354286 276.48 
L 317.220571 276.48 
L 316.086857 276.48 
L 314.953143 276.48 
L 313.819429 276.48 
L 312.685714 276.48 
L 311.552 276.48 
L 310.418286 276.48 
L 309.284571 276.48 
L 308.150857 276.48 
L 307.017143 276.48 
L 305.883429 276.48 
L 304.749714 228.854574 
L 303.616 68.537999 
L 302.482286 55.569573 
L 301.348571 53.780825 
L 300.214857 53.780825 
L 299.081143 55.34598 
L 297.947429 54.228012 
L 296.813714 62.94816 
L 295.68 68.537999 
L 294.546286 74.127838 
L 293.412571 276.48 
L 292.278857 276.48 
L 291.145143 276.48 
L 290.011429 276.48 
L 288.877714 276.48 
L 287.744 276.48 
L 286.610286 276.48 
L 285.476571 276.48 
L 284.342857 276.48 
L 283.209143 126.448728 
L 282.075429 53.333638 
L 280.941714 53.110044 
L 279.808 52.662857 
L 278.674286 52.662857 
L 277.540571 52.662857 
L 276.406857 52.662857 
L 275.273143 52.662857 
L 274.139429 52.662857 
L 273.005714 52.662857 
L 271.872 52.662857 
L 270.738286 52.662857 
L 269.604571 52.662857 
L 268.470857 53.110044 
L 267.337143 55.793167 
L 266.203429 169.825877 
L 265.069714 276.48 
L 263.936 276.48 
L 262.802286 276.48 
L 261.668571 276.48 
L 260.534857 276.48 
L 259.401143 276.48 
L 258.267429 276.48 
L 257.133714 276.48 
L 256 276.48 
L 254.866286 276.48 
L 253.732571 276.48 
L 252.598857 276.48 
L 251.465143 276.48 
L 250.331429 276.48 
L 249.197714 276.48 
L 248.064 276.48 
L 246.930286 276.48 
L 245.796571 276.48 
L 244.662857 276.48 
L 243.529143 276.48 
L 242.395429 276.48 
L 241.261714 276.48 
L 240.128 276.48 
L 238.994286 276.48 
L 237.860571 276.48 
L 236.726857 276.48 
L 235.593143 276.48 
L 234.459429 276.48 
L 233.325714 276.48 
L 232.192 276.48 
L 231.058286 276.48 
L 229.924571 276.48 
L 228.790857 276.48 
L 227.657143 276.48 
L 226.523429 276.48 
L 225.389714 276.48 
L 224.256 276.48 
L 223.122286 276.48 
L 221.988571 276.48 
L 220.854857 276.48 
L 219.721143 276.48 
L 218.587429 276.48 
L 217.453714 276.48 
L 216.32 276.48 
L 215.186286 276.48 
L 214.052571 276.48 
L 212.918857 276.48 
L 211.785143 276.48 
L 210.651429 276.48 
L 209.517714 276.48 
L 208.384 276.48 
L 207.250286 276.48 
L 206.116571 276.48 
L 204.982857 276.48 
L 203.849143 276.48 
L 202.715429 276.48 
L 201.581714 276.48 
L 200.448 276.48 
L 199.314286 276.48 
L 198.180571 276.48 
L 197.046857 270.219381 
L 195.913143 102.524219 
L 194.779429 55.122386 
L 193.645714 52.662857 
L 192.512 52.662857 
L 191.378286 52.662857 
L 190.244571 52.662857 
L 189.110857 52.662857 
L 187.977143 52.662857 
L 186.843429 52.662857 
L 185.709714 52.662857 
L 184.576 52.662857 
L 183.442286 52.662857 
L 182.308571 52.662857 
L 181.174857 52.662857 
L 180.041143 52.662857 
L 178.907429 52.662857 
L 177.773714 52.662857 
L 176.64 52.662857 
L 175.506286 53.110044 
L 174.372571 53.110044 
L 173.238857 276.48 
L 172.105143 276.48 
L 170.971429 276.48 
L 169.837714 276.48 
L 168.704 93.80407 
L 167.570286 58.923477 
L 166.436571 56.687541 
L 165.302857 52.886451 
L 164.169143 52.662857 
L 163.035429 52.662857 
L 161.901714 52.662857 
L 160.768 58.923477 
L 159.634286 276.48 
L 158.500571 276.48 
L 157.366857 276.48 
L 156.233143 276.48 
L 155.099429 276.48 
L 153.965714 276.48 
L 152.832 276.48 
L 151.698286 276.48 
L 150.564571 276.48 
L 149.430857 276.48 
L 148.297143 276.48 
L 147.163429 276.48 
L 146.029714 276.48 
L 144.896 276.48 
L 143.762286 276.48 
L 142.628571 276.48 
L 141.494857 276.48 
L 140.361143 276.48 
L 139.227429 276.48 
L 138.093714 276.48 
L 136.96 276.48 
L 135.826286 276.48 
L 134.692571 276.48 
L 133.558857 276.48 
L 132.425143 276.48 
L 131.291429 276.48 
L 130.157714 276.48 
L 129.024 276.48 
L 127.890286 276.48 
L 126.756571 276.48 
L 125.622857 161.776509 
L 124.489143 78.823302 
L 123.355429 55.569573 
L 122.221714 53.333638 
L 121.088 52.886451 
L 119.954286 52.662857 
L 118.820571 52.662857 
L 117.686857 52.662857 
L 116.553143 52.662857 
L 115.419429 52.662857 
L 114.285714 52.662857 
L 113.152 52.886451 
L 112.018286 53.110044 
L 110.884571 275.362032 
L 109.750857 276.48 
L 108.617143 241.375813 
L 107.483429 62.94816 
L 106.349714 58.252696 
L 105.216 52.886451 
L 104.082286 52.886451 
L 102.948571 52.886451 
L 101.814857 55.34598 
L 100.681143 276.48 
L 99.547429 276.48 
L 98.413714 276.48 
L 97.28 276.48 
L 96.146286 276.48 
L 95.012571 276.48 
L 93.878857 276.48 
L 92.745143 276.48 
L 91.611429 276.48 
L 90.477714 276.48 
L 89.344 276.48 
L 88.210286 276.48 
L 87.076571 276.48 
L 85.942857 276.48 
L 84.809143 276.48 
L 83.675429 276.48 
L 82.541714 276.48 
L 81.408 276.48 
L 80.274286 276.48 
L 79.140571 276.48 
L 78.006857 276.48 
L 76.873143 276.48 
L 75.739429 276.48 
L 74.605714 276.48 
L 73.472 276.48 
L 72.338286 276.48 
L 71.204571 276.48 
L 70.070857 276.48 
L 68.937143 276.48 
L 67.803429 276.48 
L 66.669714 276.48 
L 65.536 276.48 
L 64.402286 276.48 
L 63.268571 276.48 
L 62.134857 276.48 
L 61.001143 276.48 
L 59.867429 276.48 
L 58.733714 276.48 
L 57.6 276.48 
z
" style="fill:#f06040;"/>
   </g>
   <g id="PolyCollection_2">
    <path clip-path="url(#pf77b206253)" d="M 57.6 276.48 
L 57.6 276.48 
L 58.733714 276.48 
L 59.867429 276.48 
L 61.001143 276.48 
L 62.134857 276.48 
L 63.268571 276.48 
L 64.402286 276.48 
L 65.536 276.48 
L 66.669714 276.48 
L 67.803429 276.48 
L 68.937143 276.48 
L 70.070857 276.48 
L 71.204571 276.48 
L 72.338286 276.48 
L 73.472 276.48 
L 74.605714 276.48 
L 75.739429 276.48 
L 76.873143 276.48 
L 78.006857 276.48 
L 79.140571 276.48 
L 80.274286 276.48 
L 81.408 276.48 
L 82.541714 276.48 
L 83.675429 276.48 
L 84.809143 276.48 
L 85.942857 276.48 
L 87.076571 276.48 
L 88.210286 276.48 
L 89.344 276.48 
L 90.477714 276.48 
L 91.611429 276.48 
L 92.745143 276.48 
L 93.878857 276.48 
L 95.012571 276.48 
L 96.146286 276.48 
L 97.28 276.48 
L 98.413714 276.48 
L 99.547429 276.48 
L 100.681143 276.48 
L 101.814857 276.48 
L 102.948571 276.48 
L 104.082286 276.48 
L 105.216 276.48 
L 106.349714 276.48 
L 107.483429 276.48 
L 108.617143 276.48 
L 109.750857 276.48 
L 110.884571 276.48 
L 112.018286 276.48 
L 113.152 276.48 
L 114.285714 276.48 
L 115.419429 276.48 
L 116.553143 276.48 
L 117.686857 276.48 
L 118.820571 276.48 
L 119.954286 276.48 
L 121.088 276.48 
L 122.221714 276.48 
L 123.355429 276.48 
L 124.489143 276.48 
L 125.622857 276.48 
L 126.756571 276.48 
L 127.890286 276.48 
L 129.024 276.48 
L 130.157714 276.48 
L 131.291429 276.48 
L 132.425143 276.48 
L 133.558857 276.48 
L 134.692571 276.48 
L 135.826286 276.48 
L 136.96 276.48 
L 138.093714 276.48 
L 139.227429 276.48 
L 140.361143 276.48 
L 141.494857 276.48 
L 142.628571 276.48 
L 143.762286 276.48 
L 144.896 276.48 
L 146.029714 276.48 
L 147.163429 276.48 
L 148.297143 276.48 
L 149.430857 276.48 
L 150.564571 276.48 
L 151.698286 276.48 
L 152.832 276.48 
L 153.965714 276.48 
L 155.099429 276.48 
L 156.233143 276.48 
L 157.366857 276.48 
L 158.500571 276.48 
L 159.634286 276.48 
L 160.768 276.48 
L 161.901714 276.48 
L 163.035429 276.48 
L 164.169143 276.48 
L 165.302857 276.48 
L 166.436571 276.48 
L 167.570286 276.48 
L 168.704 276.48 
L 169.837714 276.48 
L 170.971429 276.48 
L 172.105143 276.48 
L 173.238857 276.48 
L 174.372571 276.48 
L 175.506286 276.48 
L 176.64 276.48 
L 177.773714 276.48 
L 178.907429 276.48 
L 180.041143 276.48 
L 181.174857 276.48 
L 182.308571 276.48 
L 183.442286 276.48 
L 184.576 276.48 
L 185.709714 276.48 
L 186.843429 276.48 
L 187.977143 276.48 
L 189.110857 276.48 
L 190.244571 276.48 
L 191.378286 276.48 
L 192.512 276.48 
L 193.645714 276.48 
L 194.779429 276.48 
L 195.913143 276.48 
L 197.046857 276.48 
L 198.180571 276.48 
L 199.314286 276.48 
L 200.448 276.48 
L 201.581714 276.48 
L 202.715429 276.48 
L 203.849143 276.48 
L 204.982857 276.48 
L 206.116571 276.48 
L 207.250286 276.48 
L 208.384 276.48 
L 209.517714 276.48 
L 210.651429 276.48 
L 211.785143 276.48 
L 212.918857 276.48 
L 214.052571 276.48 
L 215.186286 276.48 
L 216.32 276.48 
L 217.453714 276.48 
L 218.587429 276.48 
L 219.721143 276.48 
L 220.854857 276.48 
L 221.988571 276.48 
L 223.122286 276.48 
L 224.256 276.48 
L 225.389714 276.48 
L 226.523429 276.48 
L 227.657143 276.48 
L 228.790857 276.48 
L 229.924571 276.48 
L 231.058286 276.48 
L 232.192 276.48 
L 233.325714 276.48 
L 234.459429 276.48 
L 235.593143 276.48 
L 236.726857 276.48 
L 237.860571 276.48 
L 238.994286 276.48 
L 240.128 276.48 
L 241.261714 276.48 
L 242.395429 276.48 
L 243.529143 276.48 
L 244.662857 276.48 
L 245.796571 276.48 
L 246.930286 276.48 
L 248.064 276.48 
L 249.197714 276.48 
L 250.331429 276.48 
L 251.465143 276.48 
L 252.598857 276.48 
L 253.732571 276.48 
L 254.866286 276.48 
L 256 276.48 
L 257.133714 276.48 
L 258.267429 276.48 
L 259.401143 276.48 
L 260.534857 276.48 
L 261.668571 276.48 
L 262.802286 276.48 
L 263.936 276.48 
L 265.069714 276.48 
L 266.203429 276.48 
L 267.337143 276.48 
L 268.470857 276.48 
L 269.604571 276.48 
L 270.738286 276.48 
L 271.872 276.48 
L 273.005714 276.48 
L 274.139429 276.48 
L 275.273143 276.48 
L 276.406857 276.48 
L 277.540571 276.48 
L 278.674286 276.48 
L 279.808 276.48 
L 280.941714 276.48 
L 282.075429 276.48 
L 283.209143 276.48 
L 284.342857 276.48 
L 285.476571 276.48 
L 286.610286 276.48 
L 287.744 276.48 
L 288.877714 276.48 
L 290.011429 276.48 
L 291.145143 276.48 
L 292.278857 276.48 
L 293.412571 276.48 
L 294.546286 276.48 
L 295.68 276.48 
L 296.813714 276.48 
L 297.947429 276.48 
L 299.081143 276.48 
L 300.214857 276.48 
L 301.348571 276.48 
L 302.482286 276.48 
L 303.616 276.48 
L 304.749714 276.48 
L 305.883429 276.48 
L 307.017143 276.48 
L 308.150857 276.48 
L 309.284571 276.48 
L 310.418286 276.48 
L 311.552 276.48 
L 312.685714 276.48 
L 313.819429 276.48 
L 314.953143 276.48 
L 316.086857 276.48 
L 317.220571 276.48 
L 318.354286 276.48 
L 319.488 276.48 
L 320.621714 276.48 
L 321.755429 276.48 
L 322.889143 276.48 
L 324.022857 276.48 
L 325.156571 276.48 
L 326.290286 276.48 
L 327.424 276.48 
L 328.557714 276.48 
L 329.691429 276.48 
L 330.825143 276.48 
L 331.958857 276.48 
L 333.092571 276.48 
L 334.226286 276.48 
L 335.36 276.48 
L 336.493714 276.48 
L 337.627429 276.48 
L 338.761143 276.48 
L 339.894857 276.48 
L 341.028571 276.48 
L 342.162286 276.48 
L 343.296 276.48 
L 344.429714 276.48 
L 345.563429 276.48 
L 346.697143 276.48 
L 347.830857 276.48 
L 348.964571 276.48 
L 350.098286 276.48 
L 351.232 276.48 
L 352.365714 276.48 
L 353.499429 276.48 
L 354.633143 276.48 
L 355.766857 276.48 
L 356.900571 276.48 
L 358.034286 276.48 
L 359.168 276.48 
L 360.301714 276.48 
L 361.435429 276.48 
L 362.569143 276.48 
L 363.702857 276.48 
L 364.836571 276.48 
L 365.970286 276.48 
L 367.104 276.48 
L 368.237714 276.48 
L 369.371429 276.48 
L 370.505143 276.48 
L 371.638857 276.48 
L 372.772571 276.48 
L 373.906286 276.48 
L 375.04 276.48 
L 376.173714 276.48 
L 377.307429 276.48 
L 378.441143 276.48 
L 379.574857 276.48 
L 380.708571 276.48 
L 381.842286 276.48 
L 382.976 276.48 
L 384.109714 276.48 
L 385.243429 276.48 
L 386.377143 276.48 
L 387.510857 276.48 
L 388.644571 276.48 
L 389.778286 276.48 
L 390.912 276.48 
L 392.045714 276.48 
L 393.179429 276.48 
L 394.313143 276.48 
L 395.446857 276.48 
L 396.580571 276.48 
L 397.714286 276.48 
L 398.848 276.48 
L 399.981714 276.48 
L 401.115429 276.48 
L 402.249143 276.48 
L 403.382857 276.48 
L 404.516571 276.48 
L 405.650286 276.48 
L 406.784 276.48 
L 407.917714 276.48 
L 409.051429 276.48 
L 410.185143 276.48 
L 411.318857 276.48 
L 412.452571 276.48 
L 413.586286 276.48 
L 413.586286 276.48 
L 413.586286 276.48 
L 412.452571 276.48 
L 411.318857 276.48 
L 410.185143 276.48 
L 409.051429 276.48 
L 407.917714 276.48 
L 406.784 276.48 
L 405.650286 276.48 
L 404.516571 276.48 
L 403.382857 276.48 
L 402.249143 276.48 
L 401.115429 276.48 
L 399.981714 276.48 
L 398.848 276.48 
L 397.714286 276.48 
L 396.580571 276.48 
L 395.446857 276.48 
L 394.313143 276.48 
L 393.179429 276.48 
L 392.045714 276.48 
L 390.912 276.48 
L 389.778286 276.48 
L 388.644571 276.48 
L 387.510857 276.48 
L 386.377143 276.48 
L 385.243429 276.48 
L 384.109714 276.48 
L 382.976 276.48 
L 381.842286 276.48 
L 380.708571 276.48 
L 379.574857 276.48 
L 378.441143 276.48 
L 377.307429 276.48 
L 376.173714 276.48 
L 375.04 276.48 
L 373.906286 276.48 
L 372.772571 276.48 
L 371.638857 276.48 
L 370.505143 276.48 
L 369.371429 276.48 
L 368.237714 276.48 
L 367.104 276.48 
L 365.970286 276.48 
L 364.836571 276.48 
L 363.702857 276.48 
L 362.569143 276.48 
L 361.435429 276.48 
L 360.301714 276.48 
L 359.168 276.48 
L 358.034286 276.48 
L 356.900571 276.48 
L 355.766857 276.48 
L 354.633143 276.48 
L 353.499429 276.48 
L 352.365714 276.48 
L 351.232 276.48 
L 350.098286 276.48 
L 348.964571 276.48 
L 347.830857 276.48 
L 346.697143 276.48 
L 345.563429 276.48 
L 344.429714 276.48 
L 343.296 276.48 
L 342.162286 276.48 
L 341.028571 276.48 
L 339.894857 276.48 
L 338.761143 276.48 
L 337.627429 276.48 
L 336.493714 276.48 
L 335.36 276.48 
L 334.226286 276.48 
L 333.092571 276.48 
L 331.958857 276.48 
L 330.825143 276.48 
L 329.691429 276.48 
L 328.557714 276.48 
L 327.424 276.48 
L 326.290286 276.48 
L 325.156571 276.48 
L 324.022857 276.48 
L 322.889143 276.48 
L 321.755429 276.48 
L 320.621714 276.48 
L 319.488 276.48 
L 318.354286 276.48 
L 317.220571 276.48 
L 316.086857 276.48 
L 314.953143 276.48 
L 313.819429 276.48 
L 312.685714 276.48 
L 311.552 276.48 
L 310.418286 276.48 
L 309.284571 276.48 
L 308.150857 276.48 
L 307.017143 276.48 
L 305.883429 276.48 
L 304.749714 276.48 
L 303.616 276.48 
L 302.482286 276.48 
L 301.348571 276.48 
L 300.214857 276.48 
L 299.081143 276.48 
L 297.947429 276.48 
L 296.813714 276.48 
L 295.68 276.48 
L 294.546286 276.48 
L 293.412571 276.48 
L 292.278857 276.48 
L 291.145143 276.48 
L 290.011429 276.48 
L 288.877714 276.48 
L 287.744 276.48 
L 286.610286 276.48 
L 285.476571 276.48 
L 284.342857 276.48 
L 283.209143 276.48 
L 282.075429 276.48 
L 280.941714 276.48 
L 279.808 276.48 
L 278.674286 276.48 
L 277.540571 276.48 
L 276.406857 276.48 
L 275.273143 276.48 
L 274.139429 276.48 
L 273.005714 276.48 
L 271.872 276.48 
L 270.738286 276.48 
L 269.604571 276.48 
L 268.470857 276.48 
L 267.337143 276.48 
L 266.203429 276.48 
L 265.069714 276.48 
L 263.936 270.666568 
L 262.802286 270.666568 
L 261.668571 276.48 
L 260.534857 276.48 
L 259.401143 276.48 
L 258.267429 276.48 
L 257.133714 276.48 
L 256 276.48 
L 254.866286 276.48 
L 253.732571 276.48 
L 252.598857 276.48 
L 251.465143 276.48 
L 250.331429 276.48 
L 249.197714 276.48 
L 248.064 276.48 
L 246.930286 276.48 
L 245.796571 276.48 
L 244.662857 276.48 
L 243.529143 276.48 
L 242.395429 276.48 
L 241.261714 276.48 
L 240.128 264.405948 
L 238.994286 264.405948 
L 237.860571 270.219381 
L 236.726857 276.48 
L 235.593143 276.48 
L 234.459429 276.48 
L 233.325714 276.48 
L 232.192 276.48 
L 231.058286 187.936954 
L 229.924571 187.936954 
L 228.790857 276.48 
L 227.657143 276.48 
L 226.523429 276.48 
L 225.389714 276.48 
L 224.256 276.48 
L 223.122286 276.48 
L 221.988571 54.228012 
L 220.854857 53.333638 
L 219.721143 53.333638 
L 218.587429 276.48 
L 217.453714 276.48 
L 216.32 276.48 
L 215.186286 276.48 
L 214.052571 276.48 
L 212.918857 52.662857 
L 211.785143 52.662857 
L 210.651429 54.228012 
L 209.517714 276.48 
L 208.384 276.48 
L 207.250286 276.48 
L 206.116571 276.48 
L 204.982857 276.48 
L 203.849143 276.48 
L 202.715429 276.48 
L 201.581714 276.48 
L 200.448 187.936954 
L 199.314286 187.936954 
L 198.180571 276.48 
L 197.046857 276.48 
L 195.913143 276.48 
L 194.779429 276.48 
L 193.645714 276.48 
L 192.512 276.48 
L 191.378286 276.48 
L 190.244571 276.48 
L 189.110857 276.48 
L 187.977143 276.48 
L 186.843429 276.48 
L 185.709714 276.48 
L 184.576 276.48 
L 183.442286 276.48 
L 182.308571 276.48 
L 181.174857 276.48 
L 180.041143 276.48 
L 178.907429 276.48 
L 177.773714 276.48 
L 176.64 276.48 
L 175.506286 276.48 
L 174.372571 276.48 
L 173.238857 276.48 
L 172.105143 276.48 
L 170.971429 276.48 
L 169.837714 276.48 
L 168.704 276.48 
L 167.570286 276.48 
L 166.436571 276.48 
L 165.302857 276.48 
L 164.169143 276.48 
L 163.035429 276.48 
L 161.901714 276.48 
L 160.768 276.48 
L 159.634286 121.52967 
L 158.500571 121.52967 
L 157.366857 276.48 
L 156.233143 276.48 
L 155.099429 276.48 
L 153.965714 276.48 
L 152.832 203.588503 
L 151.698286 52.662857 
L 150.564571 52.662857 
L 149.430857 52.662857 
L 148.297143 52.662857 
L 147.163429 53.333638 
L 146.029714 80.835644 
L 144.896 276.48 
L 143.762286 276.48 
L 142.628571 169.155096 
L 141.494857 89.108606 
L 140.361143 53.557231 
L 139.227429 53.780825 
L 138.093714 55.34598 
L 136.96 55.34598 
L 135.826286 55.34598 
L 134.692571 276.48 
L 133.558857 276.48 
L 132.425143 276.48 
L 131.291429 276.48 
L 130.157714 276.48 
L 129.024 276.48 
L 127.890286 276.48 
L 126.756571 276.48 
L 125.622857 276.48 
L 124.489143 276.48 
L 123.355429 276.48 
L 122.221714 276.48 
L 121.088 276.48 
L 119.954286 276.48 
L 118.820571 276.48 
L 117.686857 276.48 
L 116.553143 276.48 
L 115.419429 276.48 
L 114.285714 276.48 
L 113.152 276.48 
L 112.018286 276.48 
L 110.884571 276.48 
L 109.750857 276.48 
L 108.617143 276.48 
L 107.483429 276.48 
L 106.349714 276.48 
L 105.216 276.48 
L 104.082286 276.48 
L 102.948571 276.48 
L 101.814857 276.48 
L 100.681143 87.319857 
L 99.547429 52.886451 
L 98.413714 52.662857 
L 97.28 52.662857 
L 96.146286 52.886451 
L 95.012571 52.886451 
L 93.878857 52.662857 
L 92.745143 52.662857 
L 91.611429 226.171451 
L 90.477714 276.48 
L 89.344 276.48 
L 88.210286 276.48 
L 87.076571 276.48 
L 85.942857 109.902806 
L 84.809143 52.662857 
L 83.675429 52.662857 
L 82.541714 52.662857 
L 81.408 52.662857 
L 80.274286 52.662857 
L 79.140571 91.568135 
L 78.006857 104.089373 
L 76.873143 276.48 
L 75.739429 276.48 
L 74.605714 232.655664 
L 73.472 116.834206 
L 72.338286 60.265038 
L 71.204571 60.712225 
L 70.070857 54.451606 
L 68.937143 98.723128 
L 67.803429 98.723128 
L 66.669714 52.886451 
L 65.536 53.557231 
L 64.402286 136.734032 
L 63.268571 276.48 
L 62.134857 276.48 
L 61.001143 276.48 
L 59.867429 276.48 
L 58.733714 276.48 
L 57.6 276.48 
z
" style="fill:#40c0e0;"/>
   </g>
   <g id="matplotlib.axis_1">
    <g id="xtick_1">
     <g id="line2d_1">
      <defs>
       <path d="M 0 0 
L 0 3.5 
" id="m1a474fa055" style="stroke:#000000;stroke-width:0.8;"/>
      </defs>
      <g>
       <use style="stroke:#000000;stroke-width:0.8;" x="57.6" xlink:href="#m1a474fa055" y="276.48"/>
      </g>
     </g>
     <g id="text_1">
      <!-- 0 -->
      <defs>
       <path d="M 31.78125 66.40625 
Q 24.171875 66.40625 20.328125 58.90625 
Q 16.5 51.421875 16.5 36.375 
Q 16.5 21.390625 20.328125 13.890625 
Q 24.171875 6.390625 31.78125 6.390625 
Q 39.453125 6.390625 43.28125 13.890625 
Q 47.125 21.390625 47.125 36.375 
Q 47.125 51.421875 43.28125 58.90625 
Q 39.453125 66.40625 31.78125 66.40625 
z
M 31.78125 74.21875 
Q 44.046875 74.21875 50.515625 64.515625 
Q 56.984375 54.828125 56.984375 36.375 
Q 56.984375 17.96875 50.515625 8.265625 
Q 44.046875 -1.421875 31.78125 -1.421875 
Q 19.53125 -1.421875 13.0625 8.265625 
Q 6.59375 17.96875 6.59375 36.375 
Q 6.59375 54.828125 13.0625 64.515625 
Q 19.53125 74.21875 31.78125 74.21875 
z
" id="DejaVuSans-30"/>
      </defs>
      <g transform="translate(54.41875 291.078437)scale(0.1 -0.1)">
       <use xlink:href="#DejaVuSans-30"/>
      </g>
     </g>
    </g>
    <g id="xtick_2">
     <g id="line2d_2">
      <g>
       <use style="stroke:#000000;stroke-width:0.8;" x="114.285714" xlink:href="#m1a474fa055" y="276.48"/>
      </g>
     </g>
     <g id="text_2">
      <!-- 50 -->
      <defs>
       <path d="M 10.796875 72.90625 
L 49.515625 72.90625 
L 49.515625 64.59375 
L 19.828125 64.59375 
L 19.828125 46.734375 
Q 21.96875 47.46875 24.109375 47.828125 
Q 26.265625 48.1875 28.421875 48.1875 
Q 40.625 48.1875 47.75 41.5 
Q 54.890625 34.8125 54.890625 23.390625 
Q 54.890625 11.625 47.5625 5.09375 
Q 40.234375 -1.421875 26.90625 -1.421875 
Q 22.3125 -1.421875 17.546875 -0.640625 
Q 12.796875 0.140625 7.71875 1.703125 
L 7.71875 11.625 
Q 12.109375 9.234375 16.796875 8.0625 
Q 21.484375 6.890625 26.703125 6.890625 
Q 35.15625 6.890625 40.078125 11.328125 
Q 45.015625 15.765625 45.015625 23.390625 
Q 45.015625 31 40.078125 35.4375 
Q 35.15625 39.890625 26.703125 39.890625 
Q 22.75 39.890625 18.8125 39.015625 
Q 14.890625 38.140625 10.796875 36.28125 
z
" id="DejaVuSans-35"/>
      </defs>
      <g transform="translate(107.923214 291.078437)scale(0.1 -0.1)">
       <use xlink:href="#DejaVuSans-35"/>
       <use x="63.623047" xlink:href="#DejaVuSans-30"/>
      </g>
     </g>
    </g>
    <g id="xtick_3">
     <g id="line2d_3">
      <g>
       <use style="stroke:#000000;stroke-width:0.8;" x="170.971429" xlink:href="#m1a474fa055" y="276.48"/>
      </g>
     </g>
     <g id="text_3">
      <!-- 100 -->
      <defs>
       <path d="M 12.40625 8.296875 
L 28.515625 8.296875 
L 28.515625 63.921875 
L 10.984375 60.40625 
L 10.984375 69.390625 
L 28.421875 72.90625 
L 38.28125 72.90625 
L 38.28125 8.296875 
L 54.390625 8.296875 
L 54.390625 0 
L 12.40625 0 
z
" id="DejaVuSans-31"/>
      </defs>
      <g transform="translate(161.427679 291.078437)scale(0.1 -0.1)">
       <use xlink:href="#DejaVuSans-31"/>
       <use x="63.623047" xlink:href="#DejaVuSans-30"/>
       <use x="127.246094" xlink:href="#DejaVuSans-30"/>
      </g>
     </g>
    </g>
    <g id="xtick_4">
     <g id="line2d_4">
      <g>
       <use style="stroke:#000000;stroke-width:0.8;" x="227.657143" xlink:href="#m1a474fa055" y="276.48"/>
      </g>
     </g>
     <g id="text_4">
      <!-- 150 -->
      <g transform="translate(218.113393 291.078437)scale(0.1 -0.1)">
       <use xlink:href="#DejaVuSans-31"/>
       <use x="63.623047" xlink:href="#DejaVuSans-35"/>
       <use x="127.246094" xlink:href="#DejaVuSans-30"/>
      </g>
     </g>
    </g>
    <g id="xtick_5">
     <g id="line2d_5">
      <g>
       <use style="stroke:#000000;stroke-width:0.8;" x="284.342857" xlink:href="#m1a474fa055" y="276.48"/>
      </g>
     </g>
     <g id="text_5">
      <!-- 200 -->
      <defs>
       <path d="M 19.1875 8.296875 
L 53.609375 8.296875 
L 53.609375 0 
L 7.328125 0 
L 7.328125 8.296875 
Q 12.9375 14.109375 22.625 23.890625 
Q 32.328125 33.6875 34.8125 36.53125 
Q 39.546875 41.84375 41.421875 45.53125 
Q 43.3125 49.21875 43.3125 52.78125 
Q 43.3125 58.59375 39.234375 62.25 
Q 35.15625 65.921875 28.609375 65.921875 
Q 23.96875 65.921875 18.8125 64.3125 
Q 13.671875 62.703125 7.8125 59.421875 
L 7.8125 69.390625 
Q 13.765625 71.78125 18.9375 73 
Q 24.125 74.21875 28.421875 74.21875 
Q 39.75 74.21875 46.484375 68.546875 
Q 53.21875 62.890625 53.21875 53.421875 
Q 53.21875 48.921875 51.53125 44.890625 
Q 49.859375 40.875 45.40625 35.40625 
Q 44.1875 33.984375 37.640625 27.21875 
Q 31.109375 20.453125 19.1875 8.296875 
z
" id="DejaVuSans-32"/>
      </defs>
      <g transform="translate(274.799107 291.078437)scale(0.1 -0.1)">
       <use xlink:href="#DejaVuSans-32"/>
       <use x="63.623047" xlink:href="#DejaVuSans-30"/>
       <use x="127.246094" xlink:href="#DejaVuSans-30"/>
      </g>
     </g>
    </g>
    <g id="xtick_6">
     <g id="line2d_6">
      <g>
       <use style="stroke:#000000;stroke-width:0.8;" x="341.028571" xlink:href="#m1a474fa055" y="276.48"/>
      </g>
     </g>
     <g id="text_6">
      <!-- 250 -->
      <g transform="translate(331.484821 291.078437)scale(0.1 -0.1)">
       <use xlink:href="#DejaVuSans-32"/>
       <use x="63.623047" xlink:href="#DejaVuSans-35"/>
       <use x="127.246094" xlink:href="#DejaVuSans-30"/>
      </g>
     </g>
    </g>
    <g id="xtick_7">
     <g id="line2d_7">
      <g>
       <use style="stroke:#000000;stroke-width:0.8;" x="397.714286" xlink:href="#m1a474fa055" y="276.48"/>
      </g>
     </g>
     <g id="text_7">
      <!-- 300 -->
      <defs>
       <path d="M 40.578125 39.3125 
Q 47.65625 37.796875 51.625 33 
Q 55.609375 28.21875 55.609375 21.1875 
Q 55.609375 10.40625 48.1875 4.484375 
Q 40.765625 -1.421875 27.09375 -1.421875 
Q 22.515625 -1.421875 17.65625 -0.515625 
Q 12.796875 0.390625 7.625 2.203125 
L 7.625 11.71875 
Q 11.71875 9.328125 16.59375 8.109375 
Q 21.484375 6.890625 26.8125 6.890625 
Q 36.078125 6.890625 40.9375 10.546875 
Q 45.796875 14.203125 45.796875 21.1875 
Q 45.796875 27.640625 41.28125 31.265625 
Q 36.765625 34.90625 28.71875 34.90625 
L 20.21875 34.90625 
L 20.21875 43.015625 
L 29.109375 43.015625 
Q 36.375 43.015625 40.234375 45.921875 
Q 44.09375 48.828125 44.09375 54.296875 
Q 44.09375 59.90625 40.109375 62.90625 
Q 36.140625 65.921875 28.71875 65.921875 
Q 24.65625 65.921875 20.015625 65.03125 
Q 15.375 64.15625 9.8125 62.3125 
L 9.8125 71.09375 
Q 15.4375 72.65625 20.34375 73.4375 
Q 25.25 74.21875 29.59375 74.21875 
Q 40.828125 74.21875 47.359375 69.109375 
Q 53.90625 64.015625 53.90625 55.328125 
Q 53.90625 49.265625 50.4375 45.09375 
Q 46.96875 40.921875 40.578125 39.3125 
z
" id="DejaVuSans-33"/>
      </defs>
      <g transform="translate(388.170536 291.078437)scale(0.1 -0.1)">
       <use xlink:href="#DejaVuSans-33"/>
       <use x="63.623047" xlink:href="#DejaVuSans-30"/>
       <use x="127.246094" xlink:href="#DejaVuSans-30"/>
      </g>
     </g>
    </g>
    <g id="text_8">
     <!-- Residue Index -->
     <defs>
      <path d="M 44.390625 34.1875 
Q 47.5625 33.109375 50.5625 29.59375 
Q 53.5625 26.078125 56.59375 19.921875 
L 66.609375 0 
L 56 0 
L 46.6875 18.703125 
Q 43.0625 26.03125 39.671875 28.421875 
Q 36.28125 30.8125 30.421875 30.8125 
L 19.671875 30.8125 
L 19.671875 0 
L 9.8125 0 
L 9.8125 72.90625 
L 32.078125 72.90625 
Q 44.578125 72.90625 50.734375 67.671875 
Q 56.890625 62.453125 56.890625 51.90625 
Q 56.890625 45.015625 53.6875 40.46875 
Q 50.484375 35.9375 44.390625 34.1875 
z
M 19.671875 64.796875 
L 19.671875 38.921875 
L 32.078125 38.921875 
Q 39.203125 38.921875 42.84375 42.21875 
Q 46.484375 45.515625 46.484375 51.90625 
Q 46.484375 58.296875 42.84375 61.546875 
Q 39.203125 64.796875 32.078125 64.796875 
z
" id="DejaVuSans-52"/>
      <path d="M 56.203125 29.59375 
L 56.203125 25.203125 
L 14.890625 25.203125 
Q 15.484375 15.921875 20.484375 11.0625 
Q 25.484375 6.203125 34.421875 6.203125 
Q 39.59375 6.203125 44.453125 7.46875 
Q 49.3125 8.734375 54.109375 11.28125 
L 54.109375 2.78125 
Q 49.265625 0.734375 44.1875 -0.34375 
Q 39.109375 -1.421875 33.890625 -1.421875 
Q 20.796875 -1.421875 13.15625 6.1875 
Q 5.515625 13.8125 5.515625 26.8125 
Q 5.515625 40.234375 12.765625 48.109375 
Q 20.015625 56 32.328125 56 
Q 43.359375 56 49.78125 48.890625 
Q 56.203125 41.796875 56.203125 29.59375 
z
M 47.21875 32.234375 
Q 47.125 39.59375 43.09375 43.984375 
Q 39.0625 48.390625 32.421875 48.390625 
Q 24.90625 48.390625 20.390625 44.140625 
Q 15.875 39.890625 15.1875 32.171875 
z
" id="DejaVuSans-65"/>
      <path d="M 44.28125 53.078125 
L 44.28125 44.578125 
Q 40.484375 46.53125 36.375 47.5 
Q 32.28125 48.484375 27.875 48.484375 
Q 21.1875 48.484375 17.84375 46.4375 
Q 14.5 44.390625 14.5 40.28125 
Q 14.5 37.15625 16.890625 35.375 
Q 19.28125 33.59375 26.515625 31.984375 
L 29.59375 31.296875 
Q 39.15625 29.25 43.1875 25.515625 
Q 47.21875 21.78125 47.21875 15.09375 
Q 47.21875 7.46875 41.1875 3.015625 
Q 35.15625 -1.421875 24.609375 -1.421875 
Q 20.21875 -1.421875 15.453125 -0.5625 
Q 10.6875 0.296875 5.421875 2 
L 5.421875 11.28125 
Q 10.40625 8.6875 15.234375 7.390625 
Q 20.0625 6.109375 24.8125 6.109375 
Q 31.15625 6.109375 34.5625 8.28125 
Q 37.984375 10.453125 37.984375 14.40625 
Q 37.984375 18.0625 35.515625 20.015625 
Q 33.0625 21.96875 24.703125 23.78125 
L 21.578125 24.515625 
Q 13.234375 26.265625 9.515625 29.90625 
Q 5.8125 33.546875 5.8125 39.890625 
Q 5.8125 47.609375 11.28125 51.796875 
Q 16.75 56 26.8125 56 
Q 31.78125 56 36.171875 55.265625 
Q 40.578125 54.546875 44.28125 53.078125 
z
" id="DejaVuSans-73"/>
      <path d="M 9.421875 54.6875 
L 18.40625 54.6875 
L 18.40625 0 
L 9.421875 0 
z
M 9.421875 75.984375 
L 18.40625 75.984375 
L 18.40625 64.59375 
L 9.421875 64.59375 
z
" id="DejaVuSans-69"/>
      <path d="M 45.40625 46.390625 
L 45.40625 75.984375 
L 54.390625 75.984375 
L 54.390625 0 
L 45.40625 0 
L 45.40625 8.203125 
Q 42.578125 3.328125 38.25 0.953125 
Q 33.9375 -1.421875 27.875 -1.421875 
Q 17.96875 -1.421875 11.734375 6.484375 
Q 5.515625 14.40625 5.515625 27.296875 
Q 5.515625 40.1875 11.734375 48.09375 
Q 17.96875 56 27.875 56 
Q 33.9375 56 38.25 53.625 
Q 42.578125 51.265625 45.40625 46.390625 
z
M 14.796875 27.296875 
Q 14.796875 17.390625 18.875 11.75 
Q 22.953125 6.109375 30.078125 6.109375 
Q 37.203125 6.109375 41.296875 11.75 
Q 45.40625 17.390625 45.40625 27.296875 
Q 45.40625 37.203125 41.296875 42.84375 
Q 37.203125 48.484375 30.078125 48.484375 
Q 22.953125 48.484375 18.875 42.84375 
Q 14.796875 37.203125 14.796875 27.296875 
z
" id="DejaVuSans-64"/>
      <path d="M 8.5 21.578125 
L 8.5 54.6875 
L 17.484375 54.6875 
L 17.484375 21.921875 
Q 17.484375 14.15625 20.5 10.265625 
Q 23.53125 6.390625 29.59375 6.390625 
Q 36.859375 6.390625 41.078125 11.03125 
Q 45.3125 15.671875 45.3125 23.6875 
L 45.3125 54.6875 
L 54.296875 54.6875 
L 54.296875 0 
L 45.3125 0 
L 45.3125 8.40625 
Q 42.046875 3.421875 37.71875 1 
Q 33.40625 -1.421875 27.6875 -1.421875 
Q 18.265625 -1.421875 13.375 4.4375 
Q 8.5 10.296875 8.5 21.578125 
z
M 31.109375 56 
z
" id="DejaVuSans-75"/>
      <path id="DejaVuSans-20"/>
      <path d="M 9.8125 72.90625 
L 19.671875 72.90625 
L 19.671875 0 
L 9.8125 0 
z
" id="DejaVuSans-49"/>
      <path d="M 54.890625 33.015625 
L 54.890625 0 
L 45.90625 0 
L 45.90625 32.71875 
Q 45.90625 40.484375 42.875 44.328125 
Q 39.84375 48.1875 33.796875 48.1875 
Q 26.515625 48.1875 22.3125 43.546875 
Q 18.109375 38.921875 18.109375 30.90625 
L 18.109375 0 
L 9.078125 0 
L 9.078125 54.6875 
L 18.109375 54.6875 
L 18.109375 46.1875 
Q 21.34375 51.125 25.703125 53.5625 
Q 30.078125 56 35.796875 56 
Q 45.21875 56 50.046875 50.171875 
Q 54.890625 44.34375 54.890625 33.015625 
z
" id="DejaVuSans-6e"/>
      <path d="M 54.890625 54.6875 
L 35.109375 28.078125 
L 55.90625 0 
L 45.3125 0 
L 29.390625 21.484375 
L 13.484375 0 
L 2.875 0 
L 24.125 28.609375 
L 4.6875 54.6875 
L 15.28125 54.6875 
L 29.78125 35.203125 
L 44.28125 54.6875 
z
" id="DejaVuSans-78"/>
     </defs>
     <g transform="translate(193.67625 306.27625)scale(0.12 -0.12)">
      <use xlink:href="#DejaVuSans-52"/>
      <use x="69.419922" xlink:href="#DejaVuSans-65"/>
      <use x="130.943359" xlink:href="#DejaVuSans-73"/>
      <use x="183.042969" xlink:href="#DejaVuSans-69"/>
      <use x="210.826172" xlink:href="#DejaVuSans-64"/>
      <use x="274.302734" xlink:href="#DejaVuSans-75"/>
      <use x="337.681641" xlink:href="#DejaVuSans-65"/>
      <use x="399.205078" xlink:href="#DejaVuSans-20"/>
      <use x="430.992188" xlink:href="#DejaVuSans-49"/>
      <use x="460.484375" xlink:href="#DejaVuSans-6e"/>
      <use x="523.863281" xlink:href="#DejaVuSans-64"/>
      <use x="587.339844" xlink:href="#DejaVuSans-65"/>
      <use x="648.847656" xlink:href="#DejaVuSans-78"/>
     </g>
    </g>
   </g>
   <g id="matplotlib.axis_2">
    <g id="ytick_1">
     <g id="line2d_8">
      <defs>
       <path d="M 0 0 
L -3.5 0 
" id="mc2f4cb3b25" style="stroke:#000000;stroke-width:0.8;"/>
      </defs>
      <g>
       <use style="stroke:#000000;stroke-width:0.8;" x="57.6" xlink:href="#mc2f4cb3b25" y="276.48"/>
      </g>
     </g>
     <g id="text_9">
      <!-- 0 -->
      <g transform="translate(44.2375 280.279219)scale(0.1 -0.1)">
       <use xlink:href="#DejaVuSans-30"/>
      </g>
     </g>
    </g>
    <g id="ytick_2">
     <g id="line2d_9">
      <g>
       <use style="stroke:#000000;stroke-width:0.8;" x="57.6" xlink:href="#mc2f4cb3b25" y="231.716571"/>
      </g>
     </g>
     <g id="text_10">
      <!-- 20 -->
      <g transform="translate(37.875 235.51579)scale(0.1 -0.1)">
       <use xlink:href="#DejaVuSans-32"/>
       <use x="63.623047" xlink:href="#DejaVuSans-30"/>
      </g>
     </g>
    </g>
    <g id="ytick_3">
     <g id="line2d_10">
      <g>
       <use style="stroke:#000000;stroke-width:0.8;" x="57.6" xlink:href="#mc2f4cb3b25" y="186.953143"/>
      </g>
     </g>
     <g id="text_11">
      <!-- 40 -->
      <defs>
       <path d="M 37.796875 64.3125 
L 12.890625 25.390625 
L 37.796875 25.390625 
z
M 35.203125 72.90625 
L 47.609375 72.90625 
L 47.609375 25.390625 
L 58.015625 25.390625 
L 58.015625 17.1875 
L 47.609375 17.1875 
L 47.609375 0 
L 37.796875 0 
L 37.796875 17.1875 
L 4.890625 17.1875 
L 4.890625 26.703125 
z
" id="DejaVuSans-34"/>
      </defs>
      <g transform="translate(37.875 190.752362)scale(0.1 -0.1)">
       <use xlink:href="#DejaVuSans-34"/>
       <use x="63.623047" xlink:href="#DejaVuSans-30"/>
      </g>
     </g>
    </g>
    <g id="ytick_4">
     <g id="line2d_11">
      <g>
       <use style="stroke:#000000;stroke-width:0.8;" x="57.6" xlink:href="#mc2f4cb3b25" y="142.189714"/>
      </g>
     </g>
     <g id="text_12">
      <!-- 60 -->
      <defs>
       <path d="M 33.015625 40.375 
Q 26.375 40.375 22.484375 35.828125 
Q 18.609375 31.296875 18.609375 23.390625 
Q 18.609375 15.53125 22.484375 10.953125 
Q 26.375 6.390625 33.015625 6.390625 
Q 39.65625 6.390625 43.53125 10.953125 
Q 47.40625 15.53125 47.40625 23.390625 
Q 47.40625 31.296875 43.53125 35.828125 
Q 39.65625 40.375 33.015625 40.375 
z
M 52.59375 71.296875 
L 52.59375 62.3125 
Q 48.875 64.0625 45.09375 64.984375 
Q 41.3125 65.921875 37.59375 65.921875 
Q 27.828125 65.921875 22.671875 59.328125 
Q 17.53125 52.734375 16.796875 39.40625 
Q 19.671875 43.65625 24.015625 45.921875 
Q 28.375 48.1875 33.59375 48.1875 
Q 44.578125 48.1875 50.953125 41.515625 
Q 57.328125 34.859375 57.328125 23.390625 
Q 57.328125 12.15625 50.6875 5.359375 
Q 44.046875 -1.421875 33.015625 -1.421875 
Q 20.359375 -1.421875 13.671875 8.265625 
Q 6.984375 17.96875 6.984375 36.375 
Q 6.984375 53.65625 15.1875 63.9375 
Q 23.390625 74.21875 37.203125 74.21875 
Q 40.921875 74.21875 44.703125 73.484375 
Q 48.484375 72.75 52.59375 71.296875 
z
" id="DejaVuSans-36"/>
      </defs>
      <g transform="translate(37.875 145.988933)scale(0.1 -0.1)">
       <use xlink:href="#DejaVuSans-36"/>
       <use x="63.623047" xlink:href="#DejaVuSans-30"/>
      </g>
     </g>
    </g>
    <g id="ytick_5">
     <g id="line2d_12">
      <g>
       <use style="stroke:#000000;stroke-width:0.8;" x="57.6" xlink:href="#mc2f4cb3b25" y="97.426286"/>
      </g>
     </g>
     <g id="text_13">
      <!-- 80 -->
      <defs>
       <path d="M 31.78125 34.625 
Q 24.75 34.625 20.71875 30.859375 
Q 16.703125 27.09375 16.703125 20.515625 
Q 16.703125 13.921875 20.71875 10.15625 
Q 24.75 6.390625 31.78125 6.390625 
Q 38.8125 6.390625 42.859375 10.171875 
Q 46.921875 13.96875 46.921875 20.515625 
Q 46.921875 27.09375 42.890625 30.859375 
Q 38.875 34.625 31.78125 34.625 
z
M 21.921875 38.8125 
Q 15.578125 40.375 12.03125 44.71875 
Q 8.5 49.078125 8.5 55.328125 
Q 8.5 64.0625 14.71875 69.140625 
Q 20.953125 74.21875 31.78125 74.21875 
Q 42.671875 74.21875 48.875 69.140625 
Q 55.078125 64.0625 55.078125 55.328125 
Q 55.078125 49.078125 51.53125 44.71875 
Q 48 40.375 41.703125 38.8125 
Q 48.828125 37.15625 52.796875 32.3125 
Q 56.78125 27.484375 56.78125 20.515625 
Q 56.78125 9.90625 50.3125 4.234375 
Q 43.84375 -1.421875 31.78125 -1.421875 
Q 19.734375 -1.421875 13.25 4.234375 
Q 6.78125 9.90625 6.78125 20.515625 
Q 6.78125 27.484375 10.78125 32.3125 
Q 14.796875 37.15625 21.921875 38.8125 
z
M 18.3125 54.390625 
Q 18.3125 48.734375 21.84375 45.5625 
Q 25.390625 42.390625 31.78125 42.390625 
Q 38.140625 42.390625 41.71875 45.5625 
Q 45.3125 48.734375 45.3125 54.390625 
Q 45.3125 60.0625 41.71875 63.234375 
Q 38.140625 66.40625 31.78125 66.40625 
Q 25.390625 66.40625 21.84375 63.234375 
Q 18.3125 60.0625 18.3125 54.390625 
z
" id="DejaVuSans-38"/>
      </defs>
      <g transform="translate(37.875 101.225504)scale(0.1 -0.1)">
       <use xlink:href="#DejaVuSans-38"/>
       <use x="63.623047" xlink:href="#DejaVuSans-30"/>
      </g>
     </g>
    </g>
    <g id="ytick_6">
     <g id="line2d_13">
      <g>
       <use style="stroke:#000000;stroke-width:0.8;" x="57.6" xlink:href="#mc2f4cb3b25" y="52.662857"/>
      </g>
     </g>
     <g id="text_14">
      <!-- 100 -->
      <g transform="translate(31.5125 56.462076)scale(0.1 -0.1)">
       <use xlink:href="#DejaVuSans-31"/>
       <use x="63.623047" xlink:href="#DejaVuSans-30"/>
       <use x="127.246094" xlink:href="#DejaVuSans-30"/>
      </g>
     </g>
    </g>
    <g id="text_15">
     <!-- % SSE -->
     <defs>
      <path d="M 72.703125 32.078125 
Q 68.453125 32.078125 66.03125 28.46875 
Q 63.625 24.859375 63.625 18.40625 
Q 63.625 12.0625 66.03125 8.421875 
Q 68.453125 4.78125 72.703125 4.78125 
Q 76.859375 4.78125 79.265625 8.421875 
Q 81.6875 12.0625 81.6875 18.40625 
Q 81.6875 24.8125 79.265625 28.4375 
Q 76.859375 32.078125 72.703125 32.078125 
z
M 72.703125 38.28125 
Q 80.421875 38.28125 84.953125 32.90625 
Q 89.5 27.546875 89.5 18.40625 
Q 89.5 9.28125 84.9375 3.921875 
Q 80.375 -1.421875 72.703125 -1.421875 
Q 64.890625 -1.421875 60.34375 3.921875 
Q 55.8125 9.28125 55.8125 18.40625 
Q 55.8125 27.59375 60.375 32.9375 
Q 64.9375 38.28125 72.703125 38.28125 
z
M 22.3125 68.015625 
Q 18.109375 68.015625 15.6875 64.375 
Q 13.28125 60.75 13.28125 54.390625 
Q 13.28125 47.953125 15.671875 44.328125 
Q 18.0625 40.71875 22.3125 40.71875 
Q 26.5625 40.71875 28.96875 44.328125 
Q 31.390625 47.953125 31.390625 54.390625 
Q 31.390625 60.6875 28.953125 64.34375 
Q 26.515625 68.015625 22.3125 68.015625 
z
M 66.40625 74.21875 
L 74.21875 74.21875 
L 28.609375 -1.421875 
L 20.796875 -1.421875 
z
M 22.3125 74.21875 
Q 30.03125 74.21875 34.609375 68.875 
Q 39.203125 63.53125 39.203125 54.390625 
Q 39.203125 45.171875 34.640625 39.84375 
Q 30.078125 34.515625 22.3125 34.515625 
Q 14.546875 34.515625 10.03125 39.859375 
Q 5.515625 45.21875 5.515625 54.390625 
Q 5.515625 63.484375 10.046875 68.84375 
Q 14.59375 74.21875 22.3125 74.21875 
z
" id="DejaVuSans-25"/>
      <path d="M 53.515625 70.515625 
L 53.515625 60.890625 
Q 47.90625 63.578125 42.921875 64.890625 
Q 37.9375 66.21875 33.296875 66.21875 
Q 25.25 66.21875 20.875 63.09375 
Q 16.5 59.96875 16.5 54.203125 
Q 16.5 49.359375 19.40625 46.890625 
Q 22.3125 44.4375 30.421875 42.921875 
L 36.375 41.703125 
Q 47.40625 39.59375 52.65625 34.296875 
Q 57.90625 29 57.90625 20.125 
Q 57.90625 9.515625 50.796875 4.046875 
Q 43.703125 -1.421875 29.984375 -1.421875 
Q 24.8125 -1.421875 18.96875 -0.25 
Q 13.140625 0.921875 6.890625 3.21875 
L 6.890625 13.375 
Q 12.890625 10.015625 18.65625 8.296875 
Q 24.421875 6.59375 29.984375 6.59375 
Q 38.421875 6.59375 43.015625 9.90625 
Q 47.609375 13.234375 47.609375 19.390625 
Q 47.609375 24.75 44.3125 27.78125 
Q 41.015625 30.8125 33.5 32.328125 
L 27.484375 33.5 
Q 16.453125 35.6875 11.515625 40.375 
Q 6.59375 45.0625 6.59375 53.421875 
Q 6.59375 63.09375 13.40625 68.65625 
Q 20.21875 74.21875 32.171875 74.21875 
Q 37.3125 74.21875 42.625 73.28125 
Q 47.953125 72.359375 53.515625 70.515625 
z
" id="DejaVuSans-53"/>
      <path d="M 9.8125 72.90625 
L 55.90625 72.90625 
L 55.90625 64.59375 
L 19.671875 64.59375 
L 19.671875 43.015625 
L 54.390625 43.015625 
L 54.390625 34.71875 
L 19.671875 34.71875 
L 19.671875 8.296875 
L 56.78125 8.296875 
L 56.78125 0 
L 9.8125 0 
z
" id="DejaVuSans-45"/>
     </defs>
     <g transform="translate(25.016875 177.993187)rotate(-90)scale(0.12 -0.12)">
      <use xlink:href="#DejaVuSans-25"/>
      <use x="95.019531" xlink:href="#DejaVuSans-20"/>
      <use x="126.806641" xlink:href="#DejaVuSans-53"/>
      <use x="190.283203" xlink:href="#DejaVuSans-53"/>
      <use x="253.759766" xlink:href="#DejaVuSans-45"/>
     </g>
    </g>
   </g>
   <g id="patch_3">
    <path d="M 57.6 276.48 
L 57.6 41.472 
" style="fill:none;stroke:#000000;stroke-linecap:square;stroke-linejoin:miter;stroke-width:0.8;"/>
   </g>
   <g id="patch_4">
    <path d="M 414.72 276.48 
L 414.72 41.472 
" style="fill:none;stroke:#000000;stroke-linecap:square;stroke-linejoin:miter;stroke-width:0.8;"/>
   </g>
   <g id="patch_5">
    <path d="M 57.6 276.48 
L 414.72 276.48 
" style="fill:none;stroke:#000000;stroke-linecap:square;stroke-linejoin:miter;stroke-width:0.8;"/>
   </g>
   <g id="patch_6">
    <path d="M 57.6 41.472 
L 414.72 41.472 
" style="fill:none;stroke:#000000;stroke-linecap:square;stroke-linejoin:miter;stroke-width:0.8;"/>
   </g>
  </g>
 </g>
 <defs>
  <clipPath id="pf77b206253">
   <rect height="235.008" width="357.12" x="57.6" y="41.472"/>
  </clipPath>
 </defs>
</svg>
