<?xml version="1.0" encoding="utf-8" standalone="no"?>
<!DOCTYPE svg PUBLIC "-//W3C//DTD SVG 1.1//EN"
  "http://www.w3.org/Graphics/SVG/1.1/DTD/svg11.dtd">
<!-- Created with matplotlib (http://matplotlib.org/) -->
<svg height="578.16pt" version="1.1" viewBox="0 0 1284.48 578.16" width="1284.48pt" xmlns="http://www.w3.org/2000/svg" xmlns:xlink="http://www.w3.org/1999/xlink">
 <defs>
  <style type="text/css">
*{stroke-linecap:butt;stroke-linejoin:round;}
  </style>
 </defs>
 <g id="figure_1">
  <g id="patch_1">
   <path d="M 0 578.16 
L 1284.48 578.16 
L 1284.48 0 
L 0 0 
z
" style="fill:#ffffff;"/>
  </g>
  <g id="axes_1">
   <g id="patch_2">
    <path d="M 160.56 514.5624 
L 1156.032 514.5624 
L 1156.032 69.3792 
L 160.56 69.3792 
z
" style="fill:#ffffff;"/>
   </g>
   <g id="matplotlib.axis_1">
    <g id="xtick_1">
     <g id="line2d_1">
      <defs>
       <path d="M 0 0 
L 0 3.5 
" id="m0895db0283" style="stroke:#000000;stroke-width:0.8;"/>
      </defs>
      <g>
       <use style="stroke:#000000;stroke-width:0.8;" x="160.56" xlink:href="#m0895db0283" y="514.5624"/>
      </g>
     </g>
     <g id="text_1">
      <!-- 0 -->
      <defs>
       <path d="M 31.78125 66.40625 
Q 24.171875 66.40625 20.328125 58.90625 
Q 16.5 51.421875 16.5 36.375 
Q 16.5 21.390625 20.328125 13.890625 
Q 24.171875 6.390625 31.78125 6.390625 
Q 39.453125 6.390625 43.28125 13.890625 
Q 47.125 21.390625 47.125 36.375 
Q 47.125 51.421875 43.28125 58.90625 
Q 39.453125 66.40625 31.78125 66.40625 
z
M 31.78125 74.21875 
Q 44.046875 74.21875 50.515625 64.515625 
Q 56.984375 54.828125 56.984375 36.375 
Q 56.984375 17.96875 50.515625 8.265625 
Q 44.046875 -1.421875 31.78125 -1.421875 
Q 19.53125 -1.421875 13.0625 8.265625 
Q 6.59375 17.96875 6.59375 36.375 
Q 6.59375 54.828125 13.0625 64.515625 
Q 19.53125 74.21875 31.78125 74.21875 
z
" id="DejaVuSans-30"/>
      </defs>
      <g transform="translate(157.37875 529.160837)scale(0.1 -0.1)">
       <use xlink:href="#DejaVuSans-30"/>
      </g>
     </g>
    </g>
    <g id="xtick_2">
     <g id="line2d_2">
      <g>
       <use style="stroke:#000000;stroke-width:0.8;" x="359.650418" xlink:href="#m0895db0283" y="514.5624"/>
      </g>
     </g>
     <g id="text_2">
      <!-- 20 -->
      <defs>
       <path d="M 19.1875 8.296875 
L 53.609375 8.296875 
L 53.609375 0 
L 7.328125 0 
L 7.328125 8.296875 
Q 12.9375 14.109375 22.625 23.890625 
Q 32.328125 33.6875 34.8125 36.53125 
Q 39.546875 41.84375 41.421875 45.53125 
Q 43.3125 49.21875 43.3125 52.78125 
Q 43.3125 58.59375 39.234375 62.25 
Q 35.15625 65.921875 28.609375 65.921875 
Q 23.96875 65.921875 18.8125 64.3125 
Q 13.671875 62.703125 7.8125 59.421875 
L 7.8125 69.390625 
Q 13.765625 71.78125 18.9375 73 
Q 24.125 74.21875 28.421875 74.21875 
Q 39.75 74.21875 46.484375 68.546875 
Q 53.21875 62.890625 53.21875 53.421875 
Q 53.21875 48.921875 51.53125 44.890625 
Q 49.859375 40.875 45.40625 35.40625 
Q 44.1875 33.984375 37.640625 27.21875 
Q 31.109375 20.453125 19.1875 8.296875 
z
" id="DejaVuSans-32"/>
      </defs>
      <g transform="translate(353.287918 529.160837)scale(0.1 -0.1)">
       <use xlink:href="#DejaVuSans-32"/>
       <use x="63.623047" xlink:href="#DejaVuSans-30"/>
      </g>
     </g>
    </g>
    <g id="xtick_3">
     <g id="line2d_3">
      <g>
       <use style="stroke:#000000;stroke-width:0.8;" x="558.740836" xlink:href="#m0895db0283" y="514.5624"/>
      </g>
     </g>
     <g id="text_3">
      <!-- 40 -->
      <defs>
       <path d="M 37.796875 64.3125 
L 12.890625 25.390625 
L 37.796875 25.390625 
z
M 35.203125 72.90625 
L 47.609375 72.90625 
L 47.609375 25.390625 
L 58.015625 25.390625 
L 58.015625 17.1875 
L 47.609375 17.1875 
L 47.609375 0 
L 37.796875 0 
L 37.796875 17.1875 
L 4.890625 17.1875 
L 4.890625 26.703125 
z
" id="DejaVuSans-34"/>
      </defs>
      <g transform="translate(552.378336 529.160837)scale(0.1 -0.1)">
       <use xlink:href="#DejaVuSans-34"/>
       <use x="63.623047" xlink:href="#DejaVuSans-30"/>
      </g>
     </g>
    </g>
    <g id="xtick_4">
     <g id="line2d_4">
      <g>
       <use style="stroke:#000000;stroke-width:0.8;" x="757.831255" xlink:href="#m0895db0283" y="514.5624"/>
      </g>
     </g>
     <g id="text_4">
      <!-- 60 -->
      <defs>
       <path d="M 33.015625 40.375 
Q 26.375 40.375 22.484375 35.828125 
Q 18.609375 31.296875 18.609375 23.390625 
Q 18.609375 15.53125 22.484375 10.953125 
Q 26.375 6.390625 33.015625 6.390625 
Q 39.65625 6.390625 43.53125 10.953125 
Q 47.40625 15.53125 47.40625 23.390625 
Q 47.40625 31.296875 43.53125 35.828125 
Q 39.65625 40.375 33.015625 40.375 
z
M 52.59375 71.296875 
L 52.59375 62.3125 
Q 48.875 64.0625 45.09375 64.984375 
Q 41.3125 65.921875 37.59375 65.921875 
Q 27.828125 65.921875 22.671875 59.328125 
Q 17.53125 52.734375 16.796875 39.40625 
Q 19.671875 43.65625 24.015625 45.921875 
Q 28.375 48.1875 33.59375 48.1875 
Q 44.578125 48.1875 50.953125 41.515625 
Q 57.328125 34.859375 57.328125 23.390625 
Q 57.328125 12.15625 50.6875 5.359375 
Q 44.046875 -1.421875 33.015625 -1.421875 
Q 20.359375 -1.421875 13.671875 8.265625 
Q 6.984375 17.96875 6.984375 36.375 
Q 6.984375 53.65625 15.1875 63.9375 
Q 23.390625 74.21875 37.203125 74.21875 
Q 40.921875 74.21875 44.703125 73.484375 
Q 48.484375 72.75 52.59375 71.296875 
z
" id="DejaVuSans-36"/>
      </defs>
      <g transform="translate(751.468755 529.160837)scale(0.1 -0.1)">
       <use xlink:href="#DejaVuSans-36"/>
       <use x="63.623047" xlink:href="#DejaVuSans-30"/>
      </g>
     </g>
    </g>
    <g id="xtick_5">
     <g id="line2d_5">
      <g>
       <use style="stroke:#000000;stroke-width:0.8;" x="956.921673" xlink:href="#m0895db0283" y="514.5624"/>
      </g>
     </g>
     <g id="text_5">
      <!-- 80 -->
      <defs>
       <path d="M 31.78125 34.625 
Q 24.75 34.625 20.71875 30.859375 
Q 16.703125 27.09375 16.703125 20.515625 
Q 16.703125 13.921875 20.71875 10.15625 
Q 24.75 6.390625 31.78125 6.390625 
Q 38.8125 6.390625 42.859375 10.171875 
Q 46.921875 13.96875 46.921875 20.515625 
Q 46.921875 27.09375 42.890625 30.859375 
Q 38.875 34.625 31.78125 34.625 
z
M 21.921875 38.8125 
Q 15.578125 40.375 12.03125 44.71875 
Q 8.5 49.078125 8.5 55.328125 
Q 8.5 64.0625 14.71875 69.140625 
Q 20.953125 74.21875 31.78125 74.21875 
Q 42.671875 74.21875 48.875 69.140625 
Q 55.078125 64.0625 55.078125 55.328125 
Q 55.078125 49.078125 51.53125 44.71875 
Q 48 40.375 41.703125 38.8125 
Q 48.828125 37.15625 52.796875 32.3125 
Q 56.78125 27.484375 56.78125 20.515625 
Q 56.78125 9.90625 50.3125 4.234375 
Q 43.84375 -1.421875 31.78125 -1.421875 
Q 19.734375 -1.421875 13.25 4.234375 
Q 6.78125 9.90625 6.78125 20.515625 
Q 6.78125 27.484375 10.78125 32.3125 
Q 14.796875 37.15625 21.921875 38.8125 
z
M 18.3125 54.390625 
Q 18.3125 48.734375 21.84375 45.5625 
Q 25.390625 42.390625 31.78125 42.390625 
Q 38.140625 42.390625 41.71875 45.5625 
Q 45.3125 48.734375 45.3125 54.390625 
Q 45.3125 60.0625 41.71875 63.234375 
Q 38.140625 66.40625 31.78125 66.40625 
Q 25.390625 66.40625 21.84375 63.234375 
Q 18.3125 60.0625 18.3125 54.390625 
z
" id="DejaVuSans-38"/>
      </defs>
      <g transform="translate(950.559173 529.160837)scale(0.1 -0.1)">
       <use xlink:href="#DejaVuSans-38"/>
       <use x="63.623047" xlink:href="#DejaVuSans-30"/>
      </g>
     </g>
    </g>
    <g id="xtick_6">
     <g id="line2d_6">
      <g>
       <use style="stroke:#000000;stroke-width:0.8;" x="1156.012091" xlink:href="#m0895db0283" y="514.5624"/>
      </g>
     </g>
     <g id="text_6">
      <!-- 100 -->
      <defs>
       <path d="M 12.40625 8.296875 
L 28.515625 8.296875 
L 28.515625 63.921875 
L 10.984375 60.40625 
L 10.984375 69.390625 
L 28.421875 72.90625 
L 38.28125 72.90625 
L 38.28125 8.296875 
L 54.390625 8.296875 
L 54.390625 0 
L 12.40625 0 
z
" id="DejaVuSans-31"/>
      </defs>
      <g transform="translate(1146.468341 529.160837)scale(0.1 -0.1)">
       <use xlink:href="#DejaVuSans-31"/>
       <use x="63.623047" xlink:href="#DejaVuSans-30"/>
       <use x="127.246094" xlink:href="#DejaVuSans-30"/>
      </g>
     </g>
    </g>
    <g id="text_7">
     <!-- Time (nsec) -->
     <defs>
      <path d="M -0.296875 72.90625 
L 61.375 72.90625 
L 61.375 64.59375 
L 35.5 64.59375 
L 35.5 0 
L 25.59375 0 
L 25.59375 64.59375 
L -0.296875 64.59375 
z
" id="DejaVuSans-54"/>
      <path d="M 9.421875 54.6875 
L 18.40625 54.6875 
L 18.40625 0 
L 9.421875 0 
z
M 9.421875 75.984375 
L 18.40625 75.984375 
L 18.40625 64.59375 
L 9.421875 64.59375 
z
" id="DejaVuSans-69"/>
      <path d="M 52 44.1875 
Q 55.375 50.25 60.0625 53.125 
Q 64.75 56 71.09375 56 
Q 79.640625 56 84.28125 50.015625 
Q 88.921875 44.046875 88.921875 33.015625 
L 88.921875 0 
L 79.890625 0 
L 79.890625 32.71875 
Q 79.890625 40.578125 77.09375 44.375 
Q 74.3125 48.1875 68.609375 48.1875 
Q 61.625 48.1875 57.5625 43.546875 
Q 53.515625 38.921875 53.515625 30.90625 
L 53.515625 0 
L 44.484375 0 
L 44.484375 32.71875 
Q 44.484375 40.625 41.703125 44.40625 
Q 38.921875 48.1875 33.109375 48.1875 
Q 26.21875 48.1875 22.15625 43.53125 
Q 18.109375 38.875 18.109375 30.90625 
L 18.109375 0 
L 9.078125 0 
L 9.078125 54.6875 
L 18.109375 54.6875 
L 18.109375 46.1875 
Q 21.1875 51.21875 25.484375 53.609375 
Q 29.78125 56 35.6875 56 
Q 41.65625 56 45.828125 52.96875 
Q 50 49.953125 52 44.1875 
z
" id="DejaVuSans-6d"/>
      <path d="M 56.203125 29.59375 
L 56.203125 25.203125 
L 14.890625 25.203125 
Q 15.484375 15.921875 20.484375 11.0625 
Q 25.484375 6.203125 34.421875 6.203125 
Q 39.59375 6.203125 44.453125 7.46875 
Q 49.3125 8.734375 54.109375 11.28125 
L 54.109375 2.78125 
Q 49.265625 0.734375 44.1875 -0.34375 
Q 39.109375 -1.421875 33.890625 -1.421875 
Q 20.796875 -1.421875 13.15625 6.1875 
Q 5.515625 13.8125 5.515625 26.8125 
Q 5.515625 40.234375 12.765625 48.109375 
Q 20.015625 56 32.328125 56 
Q 43.359375 56 49.78125 48.890625 
Q 56.203125 41.796875 56.203125 29.59375 
z
M 47.21875 32.234375 
Q 47.125 39.59375 43.09375 43.984375 
Q 39.0625 48.390625 32.421875 48.390625 
Q 24.90625 48.390625 20.390625 44.140625 
Q 15.875 39.890625 15.1875 32.171875 
z
" id="DejaVuSans-65"/>
      <path id="DejaVuSans-20"/>
      <path d="M 31 75.875 
Q 24.46875 64.65625 21.28125 53.65625 
Q 18.109375 42.671875 18.109375 31.390625 
Q 18.109375 20.125 21.3125 9.0625 
Q 24.515625 -2 31 -13.1875 
L 23.1875 -13.1875 
Q 15.875 -1.703125 12.234375 9.375 
Q 8.59375 20.453125 8.59375 31.390625 
Q 8.59375 42.28125 12.203125 53.3125 
Q 15.828125 64.359375 23.1875 75.875 
z
" id="DejaVuSans-28"/>
      <path d="M 54.890625 33.015625 
L 54.890625 0 
L 45.90625 0 
L 45.90625 32.71875 
Q 45.90625 40.484375 42.875 44.328125 
Q 39.84375 48.1875 33.796875 48.1875 
Q 26.515625 48.1875 22.3125 43.546875 
Q 18.109375 38.921875 18.109375 30.90625 
L 18.109375 0 
L 9.078125 0 
L 9.078125 54.6875 
L 18.109375 54.6875 
L 18.109375 46.1875 
Q 21.34375 51.125 25.703125 53.5625 
Q 30.078125 56 35.796875 56 
Q 45.21875 56 50.046875 50.171875 
Q 54.890625 44.34375 54.890625 33.015625 
z
" id="DejaVuSans-6e"/>
      <path d="M 44.28125 53.078125 
L 44.28125 44.578125 
Q 40.484375 46.53125 36.375 47.5 
Q 32.28125 48.484375 27.875 48.484375 
Q 21.1875 48.484375 17.84375 46.4375 
Q 14.5 44.390625 14.5 40.28125 
Q 14.5 37.15625 16.890625 35.375 
Q 19.28125 33.59375 26.515625 31.984375 
L 29.59375 31.296875 
Q 39.15625 29.25 43.1875 25.515625 
Q 47.21875 21.78125 47.21875 15.09375 
Q 47.21875 7.46875 41.1875 3.015625 
Q 35.15625 -1.421875 24.609375 -1.421875 
Q 20.21875 -1.421875 15.453125 -0.5625 
Q 10.6875 0.296875 5.421875 2 
L 5.421875 11.28125 
Q 10.40625 8.6875 15.234375 7.390625 
Q 20.0625 6.109375 24.8125 6.109375 
Q 31.15625 6.109375 34.5625 8.28125 
Q 37.984375 10.453125 37.984375 14.40625 
Q 37.984375 18.0625 35.515625 20.015625 
Q 33.0625 21.96875 24.703125 23.78125 
L 21.578125 24.515625 
Q 13.234375 26.265625 9.515625 29.90625 
Q 5.8125 33.546875 5.8125 39.890625 
Q 5.8125 47.609375 11.28125 51.796875 
Q 16.75 56 26.8125 56 
Q 31.78125 56 36.171875 55.265625 
Q 40.578125 54.546875 44.28125 53.078125 
z
" id="DejaVuSans-73"/>
      <path d="M 48.78125 52.59375 
L 48.78125 44.1875 
Q 44.96875 46.296875 41.140625 47.34375 
Q 37.3125 48.390625 33.40625 48.390625 
Q 24.65625 48.390625 19.8125 42.84375 
Q 14.984375 37.3125 14.984375 27.296875 
Q 14.984375 17.28125 19.8125 11.734375 
Q 24.65625 6.203125 33.40625 6.203125 
Q 37.3125 6.203125 41.140625 7.25 
Q 44.96875 8.296875 48.78125 10.40625 
L 48.78125 2.09375 
Q 45.015625 0.34375 40.984375 -0.53125 
Q 36.96875 -1.421875 32.421875 -1.421875 
Q 20.0625 -1.421875 12.78125 6.34375 
Q 5.515625 14.109375 5.515625 27.296875 
Q 5.515625 40.671875 12.859375 48.328125 
Q 20.21875 56 33.015625 56 
Q 37.15625 56 41.109375 55.140625 
Q 45.0625 54.296875 48.78125 52.59375 
z
" id="DejaVuSans-63"/>
      <path d="M 8.015625 75.875 
L 15.828125 75.875 
Q 23.140625 64.359375 26.78125 53.3125 
Q 30.421875 42.28125 30.421875 31.390625 
Q 30.421875 20.453125 26.78125 9.375 
Q 23.140625 -1.703125 15.828125 -13.1875 
L 8.015625 -13.1875 
Q 14.5 -2 17.703125 9.0625 
Q 20.90625 20.125 20.90625 31.390625 
Q 20.90625 42.671875 17.703125 53.65625 
Q 14.5 64.65625 8.015625 75.875 
z
" id="DejaVuSans-29"/>
     </defs>
     <g transform="translate(611.13225 547.398025)scale(0.16 -0.16)">
      <use xlink:href="#DejaVuSans-54"/>
      <use x="61.037109" xlink:href="#DejaVuSans-69"/>
      <use x="88.820312" xlink:href="#DejaVuSans-6d"/>
      <use x="186.232422" xlink:href="#DejaVuSans-65"/>
      <use x="247.755859" xlink:href="#DejaVuSans-20"/>
      <use x="279.542969" xlink:href="#DejaVuSans-28"/>
      <use x="318.556641" xlink:href="#DejaVuSans-6e"/>
      <use x="381.935547" xlink:href="#DejaVuSans-73"/>
      <use x="434.035156" xlink:href="#DejaVuSans-65"/>
      <use x="495.558594" xlink:href="#DejaVuSans-63"/>
      <use x="550.539062" xlink:href="#DejaVuSans-29"/>
     </g>
    </g>
   </g>
   <g id="matplotlib.axis_2">
    <g id="ytick_1">
     <g id="line2d_7">
      <defs>
       <path d="M 0 0 
L -3.5 0 
" id="m5519f2770e" style="stroke:#000000;stroke-width:0.8;"/>
      </defs>
      <g>
       <use style="stroke:#000000;stroke-width:0.8;" x="160.56" xlink:href="#m5519f2770e" y="467.847548"/>
      </g>
     </g>
     <g id="text_8">
      <!-- 0.25 -->
      <defs>
       <path d="M 10.6875 12.40625 
L 21 12.40625 
L 21 0 
L 10.6875 0 
z
" id="DejaVuSans-2e"/>
       <path d="M 10.796875 72.90625 
L 49.515625 72.90625 
L 49.515625 64.59375 
L 19.828125 64.59375 
L 19.828125 46.734375 
Q 21.96875 47.46875 24.109375 47.828125 
Q 26.265625 48.1875 28.421875 48.1875 
Q 40.625 48.1875 47.75 41.5 
Q 54.890625 34.8125 54.890625 23.390625 
Q 54.890625 11.625 47.5625 5.09375 
Q 40.234375 -1.421875 26.90625 -1.421875 
Q 22.3125 -1.421875 17.546875 -0.640625 
Q 12.796875 0.140625 7.71875 1.703125 
L 7.71875 11.625 
Q 12.109375 9.234375 16.796875 8.0625 
Q 21.484375 6.890625 26.703125 6.890625 
Q 35.15625 6.890625 40.078125 11.328125 
Q 45.015625 15.765625 45.015625 23.390625 
Q 45.015625 31 40.078125 35.4375 
Q 35.15625 39.890625 26.703125 39.890625 
Q 22.75 39.890625 18.8125 39.015625 
Q 14.890625 38.140625 10.796875 36.28125 
z
" id="DejaVuSans-35"/>
      </defs>
      <g transform="translate(131.294375 471.646766)scale(0.1 -0.1)">
       <use xlink:href="#DejaVuSans-30"/>
       <use x="63.623047" xlink:href="#DejaVuSans-2e"/>
       <use x="95.410156" xlink:href="#DejaVuSans-32"/>
       <use x="159.033203" xlink:href="#DejaVuSans-35"/>
      </g>
     </g>
    </g>
    <g id="ytick_2">
     <g id="line2d_8">
      <g>
       <use style="stroke:#000000;stroke-width:0.8;" x="160.56" xlink:href="#m5519f2770e" y="421.132695"/>
      </g>
     </g>
     <g id="text_9">
      <!-- 0.50 -->
      <g transform="translate(131.294375 424.931914)scale(0.1 -0.1)">
       <use xlink:href="#DejaVuSans-30"/>
       <use x="63.623047" xlink:href="#DejaVuSans-2e"/>
       <use x="95.410156" xlink:href="#DejaVuSans-35"/>
       <use x="159.033203" xlink:href="#DejaVuSans-30"/>
      </g>
     </g>
    </g>
    <g id="ytick_3">
     <g id="line2d_9">
      <g>
       <use style="stroke:#000000;stroke-width:0.8;" x="160.56" xlink:href="#m5519f2770e" y="374.417843"/>
      </g>
     </g>
     <g id="text_10">
      <!-- 0.75 -->
      <defs>
       <path d="M 8.203125 72.90625 
L 55.078125 72.90625 
L 55.078125 68.703125 
L 28.609375 0 
L 18.3125 0 
L 43.21875 64.59375 
L 8.203125 64.59375 
z
" id="DejaVuSans-37"/>
      </defs>
      <g transform="translate(131.294375 378.217062)scale(0.1 -0.1)">
       <use xlink:href="#DejaVuSans-30"/>
       <use x="63.623047" xlink:href="#DejaVuSans-2e"/>
       <use x="95.410156" xlink:href="#DejaVuSans-37"/>
       <use x="159.033203" xlink:href="#DejaVuSans-35"/>
      </g>
     </g>
    </g>
    <g id="ytick_4">
     <g id="line2d_10">
      <g>
       <use style="stroke:#000000;stroke-width:0.8;" x="160.56" xlink:href="#m5519f2770e" y="327.702991"/>
      </g>
     </g>
     <g id="text_11">
      <!-- 1.00 -->
      <g transform="translate(131.294375 331.502209)scale(0.1 -0.1)">
       <use xlink:href="#DejaVuSans-31"/>
       <use x="63.623047" xlink:href="#DejaVuSans-2e"/>
       <use x="95.410156" xlink:href="#DejaVuSans-30"/>
       <use x="159.033203" xlink:href="#DejaVuSans-30"/>
      </g>
     </g>
    </g>
    <g id="ytick_5">
     <g id="line2d_11">
      <g>
       <use style="stroke:#000000;stroke-width:0.8;" x="160.56" xlink:href="#m5519f2770e" y="280.988138"/>
      </g>
     </g>
     <g id="text_12">
      <!-- 1.25 -->
      <g transform="translate(131.294375 284.787357)scale(0.1 -0.1)">
       <use xlink:href="#DejaVuSans-31"/>
       <use x="63.623047" xlink:href="#DejaVuSans-2e"/>
       <use x="95.410156" xlink:href="#DejaVuSans-32"/>
       <use x="159.033203" xlink:href="#DejaVuSans-35"/>
      </g>
     </g>
    </g>
    <g id="ytick_6">
     <g id="line2d_12">
      <g>
       <use style="stroke:#000000;stroke-width:0.8;" x="160.56" xlink:href="#m5519f2770e" y="234.273286"/>
      </g>
     </g>
     <g id="text_13">
      <!-- 1.50 -->
      <g transform="translate(131.294375 238.072505)scale(0.1 -0.1)">
       <use xlink:href="#DejaVuSans-31"/>
       <use x="63.623047" xlink:href="#DejaVuSans-2e"/>
       <use x="95.410156" xlink:href="#DejaVuSans-35"/>
       <use x="159.033203" xlink:href="#DejaVuSans-30"/>
      </g>
     </g>
    </g>
    <g id="ytick_7">
     <g id="line2d_13">
      <g>
       <use style="stroke:#000000;stroke-width:0.8;" x="160.56" xlink:href="#m5519f2770e" y="187.558433"/>
      </g>
     </g>
     <g id="text_14">
      <!-- 1.75 -->
      <g transform="translate(131.294375 191.357652)scale(0.1 -0.1)">
       <use xlink:href="#DejaVuSans-31"/>
       <use x="63.623047" xlink:href="#DejaVuSans-2e"/>
       <use x="95.410156" xlink:href="#DejaVuSans-37"/>
       <use x="159.033203" xlink:href="#DejaVuSans-35"/>
      </g>
     </g>
    </g>
    <g id="ytick_8">
     <g id="line2d_14">
      <g>
       <use style="stroke:#000000;stroke-width:0.8;" x="160.56" xlink:href="#m5519f2770e" y="140.843581"/>
      </g>
     </g>
     <g id="text_15">
      <!-- 2.00 -->
      <g transform="translate(131.294375 144.6428)scale(0.1 -0.1)">
       <use xlink:href="#DejaVuSans-32"/>
       <use x="63.623047" xlink:href="#DejaVuSans-2e"/>
       <use x="95.410156" xlink:href="#DejaVuSans-30"/>
       <use x="159.033203" xlink:href="#DejaVuSans-30"/>
      </g>
     </g>
    </g>
    <g id="ytick_9">
     <g id="line2d_15">
      <g>
       <use style="stroke:#000000;stroke-width:0.8;" x="160.56" xlink:href="#m5519f2770e" y="94.128729"/>
      </g>
     </g>
     <g id="text_16">
      <!-- 2.25 -->
      <g transform="translate(131.294375 97.927948)scale(0.1 -0.1)">
       <use xlink:href="#DejaVuSans-32"/>
       <use x="63.623047" xlink:href="#DejaVuSans-2e"/>
       <use x="95.410156" xlink:href="#DejaVuSans-32"/>
       <use x="159.033203" xlink:href="#DejaVuSans-35"/>
      </g>
     </g>
    </g>
    <g id="text_17">
     <!-- Protein RMSD ($\AA$) -->
     <defs>
      <path d="M 19.671875 64.796875 
L 19.671875 37.40625 
L 32.078125 37.40625 
Q 38.96875 37.40625 42.71875 40.96875 
Q 46.484375 44.53125 46.484375 51.125 
Q 46.484375 57.671875 42.71875 61.234375 
Q 38.96875 64.796875 32.078125 64.796875 
z
M 9.8125 72.90625 
L 32.078125 72.90625 
Q 44.34375 72.90625 50.609375 67.359375 
Q 56.890625 61.8125 56.890625 51.125 
Q 56.890625 40.328125 50.609375 34.8125 
Q 44.34375 29.296875 32.078125 29.296875 
L 19.671875 29.296875 
L 19.671875 0 
L 9.8125 0 
z
" id="DejaVuSans-50"/>
      <path d="M 41.109375 46.296875 
Q 39.59375 47.171875 37.8125 47.578125 
Q 36.03125 48 33.890625 48 
Q 26.265625 48 22.1875 43.046875 
Q 18.109375 38.09375 18.109375 28.8125 
L 18.109375 0 
L 9.078125 0 
L 9.078125 54.6875 
L 18.109375 54.6875 
L 18.109375 46.1875 
Q 20.953125 51.171875 25.484375 53.578125 
Q 30.03125 56 36.53125 56 
Q 37.453125 56 38.578125 55.875 
Q 39.703125 55.765625 41.0625 55.515625 
z
" id="DejaVuSans-72"/>
      <path d="M 30.609375 48.390625 
Q 23.390625 48.390625 19.1875 42.75 
Q 14.984375 37.109375 14.984375 27.296875 
Q 14.984375 17.484375 19.15625 11.84375 
Q 23.34375 6.203125 30.609375 6.203125 
Q 37.796875 6.203125 41.984375 11.859375 
Q 46.1875 17.53125 46.1875 27.296875 
Q 46.1875 37.015625 41.984375 42.703125 
Q 37.796875 48.390625 30.609375 48.390625 
z
M 30.609375 56 
Q 42.328125 56 49.015625 48.375 
Q 55.71875 40.765625 55.71875 27.296875 
Q 55.71875 13.875 49.015625 6.21875 
Q 42.328125 -1.421875 30.609375 -1.421875 
Q 18.84375 -1.421875 12.171875 6.21875 
Q 5.515625 13.875 5.515625 27.296875 
Q 5.515625 40.765625 12.171875 48.375 
Q 18.84375 56 30.609375 56 
z
" id="DejaVuSans-6f"/>
      <path d="M 18.3125 70.21875 
L 18.3125 54.6875 
L 36.8125 54.6875 
L 36.8125 47.703125 
L 18.3125 47.703125 
L 18.3125 18.015625 
Q 18.3125 11.328125 20.140625 9.421875 
Q 21.96875 7.515625 27.59375 7.515625 
L 36.8125 7.515625 
L 36.8125 0 
L 27.59375 0 
Q 17.1875 0 13.234375 3.875 
Q 9.28125 7.765625 9.28125 18.015625 
L 9.28125 47.703125 
L 2.6875 47.703125 
L 2.6875 54.6875 
L 9.28125 54.6875 
L 9.28125 70.21875 
z
" id="DejaVuSans-74"/>
      <path d="M 44.390625 34.1875 
Q 47.5625 33.109375 50.5625 29.59375 
Q 53.5625 26.078125 56.59375 19.921875 
L 66.609375 0 
L 56 0 
L 46.6875 18.703125 
Q 43.0625 26.03125 39.671875 28.421875 
Q 36.28125 30.8125 30.421875 30.8125 
L 19.671875 30.8125 
L 19.671875 0 
L 9.8125 0 
L 9.8125 72.90625 
L 32.078125 72.90625 
Q 44.578125 72.90625 50.734375 67.671875 
Q 56.890625 62.453125 56.890625 51.90625 
Q 56.890625 45.015625 53.6875 40.46875 
Q 50.484375 35.9375 44.390625 34.1875 
z
M 19.671875 64.796875 
L 19.671875 38.921875 
L 32.078125 38.921875 
Q 39.203125 38.921875 42.84375 42.21875 
Q 46.484375 45.515625 46.484375 51.90625 
Q 46.484375 58.296875 42.84375 61.546875 
Q 39.203125 64.796875 32.078125 64.796875 
z
" id="DejaVuSans-52"/>
      <path d="M 9.8125 72.90625 
L 24.515625 72.90625 
L 43.109375 23.296875 
L 61.8125 72.90625 
L 76.515625 72.90625 
L 76.515625 0 
L 66.890625 0 
L 66.890625 64.015625 
L 48.09375 14.015625 
L 38.1875 14.015625 
L 19.390625 64.015625 
L 19.390625 0 
L 9.8125 0 
z
" id="DejaVuSans-4d"/>
      <path d="M 53.515625 70.515625 
L 53.515625 60.890625 
Q 47.90625 63.578125 42.921875 64.890625 
Q 37.9375 66.21875 33.296875 66.21875 
Q 25.25 66.21875 20.875 63.09375 
Q 16.5 59.96875 16.5 54.203125 
Q 16.5 49.359375 19.40625 46.890625 
Q 22.3125 44.4375 30.421875 42.921875 
L 36.375 41.703125 
Q 47.40625 39.59375 52.65625 34.296875 
Q 57.90625 29 57.90625 20.125 
Q 57.90625 9.515625 50.796875 4.046875 
Q 43.703125 -1.421875 29.984375 -1.421875 
Q 24.8125 -1.421875 18.96875 -0.25 
Q 13.140625 0.921875 6.890625 3.21875 
L 6.890625 13.375 
Q 12.890625 10.015625 18.65625 8.296875 
Q 24.421875 6.59375 29.984375 6.59375 
Q 38.421875 6.59375 43.015625 9.90625 
Q 47.609375 13.234375 47.609375 19.390625 
Q 47.609375 24.75 44.3125 27.78125 
Q 41.015625 30.8125 33.5 32.328125 
L 27.484375 33.5 
Q 16.453125 35.6875 11.515625 40.375 
Q 6.59375 45.0625 6.59375 53.421875 
Q 6.59375 63.09375 13.40625 68.65625 
Q 20.21875 74.21875 32.171875 74.21875 
Q 37.3125 74.21875 42.625 73.28125 
Q 47.953125 72.359375 53.515625 70.515625 
z
" id="DejaVuSans-53"/>
      <path d="M 19.671875 64.796875 
L 19.671875 8.109375 
L 31.59375 8.109375 
Q 46.6875 8.109375 53.6875 14.9375 
Q 60.6875 21.78125 60.6875 36.53125 
Q 60.6875 51.171875 53.6875 57.984375 
Q 46.6875 64.796875 31.59375 64.796875 
z
M 9.8125 72.90625 
L 30.078125 72.90625 
Q 51.265625 72.90625 61.171875 64.09375 
Q 71.09375 55.28125 71.09375 36.53125 
Q 71.09375 17.671875 61.125 8.828125 
Q 51.171875 0 30.078125 0 
L 9.8125 0 
z
" id="DejaVuSans-44"/>
      <path d="M 56.40625 0 
L 31.90625 0 
L 31.90625 1.59375 
Q 36.40625 1.796875 38 3 
Q 39.59375 4.203125 39.59375 6.90625 
Q 39.59375 7.703125 39.40625 9.5 
L 37.40625 22.59375 
L 15.40625 22.59375 
L 9.5 11.5 
Q 7.296875 7.40625 7.296875 4.90625 
Q 7.296875 1.90625 13.5 1.59375 
L 13.5 0 
L -5.09375 0 
L -5.09375 1.59375 
Q -1.703125 2.296875 0.4375 4.796875 
Q 2.59375 7.296875 8.296875 17.203125 
L 36.796875 66.796875 
L 39.40625 66.796875 
L 48.59375 11.5 
Q 49.59375 5.296875 51 3.59375 
Q 52.40625 1.90625 56.40625 1.59375 
z
M 36.90625 26.203125 
L 32.40625 52.5 
L 17.5 26.203125 
z
M 44.59375 95.703125 
Q 50.5 89.796875 50.5 85.6875 
Q 50.5 81.59375 47.546875 78.6875 
Q 44.59375 75.796875 40.5 75.796875 
Q 36.203125 75.796875 33.34375 78.6875 
Q 30.5 81.59375 30.5 85.796875 
Q 30.5 89.796875 33.453125 92.75 
Q 36.40625 95.703125 40.40625 95.703125 
Q 44.59375 95.703125 50.5 89.796875 
z
M 43.296875 79.203125 
Q 47.09375 82.90625 47.09375 85.703125 
Q 47.09375 88.5 45.140625 90.390625 
Q 43.203125 92.296875 40.40625 92.296875 
Q 37.796875 92.296875 35.84375 90.34375 
Q 33.90625 88.40625 33.90625 85.796875 
Q 33.90625 83 35.75 81.09375 
Q 37.59375 79.203125 40.40625 79.203125 
Q 43.296875 79.203125 47.09375 82.90625 
z
" id="STIXGeneral-Italic-c5"/>
     </defs>
     <g transform="translate(123.966875 360.2908)rotate(-90)scale(0.16 -0.16)">
      <use transform="translate(0 0.296875)" xlink:href="#DejaVuSans-50"/>
      <use transform="translate(60.302734 0.296875)" xlink:href="#DejaVuSans-72"/>
      <use transform="translate(101.416016 0.296875)" xlink:href="#DejaVuSans-6f"/>
      <use transform="translate(162.597656 0.296875)" xlink:href="#DejaVuSans-74"/>
      <use transform="translate(201.806641 0.296875)" xlink:href="#DejaVuSans-65"/>
      <use transform="translate(263.330078 0.296875)" xlink:href="#DejaVuSans-69"/>
      <use transform="translate(291.113281 0.296875)" xlink:href="#DejaVuSans-6e"/>
      <use transform="translate(354.492188 0.296875)" xlink:href="#DejaVuSans-20"/>
      <use transform="translate(386.279297 0.296875)" xlink:href="#DejaVuSans-52"/>
      <use transform="translate(455.761719 0.296875)" xlink:href="#DejaVuSans-4d"/>
      <use transform="translate(542.041016 0.296875)" xlink:href="#DejaVuSans-53"/>
      <use transform="translate(605.517578 0.296875)" xlink:href="#DejaVuSans-44"/>
      <use transform="translate(682.519531 0.296875)" xlink:href="#DejaVuSans-20"/>
      <use transform="translate(714.306641 0.296875)" xlink:href="#DejaVuSans-28"/>
      <use transform="translate(753.320312 0.296875)" xlink:href="#STIXGeneral-Italic-c5"/>
      <use transform="translate(814.420303 0.296875)" xlink:href="#DejaVuSans-29"/>
     </g>
    </g>
   </g>
   <g id="line2d_16">
    <path clip-path="url(#pcc1a5c640e)" d="M 160.56 514.5624 
L 161.555472 324.71324 
L 162.550944 294.068297 
L 163.546416 269.963433 
L 164.541888 258.565009 
L 165.53736 272.953184 
L 166.532832 285.659623 
L 167.528304 246.419147 
L 168.523776 239.505349 
L 169.519248 281.174998 
L 170.51472 260.994181 
L 171.510192 257.070134 
L 172.505664 266.973683 
L 173.501136 255.575259 
L 175.49208 272.766324 
L 176.487552 260.433603 
L 177.483024 235.207583 
L 178.478496 192.977356 
L 179.473968 221.006268 
L 180.46944 232.217832 
L 181.464912 211.102719 
L 182.460384 208.673547 
L 183.455856 215.026767 
L 184.451328 233.152129 
L 185.4468 234.273286 
L 186.442272 245.48485 
L 187.437744 241.187084 
L 188.433216 243.242538 
L 189.428688 261.741619 
L 190.42416 245.858569 
L 191.419632 241.187084 
L 192.415104 232.96527 
L 193.410576 250.530054 
L 194.406048 258.004431 
L 195.40152 287.901936 
L 196.396992 272.205746 
L 197.392464 280.614419 
L 198.387936 266.786823 
L 199.383408 265.852526 
L 200.37888 283.60417 
L 201.374352 279.866982 
L 202.369824 254.640961 
L 203.365296 283.043592 
L 204.360768 271.645168 
L 205.35624 244.550553 
L 206.351712 267.90798 
L 207.347184 264.918229 
L 208.342656 250.156336 
L 209.338128 277.437809 
L 210.3336 262.862775 
L 211.329072 264.918229 
L 212.324544 239.505349 
L 214.315488 241.000225 
L 215.31096 239.13163 
L 216.306432 237.636755 
L 217.301904 253.706664 
L 218.297376 263.797073 
L 219.292848 270.524011 
L 220.28832 255.948977 
L 221.283792 264.918229 
L 222.279264 275.756075 
L 223.274736 288.088796 
L 224.270208 271.645168 
L 225.26568 280.614419 
L 226.261152 271.271449 
L 227.256624 275.756075 
L 228.252096 289.209952 
L 229.247568 253.893524 
L 230.24304 277.064091 
L 231.238512 231.470395 
L 232.233984 252.772367 
L 233.229456 208.299828 
L 234.224928 235.955021 
L 235.2204 205.870656 
L 236.215872 226.238331 
L 237.211344 155.044896 
L 238.206816 205.683796 
L 239.202288 227.733207 
L 240.19776 230.349238 
L 241.193232 209.981563 
L 242.188704 250.903773 
L 243.184176 213.531891 
L 244.179648 199.517436 
L 245.17512 174.291415 
L 246.170592 169.993649 
L 247.166064 206.244374 
L 248.161536 207.55239 
L 249.157008 177.654885 
L 250.15248 179.523479 
L 251.147952 214.09247 
L 252.143424 203.254624 
L 253.138896 249.222039 
L 254.134368 259.312447 
L 255.12984 245.111132 
L 256.125312 245.111132 
L 257.120784 259.686166 
L 258.116256 278.745825 
L 259.111728 225.864612 
L 260.1072 227.733207 
L 261.102672 203.441483 
L 262.098144 245.111132 
L 263.093616 215.026767 
L 264.089088 212.037016 
L 265.08456 241.187084 
L 266.080032 219.698252 
L 267.075504 218.577095 
L 268.070976 216.521642 
L 269.066448 226.985769 
L 270.06192 238.944771 
L 271.057392 218.950814 
L 272.052864 235.020723 
L 273.048336 210.91586 
L 274.043808 223.809159 
L 275.03928 225.117175 
L 276.034752 234.086426 
L 277.030224 225.304034 
L 278.025696 236.328739 
L 279.021168 237.636755 
L 280.01664 241.747662 
L 281.012112 242.30824 
L 282.007584 286.967639 
L 283.003056 270.89773 
L 283.998528 277.624669 
L 284.994 266.786823 
L 285.989472 281.361857 
L 287.980416 240.813365 
L 288.975888 255.762118 
L 289.97136 253.893524 
L 290.966832 257.443853 
L 291.962304 234.460145 
L 292.957776 225.864612 
L 293.953248 246.606007 
L 294.94872 224.556597 
L 295.944192 219.137674 
L 296.939664 263.423354 
L 297.935136 260.620463 
L 298.930608 242.30824 
L 299.92608 232.217832 
L 300.921552 251.651211 
L 301.917024 253.893524 
L 302.912496 226.425191 
L 303.907968 243.242538 
L 304.90344 271.271449 
L 305.898912 239.879068 
L 306.894384 237.449896 
L 307.889856 243.242538 
L 308.885328 232.217832 
L 309.8808 248.287742 
L 310.876272 247.914023 
L 311.871744 264.170791 
L 312.867216 267.534261 
L 313.862688 266.786823 
L 314.85816 275.382356 
L 315.853632 291.452265 
L 316.849104 274.261199 
L 317.844576 286.78078 
L 318.840048 240.252787 
L 319.83552 268.094839 
L 320.830992 230.909816 
L 321.826464 247.540304 
L 322.821936 219.137674 
L 323.817408 238.010474 
L 324.81288 241.747662 
L 325.808352 262.675916 
L 326.803824 279.119544 
L 327.799296 269.402855 
L 328.794768 238.944771 
L 329.79024 279.119544 
L 330.785712 248.474601 
L 331.781184 277.998388 
L 332.776656 275.942934 
L 333.772128 246.979726 
L 334.7676 260.807322 
L 335.763072 242.30824 
L 336.758544 282.856732 
L 337.754016 258.37815 
L 338.749488 257.630712 
L 339.74496 229.228082 
L 340.740432 252.772367 
L 341.735904 242.4951 
L 342.731376 243.429397 
L 343.726848 238.384193 
L 344.72232 246.232288 
L 345.717792 248.84832 
L 346.713264 234.460145 
L 347.708736 221.753705 
L 348.704208 218.203377 
L 349.69968 237.076177 
L 350.695152 214.653048 
L 351.690624 225.490894 
L 352.686096 249.035179 
L 353.681568 265.291948 
L 354.67704 245.67171 
L 355.672512 235.955021 
L 356.667984 232.778411 
L 357.663456 247.540304 
L 358.658928 293.320859 
L 359.6544 274.261199 
L 360.649872 263.423354 
L 361.645344 262.302197 
L 363.636288 279.493263 
L 364.63176 266.413104 
L 365.627232 296.31061 
L 366.622704 266.973683 
L 367.618176 303.784986 
L 368.613648 305.84044 
L 369.60912 278.372106 
L 370.604592 279.680122 
L 371.600064 288.275655 
L 372.595536 263.797073 
L 373.591008 229.78866 
L 374.58648 215.213626 
L 375.581952 248.66146 
L 376.577424 252.211789 
L 377.572896 256.696415 
L 378.568368 235.955021 
L 379.56384 255.388399 
L 381.554784 194.098513 
L 382.550256 221.753705 
L 383.545728 238.944771 
L 384.5412 245.111132 
L 385.536672 258.938728 
L 386.532144 297.431766 
L 387.527616 271.08459 
L 388.523088 284.538467 
L 389.51856 248.100882 
L 390.514032 242.121381 
L 391.509504 257.070134 
L 392.504976 251.464352 
L 393.500448 213.345032 
L 394.49592 246.979726 
L 395.491392 273.140043 
L 396.486864 242.4951 
L 397.482336 217.642798 
L 398.477808 256.322696 
L 399.47328 259.125587 
L 400.468752 259.686166 
L 401.464224 243.055678 
L 402.459696 266.973683 
L 403.455168 276.503512 
L 404.45064 275.008637 
L 405.446112 268.655417 
L 406.441584 300.234657 
L 407.437056 295.002594 
L 408.432528 280.053841 
L 409.428 290.891687 
L 410.423472 268.842277 
L 411.418944 286.967639 
L 412.414416 289.209952 
L 413.409888 263.983932 
L 414.40536 271.832027 
L 415.400832 275.942934 
L 416.396304 286.967639 
L 417.391776 275.756075 
L 418.387248 296.12375 
L 419.38272 288.275655 
L 420.378192 266.599964 
L 421.373664 269.776574 
L 422.369136 279.119544 
L 423.364608 278.558966 
L 424.36008 262.115338 
L 425.355552 249.035179 
L 426.351024 280.240701 
L 427.346496 303.784986 
L 428.341968 258.19129 
L 429.33744 290.517968 
L 430.332912 259.873025 
L 431.328384 252.02493 
L 432.323856 289.396812 
L 433.319328 292.760281 
L 434.3148 290.517968 
L 435.310272 269.029136 
L 436.305744 280.988138 
L 437.301216 265.665667 
L 438.296688 280.240701 
L 439.29216 255.948977 
L 440.287632 262.862775 
L 441.283104 243.989975 
L 442.278576 266.786823 
L 443.274048 260.620463 
L 444.26952 259.125587 
L 445.264992 267.347401 
L 446.260464 298.366063 
L 447.255936 268.842277 
L 448.251408 245.858569 
L 449.24688 265.105088 
L 450.242352 260.620463 
L 451.237824 243.429397 
L 452.233296 254.827821 
L 454.22424 213.718751 
L 455.219712 236.889318 
L 456.215184 239.692209 
L 457.210656 272.579465 
L 458.206128 255.388399 
L 459.2016 282.669873 
L 460.197072 238.384193 
L 461.192544 273.513762 
L 462.188016 263.423354 
L 463.183488 245.297991 
L 464.17896 248.287742 
L 465.174432 277.624669 
L 466.169904 244.176835 
L 467.165376 226.61205 
L 468.160848 263.610213 
L 469.15632 245.48485 
L 470.151792 235.394442 
L 471.147264 219.511393 
L 472.142736 241.560803 
L 473.138208 227.920066 
L 474.13368 199.891155 
L 475.129152 247.540304 
L 476.124624 237.076177 
L 477.120096 267.534261 
L 478.115568 251.277492 
L 479.11104 266.413104 
L 480.106512 255.20154 
L 481.101984 262.489057 
L 482.097456 264.918229 
L 483.092928 252.02493 
L 484.0884 246.419147 
L 485.083872 235.020723 
L 486.079344 259.499306 
L 487.074816 251.464352 
L 488.070288 254.454102 
L 489.06576 259.499306 
L 490.061232 228.293785 
L 491.056704 264.918229 
L 492.052176 246.792866 
L 493.047648 243.242538 
L 494.04312 247.727163 
L 495.038592 257.070134 
L 496.034064 242.4951 
L 497.029536 234.647005 
L 498.025008 269.589714 
L 499.02048 258.938728 
L 500.015952 239.31849 
L 501.011424 222.127424 
L 502.006896 258.751868 
L 503.002368 244.176835 
L 504.993312 258.751868 
L 505.988784 255.762118 
L 506.984256 252.398649 
L 507.979728 237.263036 
L 508.9752 255.948977 
L 509.970672 271.08459 
L 510.966144 268.094839 
L 511.961616 242.681959 
L 512.957088 268.468558 
L 513.95256 258.938728 
L 514.948032 235.955021 
L 515.943504 241.747662 
L 516.938976 238.757912 
L 517.934448 260.246744 
L 518.92992 248.66146 
L 519.925392 243.429397 
L 520.920864 256.135837 
L 521.916336 238.571052 
L 522.911808 231.844114 
L 523.90728 254.827821 
L 524.902752 256.322696 
L 525.898224 266.413104 
L 526.893696 263.049635 
L 527.889168 261.181041 
L 528.88464 236.515599 
L 529.880112 266.226245 
L 530.875584 230.162379 
L 531.871056 256.883274 
L 532.866528 215.213626 
L 533.862 180.644635 
L 534.857472 200.451733 
L 535.852944 203.067764 
L 536.848416 195.967107 
L 537.843888 191.669341 
L 538.83936 210.542141 
L 539.834832 209.607844 
L 540.830304 187.745293 
L 541.825776 204.936359 
L 542.821248 173.543978 
L 543.81672 195.593388 
L 544.812192 190.735043 
L 545.807664 175.412572 
L 546.803136 156.166053 
L 548.79408 202.507186 
L 549.789552 220.44569 
L 550.785024 205.496937 
L 551.780496 203.067764 
L 552.775968 239.692209 
L 553.77144 205.496937 
L 554.766912 205.683796 
L 555.762384 238.571052 
L 556.757856 184.194964 
L 557.753328 236.328739 
L 558.7488 200.825452 
L 559.744272 201.38603 
L 560.739744 210.168422 
L 561.735216 193.911653 
L 562.730688 193.537935 
L 563.72616 220.632549 
L 564.721632 198.20942 
L 565.717104 196.714545 
L 566.712576 199.891155 
L 567.708048 181.578932 
L 568.70352 224.556597 
L 569.698992 218.203377 
L 570.694464 214.466188 
L 571.689936 204.37578 
L 572.685408 210.91586 
L 573.68088 170.180508 
L 574.676352 218.390236 
L 575.671824 224.743456 
L 576.667296 182.32637 
L 577.662768 237.823615 
L 578.65824 221.566846 
L 579.653712 208.860406 
L 580.649184 212.410735 
L 581.644656 220.25883 
L 582.640128 187.745293 
L 583.6356 227.546347 
L 584.631072 223.996018 
L 585.626544 223.996018 
L 586.622016 215.026767 
L 587.617488 172.609681 
L 589.608432 218.390236 
L 590.603904 196.527685 
L 591.599376 193.911653 
L 592.594848 203.441483 
L 593.59032 217.829658 
L 594.585792 215.213626 
L 596.576736 189.987606 
L 597.572208 178.589182 
L 598.56768 154.858037 
L 599.563152 204.749499 
L 600.558624 194.472232 
L 601.554096 203.067764 
L 602.549568 226.425191 
L 603.54504 211.850157 
L 604.540512 214.466188 
L 605.535984 215.400486 
L 606.531456 225.864612 
L 607.526928 220.44569 
L 608.5224 199.891155 
L 609.517872 189.240168 
L 610.513344 205.496937 
L 611.508816 187.558433 
L 612.504288 186.624136 
L 613.49976 221.006268 
L 614.495232 203.628343 
L 615.490704 196.153966 
L 616.486176 226.985769 
L 617.481648 212.037016 
L 619.472592 192.603638 
L 620.468064 214.279329 
L 621.463536 197.275123 
L 622.459008 206.244374 
L 623.45448 197.275123 
L 624.449952 176.907447 
L 625.445424 196.714545 
L 626.440896 189.053309 
L 627.436368 185.129261 
L 628.43184 186.624136 
L 629.427312 175.038853 
L 630.422784 187.184715 
L 631.418256 192.790497 
L 632.413728 190.921903 
L 633.4092 214.653048 
L 634.404672 182.32637 
L 635.400144 193.351075 
L 636.395616 189.240168 
L 637.391088 182.32637 
L 639.382032 164.948445 
L 640.377504 164.761586 
L 641.372976 160.650679 
L 642.368448 196.153966 
L 643.36392 189.240168 
L 644.359392 202.880905 
L 645.354864 164.948445 
L 646.350336 202.507186 
L 647.345808 182.700089 
L 648.34128 193.351075 
L 649.336752 190.735043 
L 650.332224 208.112969 
L 651.327696 207.55239 
L 652.323168 231.470395 
L 653.31864 225.304034 
L 654.314112 202.507186 
L 655.309584 208.860406 
L 656.305056 206.431234 
L 657.300528 192.043059 
L 658.296 179.336619 
L 659.291472 145.888785 
L 660.286944 193.351075 
L 661.282416 210.168422 
L 662.277888 200.451733 
L 663.27336 175.97315 
L 664.268832 177.841744 
L 665.264304 164.014148 
L 666.259776 213.531891 
L 667.255248 200.078014 
L 668.25072 224.369737 
L 669.246192 197.835701 
L 670.241664 178.028604 
L 672.232608 207.73925 
L 673.22808 241.560803 
L 674.223552 192.790497 
L 675.219024 207.365531 
L 676.214496 214.466188 
L 677.209968 203.628343 
L 678.20544 203.067764 
L 679.200912 202.880905 
L 680.196384 203.067764 
L 681.191856 206.991812 
L 682.187328 236.515599 
L 684.178272 193.351075 
L 685.173744 219.885111 
L 686.169216 205.870656 
L 687.164688 204.37578 
L 688.16016 176.907447 
L 689.155632 176.533728 
L 690.151104 233.152129 
L 691.146576 169.433071 
L 692.142048 169.61993 
L 693.13752 211.663297 
L 694.132992 197.088263 
L 695.128464 213.345032 
L 696.123936 223.248581 
L 697.119408 222.874862 
L 698.11488 202.880905 
L 699.110352 191.108762 
L 700.105824 206.804953 
L 701.101296 218.763955 
L 702.096768 188.67959 
L 703.09224 224.743456 
L 704.087712 237.449896 
L 705.083184 193.164216 
L 706.078656 204.749499 
L 707.074128 205.310077 
L 708.0696 219.137674 
L 709.065072 197.461982 
L 710.060544 218.390236 
L 711.056016 194.285372 
L 712.051488 224.556597 
L 713.04696 201.19917 
L 714.042432 207.926109 
L 715.037904 239.505349 
L 716.033376 223.809159 
L 717.028848 183.073808 
L 718.02432 174.478275 
L 719.019792 207.926109 
L 720.015264 195.593388 
L 721.010736 215.774204 
L 722.006208 206.618093 
L 723.00168 206.991812 
L 723.997152 213.90561 
L 724.992624 213.90561 
L 725.988096 181.392073 
L 726.983568 169.61993 
L 727.97904 204.37578 
L 728.974512 209.234125 
L 729.969984 215.961064 
L 730.965456 208.486687 
L 731.960928 224.182878 
L 732.9564 198.583139 
L 733.951872 203.628343 
L 734.947344 212.597594 
L 735.942816 209.981563 
L 736.938288 206.057515 
L 737.93376 148.317958 
L 738.929232 164.387867 
L 739.924704 177.468025 
L 740.920176 169.433071 
L 741.915648 169.246211 
L 742.91112 166.069601 
L 743.906592 170.367368 
L 744.902064 156.726631 
L 745.897536 189.427028 
L 746.893008 189.613887 
L 747.88848 172.049103 
L 748.883952 172.79654 
L 749.879424 179.897198 
L 750.874896 182.700089 
L 751.870368 184.194964 
L 752.86584 188.67959 
L 753.861312 169.433071 
L 754.856784 166.63018 
L 755.852256 165.882742 
L 756.847728 172.79654 
L 757.8432 163.45357 
L 758.838672 180.831495 
L 759.834144 160.837538 
L 760.829616 185.876699 
L 761.825088 158.221506 
L 762.82056 200.638592 
L 763.816032 238.197333 
L 764.811504 206.057515 
L 765.806976 189.053309 
L 766.802448 189.427028 
L 767.79792 185.50298 
L 768.793392 217.455939 
L 769.788864 208.112969 
L 770.784336 218.203377 
L 771.779808 220.632549 
L 772.77528 191.482481 
L 773.770752 223.809159 
L 774.766224 179.523479 
L 775.761696 188.492731 
L 776.757168 220.44569 
L 777.75264 211.476438 
L 778.748112 206.991812 
L 779.743584 192.790497 
L 780.739056 166.63018 
L 782.73 196.714545 
L 783.725472 205.310077 
L 784.720944 192.416778 
L 785.716416 182.700089 
L 786.711888 186.997855 
L 787.70736 188.67959 
L 788.702832 169.059352 
L 789.698304 147.009942 
L 790.693776 191.295622 
L 791.689248 174.851994 
L 792.68472 189.240168 
L 793.680192 187.371574 
L 794.675664 201.572889 
L 795.671136 168.311914 
L 796.666608 186.810996 
L 797.66208 184.942402 
L 798.657552 182.139511 
L 799.653024 175.599431 
L 801.643968 139.348706 
L 802.63944 178.962901 
L 803.634912 163.45357 
L 804.630384 158.968944 
L 805.625856 170.554227 
L 806.621328 173.170259 
L 807.6168 168.872493 
L 808.612272 155.231756 
L 809.607744 197.088263 
L 810.603216 195.03281 
L 811.598688 205.123218 
L 812.59416 194.285372 
L 814.585104 150.933989 
L 815.580576 164.761586 
L 816.576048 170.367368 
L 817.57152 155.044896 
L 818.566992 170.180508 
L 819.562464 162.332413 
L 820.557936 133.929783 
L 821.553408 141.964738 
L 822.54888 170.927946 
L 823.544352 190.548184 
L 824.539824 190.548184 
L 825.535296 194.098513 
L 826.530768 184.568683 
L 827.52624 183.260667 
L 828.521712 175.786291 
L 829.517184 160.650679 
L 830.512656 175.225712 
L 831.508128 144.207051 
L 832.5036 121.597062 
L 833.499072 111.506654 
L 834.494544 118.233593 
L 835.490016 104.966575 
L 836.485488 120.289046 
L 837.48096 138.601268 
L 838.476432 117.112436 
L 839.471904 142.525316 
L 840.467376 132.621767 
L 841.462848 116.364999 
L 842.45832 138.04069 
L 843.453792 108.703763 
L 844.449264 153.550021 
L 845.444736 144.580769 
L 846.440208 139.909284 
L 847.43568 130.005735 
L 848.431152 92.446994 
L 849.426624 106.27459 
L 850.422096 109.077482 
L 851.417568 120.102187 
L 852.41304 95.436745 
L 853.408512 107.582606 
L 854.403984 96.371042 
L 855.399456 122.718218 
L 856.394928 129.258298 
L 857.3904 130.753173 
L 859.381344 113.935826 
L 860.376816 124.586813 
L 861.372288 121.036484 
L 862.36776 116.364999 
L 863.363232 116.738717 
L 864.358704 116.178139 
L 865.354176 134.303502 
L 866.349648 117.486155 
L 867.34512 123.839375 
L 868.340592 137.480112 
L 869.336064 145.888785 
L 870.331536 113.375248 
L 871.327008 128.51086 
L 872.32248 131.68747 
L 873.317952 140.469862 
L 874.313424 150.74713 
L 875.308896 130.379454 
L 876.304368 136.358955 
L 877.29984 112.81467 
L 878.295312 145.515066 
L 879.290784 118.607311 
L 880.286256 121.597062 
L 881.281728 109.264341 
L 882.2772 121.597062 
L 883.272672 120.849624 
L 884.268144 100.668808 
L 885.263616 113.562107 
L 886.259088 114.309545 
L 887.25456 114.309545 
L 888.250032 155.418615 
L 889.245504 132.061189 
L 890.240976 125.52111 
L 891.236448 132.995486 
L 892.23192 150.373411 
L 893.227392 123.465656 
L 894.222864 102.911121 
L 895.218336 113.748967 
L 896.213808 90.5784 
L 897.20928 113.001529 
L 898.204752 141.404159 
L 899.200224 175.97315 
L 900.195696 138.414409 
L 901.191168 139.909284 
L 902.18664 124.586813 
L 903.182112 141.404159 
L 904.177584 135.798377 
L 905.173056 120.102187 
L 906.168528 137.480112 
L 907.164 128.324001 
L 908.159472 146.636223 
L 909.154944 147.009942 
L 910.150416 134.86408 
L 911.145888 117.112436 
L 912.14136 132.621767 
L 913.136832 128.137141 
L 914.132304 157.474069 
L 915.127776 155.418615 
L 916.123248 135.985236 
L 917.11872 142.899035 
L 918.114192 145.328207 
L 919.109664 137.480112 
L 921.100608 155.044896 
L 922.09608 143.085894 
L 923.091552 132.621767 
L 924.087024 159.903241 
L 925.082496 127.950282 
L 926.077968 142.712175 
L 927.07344 140.469862 
L 928.068912 165.882742 
L 929.064384 152.989443 
L 930.059856 129.258298 
L 931.055328 131.500611 
L 932.0508 158.221506 
L 933.046272 157.10035 
L 934.041744 156.726631 
L 935.037216 160.837538 
L 936.032688 166.817039 
L 937.02816 169.433071 
L 938.023632 163.827288 
L 939.019104 167.377617 
L 940.014576 158.595225 
L 941.010048 164.201007 
L 942.00552 162.145554 
L 943.000992 163.45357 
L 943.996464 147.38366 
L 944.991936 149.812833 
L 945.987408 146.449363 
L 946.98288 169.80679 
L 947.978352 168.872493 
L 948.973824 169.246211 
L 949.969296 154.858037 
L 950.964768 164.387867 
L 951.96024 123.839375 
L 952.955712 150.74713 
L 953.951184 172.049103 
L 954.946656 121.223343 
L 955.942128 154.110599 
L 956.9376 144.954488 
L 957.933072 131.313751 
L 958.928544 128.137141 
L 959.924016 128.69772 
L 960.919488 149.439114 
L 961.91496 160.27696 
L 962.910432 163.827288 
L 963.905904 149.812833 
L 964.901376 164.201007 
L 965.896848 144.207051 
L 966.89232 135.237799 
L 967.887792 175.599431 
L 968.883264 167.564477 
L 969.878736 158.595225 
L 970.874208 133.742924 
L 971.86968 145.328207 
L 972.865152 164.387867 
L 973.860624 163.640429 
L 974.856096 133.929783 
L 975.851568 172.9834 
L 976.84704 155.605474 
L 977.842512 166.44332 
L 978.837984 154.671177 
L 979.833456 161.771835 
L 980.828928 131.68747 
L 981.8244 176.907447 
L 982.819872 167.564477 
L 983.815344 154.484318 
L 984.810816 151.681427 
L 985.806288 160.27696 
L 986.80176 159.155803 
L 987.797232 147.944239 
L 988.792704 144.207051 
L 989.788176 151.681427 
L 990.783648 178.028604 
L 991.77912 175.225712 
L 992.774592 169.059352 
L 993.770064 152.989443 
L 994.765536 150.74713 
L 995.761008 149.625973 
L 996.75648 158.595225 
L 997.751952 149.439114 
L 998.747424 160.650679 
L 999.742896 145.701926 
L 1000.738368 149.065395 
L 1001.73384 154.297459 
L 1002.729312 157.847787 
L 1003.724784 134.116642 
L 1004.720256 113.748967 
L 1005.715728 130.379454 
L 1006.7112 117.486155 
L 1007.706672 170.180508 
L 1008.702144 168.685633 
L 1009.697616 180.270917 
L 1010.693088 180.457776 
L 1011.68856 143.833332 
L 1012.684032 132.248048 
L 1013.679504 185.316121 
L 1014.674976 151.494567 
L 1015.670448 169.993649 
L 1016.66592 176.346869 
L 1017.661392 188.866449 
L 1018.656864 156.352912 
L 1019.652336 149.065395 
L 1020.647808 148.691676 
L 1021.64328 187.184715 
L 1022.638752 165.882742 
L 1023.634224 169.80679 
L 1024.629696 140.096143 
L 1025.625168 147.944239 
L 1026.62064 149.812833 
L 1027.616112 167.190758 
L 1028.611584 165.322164 
L 1029.607056 161.771835 
L 1030.602528 176.720588 
L 1031.598 179.897198 
L 1032.593472 160.27696 
L 1033.588944 167.190758 
L 1034.584416 178.589182 
L 1035.579888 167.003898 
L 1036.57536 167.190758 
L 1037.570832 179.710338 
L 1038.566304 200.451733 
L 1039.561776 178.776041 
L 1040.557248 189.053309 
L 1041.55272 209.047266 
L 1043.543664 140.656722 
L 1044.539136 167.751336 
L 1045.534608 189.427028 
L 1046.53008 184.194964 
L 1047.525552 167.564477 
L 1048.521024 165.322164 
L 1049.516496 178.028604 
L 1050.511968 165.322164 
L 1051.50744 187.745293 
L 1052.502912 159.529522 
L 1053.498384 186.063558 
L 1054.493856 157.847787 
L 1055.489328 170.927946 
L 1056.4848 166.256461 
L 1057.480272 164.014148 
L 1058.475744 162.519273 
L 1059.471216 178.776041 
L 1060.466688 184.568683 
L 1061.46216 169.433071 
L 1062.457632 189.613887 
L 1063.453104 207.178671 
L 1064.448576 202.507186 
L 1065.444048 196.527685 
L 1066.43952 173.170259 
L 1067.434992 187.558433 
L 1068.430464 182.513229 
L 1069.425936 163.26671 
L 1070.421408 207.73925 
L 1071.41688 195.03281 
L 1072.412352 197.461982 
L 1073.407824 169.433071 
L 1074.403296 199.704295 
L 1075.398768 204.56264 
L 1076.39424 198.02256 
L 1077.389712 204.56264 
L 1078.385184 209.047266 
L 1079.380656 221.940565 
L 1080.376128 209.794703 
L 1081.3716 201.19917 
L 1082.367072 204.56264 
L 1083.362544 193.164216 
L 1084.358016 187.932152 
L 1085.353488 194.285372 
L 1086.34896 176.346869 
L 1087.344432 176.720588 
L 1088.339904 215.961064 
L 1089.335376 175.97315 
L 1090.330848 174.851994 
L 1091.32632 203.628343 
L 1092.321792 196.714545 
L 1093.317264 192.977356 
L 1094.312736 173.917697 
L 1095.308208 142.899035 
L 1096.30368 201.759749 
L 1097.299152 184.381824 
L 1098.294624 180.084057 
L 1099.290096 172.235962 
L 1100.285568 178.776041 
L 1101.28104 179.336619 
L 1102.276512 177.654885 
L 1103.271984 181.952651 
L 1104.267456 171.675384 
L 1105.262928 171.301665 
L 1106.2584 180.644635 
L 1107.253872 187.932152 
L 1108.249344 156.539772 
L 1109.244816 186.997855 
L 1110.240288 190.921903 
L 1111.23576 190.174465 
L 1112.231232 193.724794 
L 1113.226704 192.043059 
L 1114.222176 176.907447 
L 1115.217648 192.977356 
L 1116.21312 200.451733 
L 1117.208592 182.513229 
L 1118.204064 193.351075 
L 1119.199536 175.038853 
L 1120.195008 172.422821 
L 1121.19048 170.554227 
L 1122.185952 176.533728 
L 1123.181424 183.447526 
L 1124.176896 169.433071 
L 1125.172368 161.211257 
L 1126.16784 192.977356 
L 1127.163312 153.550021 
L 1128.158784 156.539772 
L 1129.154256 176.720588 
L 1130.149728 120.475906 
L 1131.1452 188.119012 
L 1132.140672 176.346869 
L 1133.136144 182.139511 
L 1134.131616 182.513229 
L 1135.127088 205.683796 
L 1136.12256 197.461982 
L 1137.118032 172.422821 
L 1138.113504 190.174465 
L 1139.108976 169.433071 
L 1140.104448 176.907447 
L 1141.09992 187.371574 
L 1142.095392 191.295622 
L 1143.090864 173.917697 
L 1144.086336 203.441483 
L 1145.081808 179.710338 
L 1146.07728 181.018354 
L 1147.072752 189.987606 
L 1148.068224 201.946608 
L 1149.063696 193.911653 
L 1150.059168 182.886948 
L 1151.05464 194.472232 
L 1152.050112 189.053309 
L 1153.045584 191.108762 
L 1154.041056 194.659091 
L 1155.036528 210.542141 
L 1156.032 196.340826 
L 1156.032 196.340826 
" style="fill:none;stroke:#4a738c;stroke-linecap:square;stroke-opacity:0.9;stroke-width:1.5;"/>
   </g>
   <g id="patch_3">
    <path d="M 160.56 514.5624 
L 160.56 69.3792 
" style="fill:none;stroke:#000000;stroke-linecap:square;stroke-linejoin:miter;stroke-width:0.8;"/>
   </g>
   <g id="patch_4">
    <path d="M 1156.032 514.5624 
L 1156.032 69.3792 
" style="fill:none;stroke:#000000;stroke-linecap:square;stroke-linejoin:miter;stroke-width:0.8;"/>
   </g>
   <g id="patch_5">
    <path d="M 160.56 514.5624 
L 1156.032 514.5624 
" style="fill:none;stroke:#000000;stroke-linecap:square;stroke-linejoin:miter;stroke-width:0.8;"/>
   </g>
   <g id="patch_6">
    <path d="M 160.56 69.3792 
L 1156.032 69.3792 
" style="fill:none;stroke:#000000;stroke-linecap:square;stroke-linejoin:miter;stroke-width:0.8;"/>
   </g>
   <g id="legend_1">
    <g id="patch_7">
     <path d="M 600.403031 44.610255 
L 716.188969 44.610255 
Q 718.188969 44.610255 718.188969 42.610255 
L 718.188969 32.93213 
Q 718.188969 30.93213 716.188969 30.93213 
L 600.403031 30.93213 
Q 598.403031 30.93213 598.403031 32.93213 
L 598.403031 42.610255 
Q 598.403031 44.610255 600.403031 44.610255 
z
" style="fill:#ffffff;opacity:0.8;stroke:#cccccc;stroke-linejoin:miter;"/>
    </g>
    <g id="line2d_17">
     <path d="M 600.403031 37.030568 
L 610.403031 37.030568 
" style="fill:none;stroke:#4a738c;stroke-linecap:square;stroke-opacity:0.9;stroke-width:8;"/>
    </g>
    <g id="line2d_18"/>
    <g id="text_18">
     <!-- C$\alpha$ -->
     <defs>
      <path d="M 64.40625 67.28125 
L 64.40625 56.890625 
Q 59.421875 61.53125 53.78125 63.8125 
Q 48.140625 66.109375 41.796875 66.109375 
Q 29.296875 66.109375 22.65625 58.46875 
Q 16.015625 50.828125 16.015625 36.375 
Q 16.015625 21.96875 22.65625 14.328125 
Q 29.296875 6.6875 41.796875 6.6875 
Q 48.140625 6.6875 53.78125 8.984375 
Q 59.421875 11.28125 64.40625 15.921875 
L 64.40625 5.609375 
Q 59.234375 2.09375 53.4375 0.328125 
Q 47.65625 -1.421875 41.21875 -1.421875 
Q 24.65625 -1.421875 15.125 8.703125 
Q 5.609375 18.84375 5.609375 36.375 
Q 5.609375 53.953125 15.125 64.078125 
Q 24.65625 74.21875 41.21875 74.21875 
Q 47.75 74.21875 53.53125 72.484375 
Q 59.328125 70.75 64.40625 67.28125 
z
" id="DejaVuSans-43"/>
      <path d="M 61.59375 45.296875 
L 45.59375 22.296875 
Q 45.796875 12.203125 46.59375 8.90625 
Q 47.203125 6.09375 51.09375 6.09375 
L 50.703125 4.59375 
L 46.703125 -1 
Q 41.40625 -1 39.5 1.640625 
Q 37.59375 4.296875 37.203125 9.296875 
Q 29.40625 -1 18.5 -1 
Q 12.09375 -1 8.390625 3.34375 
Q 4.703125 7.703125 4.703125 15 
Q 4.703125 26.703125 12.5 36.5 
Q 20.296875 46.296875 30.40625 46.296875 
Q 42.796875 46.296875 45 34 
L 53 45.296875 
z
M 37.59375 26.796875 
Q 37.59375 32.703125 34.9375 35.953125 
Q 32.296875 39.203125 28.296875 39.203125 
Q 23.09375 39.203125 17.890625 32.953125 
Q 12.703125 26.703125 12.703125 16.59375 
Q 12.703125 11.703125 14.890625 8.890625 
Q 17.09375 6.09375 20.59375 6.09375 
Q 24.796875 6.09375 29.34375 10.1875 
Q 33.90625 14.296875 37.203125 22.40625 
Q 37.59375 24.5 37.59375 26.796875 
z
" id="STIXNonUnicode-Italic-e1d8"/>
     </defs>
     <g transform="translate(612.403031 40.530568)scale(0.1 -0.1)">
      <use transform="translate(0 0.78125)" xlink:href="#DejaVuSans-43"/>
      <use transform="translate(69.824219 0.78125)" xlink:href="#STIXNonUnicode-Italic-e1d8"/>
     </g>
    </g>
    <g id="line2d_19">
     <path d="M 629.303031 37.030568 
L 639.303031 37.030568 
" style="fill:none;stroke:#a22c51;stroke-linecap:square;stroke-opacity:0.9;stroke-width:8;"/>
    </g>
    <g id="line2d_20"/>
    <g id="text_19">
     <!-- (Lig) fit on Prot -->
     <defs>
      <path d="M 9.8125 72.90625 
L 19.671875 72.90625 
L 19.671875 8.296875 
L 55.171875 8.296875 
L 55.171875 0 
L 9.8125 0 
z
" id="DejaVuSans-4c"/>
      <path d="M 45.40625 27.984375 
Q 45.40625 37.75 41.375 43.109375 
Q 37.359375 48.484375 30.078125 48.484375 
Q 22.859375 48.484375 18.828125 43.109375 
Q 14.796875 37.75 14.796875 27.984375 
Q 14.796875 18.265625 18.828125 12.890625 
Q 22.859375 7.515625 30.078125 7.515625 
Q 37.359375 7.515625 41.375 12.890625 
Q 45.40625 18.265625 45.40625 27.984375 
z
M 54.390625 6.78125 
Q 54.390625 -7.171875 48.1875 -13.984375 
Q 42 -20.796875 29.203125 -20.796875 
Q 24.46875 -20.796875 20.265625 -20.09375 
Q 16.0625 -19.390625 12.109375 -17.921875 
L 12.109375 -9.1875 
Q 16.0625 -11.328125 19.921875 -12.34375 
Q 23.78125 -13.375 27.78125 -13.375 
Q 36.625 -13.375 41.015625 -8.765625 
Q 45.40625 -4.15625 45.40625 5.171875 
L 45.40625 9.625 
Q 42.625 4.78125 38.28125 2.390625 
Q 33.9375 0 27.875 0 
Q 17.828125 0 11.671875 7.65625 
Q 5.515625 15.328125 5.515625 27.984375 
Q 5.515625 40.671875 11.671875 48.328125 
Q 17.828125 56 27.875 56 
Q 33.9375 56 38.28125 53.609375 
Q 42.625 51.21875 45.40625 46.390625 
L 45.40625 54.6875 
L 54.390625 54.6875 
z
" id="DejaVuSans-67"/>
      <path d="M 37.109375 75.984375 
L 37.109375 68.5 
L 28.515625 68.5 
Q 23.6875 68.5 21.796875 66.546875 
Q 19.921875 64.59375 19.921875 59.515625 
L 19.921875 54.6875 
L 34.71875 54.6875 
L 34.71875 47.703125 
L 19.921875 47.703125 
L 19.921875 0 
L 10.890625 0 
L 10.890625 47.703125 
L 2.296875 47.703125 
L 2.296875 54.6875 
L 10.890625 54.6875 
L 10.890625 58.5 
Q 10.890625 67.625 15.140625 71.796875 
Q 19.390625 75.984375 28.609375 75.984375 
z
" id="DejaVuSans-66"/>
     </defs>
     <g transform="translate(641.303031 40.530568)scale(0.1 -0.1)">
      <use xlink:href="#DejaVuSans-28"/>
      <use x="39.013672" xlink:href="#DejaVuSans-4c"/>
      <use x="94.726562" xlink:href="#DejaVuSans-69"/>
      <use x="122.509766" xlink:href="#DejaVuSans-67"/>
      <use x="185.986328" xlink:href="#DejaVuSans-29"/>
      <use x="225" xlink:href="#DejaVuSans-20"/>
      <use x="256.787109" xlink:href="#DejaVuSans-66"/>
      <use x="291.992188" xlink:href="#DejaVuSans-69"/>
      <use x="319.775391" xlink:href="#DejaVuSans-74"/>
      <use x="358.984375" xlink:href="#DejaVuSans-20"/>
      <use x="390.771484" xlink:href="#DejaVuSans-6f"/>
      <use x="451.953125" xlink:href="#DejaVuSans-6e"/>
      <use x="515.332031" xlink:href="#DejaVuSans-20"/>
      <use x="547.119141" xlink:href="#DejaVuSans-50"/>
      <use x="607.40625" xlink:href="#DejaVuSans-72"/>
      <use x="648.488281" xlink:href="#DejaVuSans-6f"/>
      <use x="709.669922" xlink:href="#DejaVuSans-74"/>
     </g>
    </g>
   </g>
  </g>
  <g id="axes_2">
   <g id="matplotlib.axis_3">
    <g id="ytick_10">
     <g id="line2d_21">
      <defs>
       <path d="M 0 0 
L 3.5 0 
" id="m5892b4bf64" style="stroke:#000000;stroke-width:0.8;"/>
      </defs>
      <g>
       <use style="stroke:#000000;stroke-width:0.8;" x="1156.032" xlink:href="#m5892b4bf64" y="466.08862"/>
      </g>
     </g>
     <g id="text_20">
      <!-- 0.6 -->
      <g style="fill:#a22c51;" transform="translate(1163.032 469.887838)scale(0.1 -0.1)">
       <use xlink:href="#DejaVuSans-30"/>
       <use x="63.623047" xlink:href="#DejaVuSans-2e"/>
       <use x="95.410156" xlink:href="#DejaVuSans-36"/>
      </g>
     </g>
    </g>
    <g id="ytick_11">
     <g id="line2d_22">
      <g>
       <use style="stroke:#000000;stroke-width:0.8;" x="1156.032" xlink:href="#m5892b4bf64" y="417.614839"/>
      </g>
     </g>
     <g id="text_21">
      <!-- 1.2 -->
      <g style="fill:#a22c51;" transform="translate(1163.032 421.414058)scale(0.1 -0.1)">
       <use xlink:href="#DejaVuSans-31"/>
       <use x="63.623047" xlink:href="#DejaVuSans-2e"/>
       <use x="95.410156" xlink:href="#DejaVuSans-32"/>
      </g>
     </g>
    </g>
    <g id="ytick_12">
     <g id="line2d_23">
      <g>
       <use style="stroke:#000000;stroke-width:0.8;" x="1156.032" xlink:href="#m5892b4bf64" y="369.141059"/>
      </g>
     </g>
     <g id="text_22">
      <!-- 1.8 -->
      <g style="fill:#a22c51;" transform="translate(1163.032 372.940277)scale(0.1 -0.1)">
       <use xlink:href="#DejaVuSans-31"/>
       <use x="63.623047" xlink:href="#DejaVuSans-2e"/>
       <use x="95.410156" xlink:href="#DejaVuSans-38"/>
      </g>
     </g>
    </g>
    <g id="ytick_13">
     <g id="line2d_24">
      <g>
       <use style="stroke:#000000;stroke-width:0.8;" x="1156.032" xlink:href="#m5892b4bf64" y="320.667278"/>
      </g>
     </g>
     <g id="text_23">
      <!-- 2.4 -->
      <g style="fill:#a22c51;" transform="translate(1163.032 324.466497)scale(0.1 -0.1)">
       <use xlink:href="#DejaVuSans-32"/>
       <use x="63.623047" xlink:href="#DejaVuSans-2e"/>
       <use x="95.410156" xlink:href="#DejaVuSans-34"/>
      </g>
     </g>
    </g>
    <g id="ytick_14">
     <g id="line2d_25">
      <g>
       <use style="stroke:#000000;stroke-width:0.8;" x="1156.032" xlink:href="#m5892b4bf64" y="272.193498"/>
      </g>
     </g>
     <g id="text_24">
      <!-- 3.0 -->
      <defs>
       <path d="M 40.578125 39.3125 
Q 47.65625 37.796875 51.625 33 
Q 55.609375 28.21875 55.609375 21.1875 
Q 55.609375 10.40625 48.1875 4.484375 
Q 40.765625 -1.421875 27.09375 -1.421875 
Q 22.515625 -1.421875 17.65625 -0.515625 
Q 12.796875 0.390625 7.625 2.203125 
L 7.625 11.71875 
Q 11.71875 9.328125 16.59375 8.109375 
Q 21.484375 6.890625 26.8125 6.890625 
Q 36.078125 6.890625 40.9375 10.546875 
Q 45.796875 14.203125 45.796875 21.1875 
Q 45.796875 27.640625 41.28125 31.265625 
Q 36.765625 34.90625 28.71875 34.90625 
L 20.21875 34.90625 
L 20.21875 43.015625 
L 29.109375 43.015625 
Q 36.375 43.015625 40.234375 45.921875 
Q 44.09375 48.828125 44.09375 54.296875 
Q 44.09375 59.90625 40.109375 62.90625 
Q 36.140625 65.921875 28.71875 65.921875 
Q 24.65625 65.921875 20.015625 65.03125 
Q 15.375 64.15625 9.8125 62.3125 
L 9.8125 71.09375 
Q 15.4375 72.65625 20.34375 73.4375 
Q 25.25 74.21875 29.59375 74.21875 
Q 40.828125 74.21875 47.359375 69.109375 
Q 53.90625 64.015625 53.90625 55.328125 
Q 53.90625 49.265625 50.4375 45.09375 
Q 46.96875 40.921875 40.578125 39.3125 
z
" id="DejaVuSans-33"/>
      </defs>
      <g style="fill:#a22c51;" transform="translate(1163.032 275.992716)scale(0.1 -0.1)">
       <use xlink:href="#DejaVuSans-33"/>
       <use x="63.623047" xlink:href="#DejaVuSans-2e"/>
       <use x="95.410156" xlink:href="#DejaVuSans-30"/>
      </g>
     </g>
    </g>
    <g id="ytick_15">
     <g id="line2d_26">
      <g>
       <use style="stroke:#000000;stroke-width:0.8;" x="1156.032" xlink:href="#m5892b4bf64" y="223.719717"/>
      </g>
     </g>
     <g id="text_25">
      <!-- 3.6 -->
      <g style="fill:#a22c51;" transform="translate(1163.032 227.518936)scale(0.1 -0.1)">
       <use xlink:href="#DejaVuSans-33"/>
       <use x="63.623047" xlink:href="#DejaVuSans-2e"/>
       <use x="95.410156" xlink:href="#DejaVuSans-36"/>
      </g>
     </g>
    </g>
    <g id="ytick_16">
     <g id="line2d_27">
      <g>
       <use style="stroke:#000000;stroke-width:0.8;" x="1156.032" xlink:href="#m5892b4bf64" y="175.245937"/>
      </g>
     </g>
     <g id="text_26">
      <!-- 4.2 -->
      <g style="fill:#a22c51;" transform="translate(1163.032 179.045155)scale(0.1 -0.1)">
       <use xlink:href="#DejaVuSans-34"/>
       <use x="63.623047" xlink:href="#DejaVuSans-2e"/>
       <use x="95.410156" xlink:href="#DejaVuSans-32"/>
      </g>
     </g>
    </g>
    <g id="ytick_17">
     <g id="line2d_28">
      <g>
       <use style="stroke:#000000;stroke-width:0.8;" x="1156.032" xlink:href="#m5892b4bf64" y="126.772156"/>
      </g>
     </g>
     <g id="text_27">
      <!-- 4.8 -->
      <g style="fill:#a22c51;" transform="translate(1163.032 130.571375)scale(0.1 -0.1)">
       <use xlink:href="#DejaVuSans-34"/>
       <use x="63.623047" xlink:href="#DejaVuSans-2e"/>
       <use x="95.410156" xlink:href="#DejaVuSans-38"/>
      </g>
     </g>
    </g>
    <g id="ytick_18">
     <g id="line2d_29">
      <g>
       <use style="stroke:#000000;stroke-width:0.8;" x="1156.032" xlink:href="#m5892b4bf64" y="78.298376"/>
      </g>
     </g>
     <g id="text_28">
      <!-- 5.4 -->
      <g style="fill:#a22c51;" transform="translate(1163.032 82.097594)scale(0.1 -0.1)">
       <use xlink:href="#DejaVuSans-35"/>
       <use x="63.623047" xlink:href="#DejaVuSans-2e"/>
       <use x="95.410156" xlink:href="#DejaVuSans-34"/>
      </g>
     </g>
    </g>
    <g id="text_29">
     <!-- Ligand RMSD ($\AA$) -->
     <defs>
      <path d="M 34.28125 27.484375 
Q 23.390625 27.484375 19.1875 25 
Q 14.984375 22.515625 14.984375 16.5 
Q 14.984375 11.71875 18.140625 8.90625 
Q 21.296875 6.109375 26.703125 6.109375 
Q 34.1875 6.109375 38.703125 11.40625 
Q 43.21875 16.703125 43.21875 25.484375 
L 43.21875 27.484375 
z
M 52.203125 31.203125 
L 52.203125 0 
L 43.21875 0 
L 43.21875 8.296875 
Q 40.140625 3.328125 35.546875 0.953125 
Q 30.953125 -1.421875 24.3125 -1.421875 
Q 15.921875 -1.421875 10.953125 3.296875 
Q 6 8.015625 6 15.921875 
Q 6 25.140625 12.171875 29.828125 
Q 18.359375 34.515625 30.609375 34.515625 
L 43.21875 34.515625 
L 43.21875 35.40625 
Q 43.21875 41.609375 39.140625 45 
Q 35.0625 48.390625 27.6875 48.390625 
Q 23 48.390625 18.546875 47.265625 
Q 14.109375 46.140625 10.015625 43.890625 
L 10.015625 52.203125 
Q 14.9375 54.109375 19.578125 55.046875 
Q 24.21875 56 28.609375 56 
Q 40.484375 56 46.34375 49.84375 
Q 52.203125 43.703125 52.203125 31.203125 
z
" id="DejaVuSans-61"/>
      <path d="M 45.40625 46.390625 
L 45.40625 75.984375 
L 54.390625 75.984375 
L 54.390625 0 
L 45.40625 0 
L 45.40625 8.203125 
Q 42.578125 3.328125 38.25 0.953125 
Q 33.9375 -1.421875 27.875 -1.421875 
Q 17.96875 -1.421875 11.734375 6.484375 
Q 5.515625 14.40625 5.515625 27.296875 
Q 5.515625 40.1875 11.734375 48.09375 
Q 17.96875 56 27.875 56 
Q 33.9375 56 38.25 53.625 
Q 42.578125 51.265625 45.40625 46.390625 
z
M 14.796875 27.296875 
Q 14.796875 17.390625 18.875 11.75 
Q 22.953125 6.109375 30.078125 6.109375 
Q 37.203125 6.109375 41.296875 11.75 
Q 45.40625 17.390625 45.40625 27.296875 
Q 45.40625 37.203125 41.296875 42.84375 
Q 37.203125 48.484375 30.078125 48.484375 
Q 22.953125 48.484375 18.875 42.84375 
Q 14.796875 37.203125 14.796875 27.296875 
z
" id="DejaVuSans-64"/>
     </defs>
     <g style="fill:#a22c51;" transform="translate(1185.575125 225.1708)rotate(-270)scale(0.16 -0.16)">
      <use transform="translate(0 0.296875)" xlink:href="#DejaVuSans-4c"/>
      <use transform="translate(55.712891 0.296875)" xlink:href="#DejaVuSans-69"/>
      <use transform="translate(83.496094 0.296875)" xlink:href="#DejaVuSans-67"/>
      <use transform="translate(146.972656 0.296875)" xlink:href="#DejaVuSans-61"/>
      <use transform="translate(208.251953 0.296875)" xlink:href="#DejaVuSans-6e"/>
      <use transform="translate(271.630859 0.296875)" xlink:href="#DejaVuSans-64"/>
      <use transform="translate(335.107422 0.296875)" xlink:href="#DejaVuSans-20"/>
      <use transform="translate(366.894531 0.296875)" xlink:href="#DejaVuSans-52"/>
      <use transform="translate(436.376953 0.296875)" xlink:href="#DejaVuSans-4d"/>
      <use transform="translate(522.65625 0.296875)" xlink:href="#DejaVuSans-53"/>
      <use transform="translate(586.132812 0.296875)" xlink:href="#DejaVuSans-44"/>
      <use transform="translate(663.134766 0.296875)" xlink:href="#DejaVuSans-20"/>
      <use transform="translate(694.921875 0.296875)" xlink:href="#DejaVuSans-28"/>
      <use transform="translate(733.935547 0.296875)" xlink:href="#STIXGeneral-Italic-c5"/>
      <use transform="translate(795.035538 0.296875)" xlink:href="#DejaVuSans-29"/>
     </g>
    </g>
   </g>
   <g id="line2d_30">
    <path clip-path="url(#pcc1a5c640e)" d="M 160.56 514.5624 
L 162.550944 428.602229 
L 163.546416 441.366991 
L 164.541888 393.297159 
L 166.532832 410.020613 
L 167.528304 400.729805 
L 168.523776 362.031571 
L 169.519248 397.255851 
L 170.51472 402.184019 
L 171.510192 416.564574 
L 172.505664 407.354555 
L 173.501136 420.119318 
L 174.496608 391.438998 
L 175.49208 369.464217 
L 176.487552 387.803464 
L 177.483024 360.254199 
L 178.478496 384.975827 
L 179.473968 380.774766 
L 180.46944 380.532397 
L 181.464912 361.789202 
L 182.460384 381.825031 
L 183.455856 329.15019 
L 184.451328 402.507177 
L 185.4468 375.36186 
L 187.437744 400.083488 
L 188.433216 347.651016 
L 189.428688 375.281071 
L 190.42416 364.132101 
L 191.419632 373.18054 
L 192.415104 360.01183 
L 193.410576 335.209412 
L 194.406048 342.803638 
L 195.40152 383.683193 
L 196.396992 379.158973 
L 197.392464 349.105229 
L 198.387936 388.449781 
L 199.383408 341.672583 
L 200.37888 388.530571 
L 201.374352 383.521613 
L 203.365296 351.528918 
L 204.360768 342.3189 
L 205.35624 350.478653 
L 206.351712 343.530745 
L 207.347184 363.324205 
L 208.342656 334.159147 
L 209.338128 348.458912 
L 210.3336 341.107055 
L 211.329072 342.39969 
L 212.324544 332.624144 
L 213.320016 328.019135 
L 214.315488 338.117839 
L 215.31096 328.019135 
L 216.306432 319.617013 
L 217.301904 362.27394 
L 218.297376 350.236284 
L 219.292848 335.209412 
L 220.28832 363.243415 
L 221.283792 336.178888 
L 222.279264 361.869991 
L 223.274736 417.29168 
L 224.270208 379.239763 
L 225.26568 389.419257 
L 226.261152 375.765809 
L 227.256624 389.257677 
L 228.252096 381.259504 
L 229.247568 349.993915 
L 230.24304 353.871818 
L 231.238512 332.139406 
L 232.233984 355.002873 
L 233.229456 355.48761 
L 234.224928 362.27394 
L 235.2204 354.114187 
L 236.215872 401.94165 
L 237.211344 395.074531 
L 238.206816 404.365339 
L 239.202288 411.394037 
L 240.19776 404.12297 
L 241.193232 383.925562 
L 242.188704 391.277418 
L 243.184176 397.013482 
L 244.179648 326.96887 
L 245.17512 360.981305 
L 246.170592 316.143059 
L 247.166064 339.814421 
L 248.161536 349.347598 
L 249.157008 376.816074 
L 250.15248 336.663626 
L 251.147952 370.676062 
L 252.143424 372.453434 
L 253.138896 425.370644 
L 254.134368 433.126449 
L 255.12984 420.523266 
L 256.125312 420.846424 
L 257.120784 396.851903 
L 258.116256 414.544833 
L 259.111728 385.379775 
L 260.1072 390.065574 
L 261.102672 375.927388 
L 262.098144 410.586141 
L 263.093616 410.182193 
L 264.089088 367.525266 
L 265.08456 361.546833 
L 266.080032 380.532397 
L 267.075504 344.58101 
L 268.070976 357.103403 
L 269.066448 403.234284 
L 270.06192 349.105229 
L 271.057392 401.456912 
L 272.052864 361.304464 
L 273.048336 357.507351 
L 274.043808 359.93104 
L 275.03928 371.807116 
L 276.034752 357.022613 
L 277.030224 364.697629 
L 278.025696 360.819726 
L 279.021168 337.633101 
L 280.01664 337.713891 
L 281.012112 343.449955 
L 282.007584 312.749894 
L 283.003056 320.020961 
L 283.998528 343.449955 
L 284.994 343.369165 
L 285.989472 323.414126 
L 286.984944 340.13758 
L 287.980416 344.984958 
L 288.975888 337.067574 
L 289.97136 336.178888 
L 290.966832 337.390732 
L 291.962304 310.891732 
L 292.957776 326.88808 
L 293.953248 333.270461 
L 294.94872 296.107229 
L 295.944192 334.401516 
L 296.939664 317.597272 
L 297.935136 321.071226 
L 298.930608 352.256025 
L 299.92608 340.379949 
L 300.921552 312.588315 
L 301.917024 338.360208 
L 302.912496 338.925735 
L 303.907968 337.309943 
L 304.90344 388.934519 
L 305.898912 366.071052 
L 306.894384 318.405168 
L 307.889856 326.726501 
L 308.885328 332.462565 
L 309.8808 347.651016 
L 310.876272 352.983132 
L 311.871744 353.063921 
L 312.867216 341.026266 
L 313.862688 337.713891 
L 314.85816 366.394211 
L 315.853632 336.825205 
L 316.849104 369.302638 
L 317.844576 354.033397 
L 318.840048 360.981305 
L 319.83552 377.220022 
L 320.830992 345.388906 
L 321.826464 352.417604 
L 323.817408 313.315421 
L 324.81288 331.16993 
L 325.808352 316.385427 
L 326.803824 329.0694 
L 327.799296 311.699629 
L 328.794768 280.110882 
L 329.79024 316.708586 
L 330.785712 321.394385 
L 331.781184 303.459086 
L 333.772128 350.236284 
L 334.7676 299.742763 
L 335.763072 323.979653 
L 336.758544 315.173583 
L 337.754016 318.324379 
L 338.749488 318.00122 
L 339.74496 347.812595 
L 341.735904 304.67093 
L 342.731376 326.484132 
L 343.726848 319.051485 
L 344.72232 315.577531 
L 345.717792 280.353251 
L 346.713264 295.703281 
L 347.708736 259.994263 
L 348.704208 228.809464 
L 349.69968 178.477522 
L 350.695152 203.360729 
L 351.690624 218.71076 
L 352.686096 219.437866 
L 353.681568 248.602924 
L 354.67704 236.969217 
L 355.672512 234.383949 
L 356.667984 297.803812 
L 357.663456 259.105577 
L 358.658928 241.251068 
L 359.6544 241.493437 
L 360.649872 206.915473 
L 361.645344 246.906342 
L 362.640816 253.207934 
L 363.636288 242.058964 
L 364.63176 242.543702 
L 365.627232 261.933214 
L 366.622704 258.216891 
L 367.618176 233.091315 
L 368.613648 248.926083 
L 369.60912 259.509525 
L 370.604592 274.859555 
L 371.600064 269.608229 
L 372.595536 209.339162 
L 373.591008 221.457607 
L 374.58648 246.098446 
L 375.581952 220.084184 
L 376.577424 228.163147 
L 377.572896 254.662147 
L 378.568368 218.387601 
L 379.56384 216.610229 
L 380.559312 194.716238 
L 381.554784 255.712412 
L 382.550256 251.996089 
L 383.545728 198.432562 
L 384.5412 211.197324 
L 385.536672 210.954955 
L 386.532144 272.516656 
L 387.527616 195.685714 
L 388.523088 211.439693 
L 389.51856 193.989132 
L 390.514032 199.159668 
L 391.509504 240.84712 
L 392.504976 200.694671 
L 393.500448 228.728674 
L 394.49592 242.86686 
L 395.491392 240.200802 
L 396.486864 200.613882 
L 397.482336 211.278113 
L 399.47328 220.003394 
L 400.468752 212.732327 
L 401.464224 203.441519 
L 403.455168 275.829031 
L 404.45064 242.301333 
L 405.446112 264.195324 
L 406.441584 222.346293 
L 407.437056 258.701629 
L 408.432528 261.206107 
L 409.428 188.010699 
L 410.423472 237.938693 
L 411.418944 238.181062 
L 412.414416 270.496915 
L 413.409888 238.665799 
L 414.40536 254.904516 
L 415.400832 249.895559 
L 416.396304 242.624491 
L 417.391776 244.401863 
L 418.387248 236.646059 
L 419.38272 261.125318 
L 420.378192 265.568748 
L 421.373664 217.741284 
L 422.369136 246.825552 
L 423.364608 202.552833 
L 424.36008 205.784418 
L 425.355552 226.870513 
L 426.351024 271.385601 
L 427.346496 228.647885 
L 428.341968 179.204629 
L 429.33744 224.850772 
L 430.332912 199.725196 
L 431.328384 211.439693 
L 432.323856 220.649711 
L 433.319328 244.886601 
L 434.3148 218.62997 
L 435.310272 221.861555 
L 436.305744 221.376818 
L 437.301216 193.908342 
L 438.296688 202.229674 
L 439.29216 207.400211 
L 440.287632 194.877818 
L 441.283104 158.118534 
L 442.278576 206.107577 
L 443.274048 202.310464 
L 444.26952 165.147232 
L 445.264992 162.319595 
L 446.260464 151.816943 
L 447.255936 213.863382 
L 448.251408 210.551007 
L 449.24688 182.032266 
L 450.242352 170.398559 
L 451.237824 151.089836 
L 452.233296 141.879818 
L 453.228768 114.411342 
L 454.22424 131.619534 
L 455.219712 90.5784 
L 456.215184 200.129144 
L 457.210656 203.441519 
L 458.206128 197.624665 
L 459.2016 196.65519 
L 460.197072 203.603098 
L 461.192544 201.260199 
L 462.188016 175.569095 
L 463.183488 219.357077 
L 464.17896 222.184714 
L 465.174432 219.922604 
L 466.169904 231.96026 
L 467.165376 171.044876 
L 468.160848 170.479348 
L 469.15632 180.982001 
L 470.151792 168.863555 
L 471.147264 185.748589 
L 472.142736 189.303333 
L 473.138208 181.06279 
L 474.13368 193.019656 
L 475.129152 233.333684 
L 476.124624 198.75572 
L 477.120096 225.981827 
L 478.115568 243.674757 
L 479.11104 222.265504 
L 480.106512 245.12897 
L 481.101984 234.464738 
L 482.097456 252.238458 
L 483.092928 237.050007 
L 484.0884 268.719543 
L 485.083872 195.604924 
L 486.079344 252.480827 
L 487.074816 241.089488 
L 488.070288 218.872339 
L 489.06576 215.721543 
L 490.061232 219.922604 
L 491.056704 211.035745 
L 492.052176 217.983653 
L 493.047648 181.385949 
L 494.04312 217.094967 
L 495.038592 201.260199 
L 496.034064 205.542049 
L 497.029536 212.732327 
L 498.025008 197.624665 
L 499.02048 197.059138 
L 500.015952 214.671278 
L 501.011424 174.195671 
L 502.006896 205.945998 
L 503.002368 191.242284 
L 503.99784 215.721543 
L 504.993312 188.737805 
L 505.988784 223.558138 
L 506.984256 201.502568 
L 507.979728 198.594141 
L 508.9752 214.671278 
L 509.970672 240.927909 
L 510.966144 230.829205 
L 511.961616 235.757373 
L 512.957088 202.148885 
L 513.95256 212.08601 
L 514.948032 198.513351 
L 515.943504 210.551007 
L 516.938976 183.728848 
L 517.934448 215.963912 
L 518.92992 197.705455 
L 519.925392 203.11836 
L 520.920864 183.082531 
L 521.916336 169.913821 
L 522.911808 147.858251 
L 523.90728 209.339162 
L 524.902752 190.676757 
L 525.898224 221.942345 
L 526.893696 192.13097 
L 527.889168 198.75572 
L 528.88464 197.301507 
L 529.880112 212.813116 
L 530.875584 181.305159 
L 531.871056 209.8239 
L 532.866528 206.349946 
L 533.862 168.782766 
L 534.857472 180.012525 
L 535.852944 196.412821 
L 536.848416 150.524309 
L 537.843888 221.134449 
L 538.83936 216.044702 
L 539.834832 196.816769 
L 540.830304 188.091488 
L 541.825776 224.366034 
L 542.821248 207.72337 
L 543.81672 204.734153 
L 544.812192 224.204455 
L 545.807664 174.114882 
L 546.803136 190.999915 
L 547.798608 222.831031 
L 548.79408 215.398385 
L 549.789552 234.707107 
L 550.785024 185.102272 
L 551.780496 216.610229 
L 552.775968 177.911995 
L 553.77144 202.472043 
L 554.766912 215.236805 
L 555.762384 229.859729 
L 556.757856 223.0734 
L 557.753328 237.050007 
L 558.7488 246.825552 
L 559.744272 239.796854 
L 560.739744 191.646232 
L 561.735216 231.152363 
L 562.730688 256.843467 
L 563.72616 254.500568 
L 564.721632 231.717891 
L 565.717104 242.86686 
L 566.712576 228.405516 
L 567.708048 240.039223 
L 568.70352 249.5724 
L 569.698992 232.768156 
L 570.694464 210.470217 
L 571.689936 229.051833 
L 572.685408 197.543876 
L 573.68088 222.588662 
L 574.676352 213.136275 
L 575.671824 195.685714 
L 576.667296 165.389601 
L 577.662768 255.389254 
L 578.65824 228.890254 
L 579.653712 196.251241 
L 580.649184 204.976522 
L 581.644656 231.071574 
L 582.640128 206.349946 
L 583.6356 226.143406 
L 584.631072 198.351772 
L 585.626544 189.626491 
L 586.622016 199.159668 
L 587.617488 170.560138 
L 588.61296 176.215412 
L 589.608432 185.748589 
L 590.603904 184.455955 
L 591.599376 211.197324 
L 592.594848 191.484653 
L 593.59032 212.409168 
L 594.585792 221.861555 
L 595.581264 220.649711 
L 596.576736 198.028613 
L 597.572208 201.825726 
L 598.56768 195.685714 
L 599.563152 218.145232 
L 600.558624 198.75572 
L 601.554096 244.886601 
L 602.549568 168.944345 
L 603.54504 229.455781 
L 604.540512 221.215238 
L 605.535984 246.663973 
L 606.531456 232.848946 
L 607.526928 222.427083 
L 608.5224 224.850772 
L 609.517872 189.626491 
L 610.513344 206.511525 
L 611.508816 214.671278 
L 612.504288 218.226022 
L 613.49976 202.714412 
L 614.495232 212.328379 
L 615.490704 230.263677 
L 616.486176 191.646232 
L 617.481648 229.69815 
L 618.47712 207.319421 
L 619.472592 205.46126 
L 620.468064 221.619187 
L 621.463536 215.802333 
L 622.459008 213.217065 
L 623.45448 243.836336 
L 624.449952 202.148885 
L 625.445424 212.732327 
L 626.440896 206.188366 
L 627.436368 231.79868 
L 628.43184 205.057312 
L 629.427312 195.766504 
L 630.422784 169.186714 
L 631.418256 184.698324 
L 632.413728 188.414647 
L 633.4092 190.272809 
L 634.404672 212.08601 
L 635.400144 165.71276 
L 636.395616 204.734153 
L 637.391088 183.971217 
L 638.38656 183.3249 
L 639.382032 161.754068 
L 640.377504 217.902863 
L 641.372976 196.170452 
L 642.368448 201.583357 
L 643.36392 231.071574 
L 644.359392 217.094967 
L 645.354864 216.852598 
L 646.350336 238.42343 
L 647.345808 210.227848 
L 648.34128 206.511525 
L 649.336752 229.940519 
L 650.332224 199.078879 
L 651.327696 209.8239 
L 652.323168 225.901037 
L 653.31864 195.120187 
L 654.314112 233.899211 
L 655.309584 238.50422 
L 656.305056 259.186366 
L 657.300528 229.374991 
L 658.296 221.376818 
L 659.291472 234.868687 
L 660.286944 209.177583 
L 661.282416 216.287071 
L 662.277888 224.527613 
L 663.27336 216.125491 
L 664.268832 219.195498 
L 665.264304 207.238632 
L 666.259776 215.721543 
L 667.255248 200.209934 
L 668.25072 242.382123 
L 670.241664 214.590488 
L 671.237136 216.36786 
L 672.232608 270.496915 
L 673.22808 243.02844 
L 674.223552 254.258199 
L 675.219024 244.078705 
L 676.214496 203.522309 
L 677.209968 211.843641 
L 678.20544 238.58501 
L 679.200912 238.746589 
L 680.196384 221.699976 
L 681.191856 169.429083 
L 682.187328 203.845467 
L 683.1828 224.204455 
L 684.178272 223.315769 
L 685.173744 236.646059 
L 686.169216 253.288723 
L 687.164688 217.498915 
L 688.16016 232.121839 
L 689.155632 227.920778 
L 690.151104 255.631623 
L 691.146576 241.331857 
L 692.142048 239.796854 
L 693.13752 252.157668 
L 694.132992 212.00522 
L 695.128464 214.34812 
L 696.123936 238.42343 
L 697.119408 234.383949 
L 698.11488 225.577879 
L 699.110352 220.407342 
L 700.105824 232.121839 
L 701.101296 232.848946 
L 702.096768 227.759199 
L 703.09224 242.786071 
L 704.087712 260.55979 
L 705.083184 208.369687 
L 706.078656 217.256546 
L 707.074128 214.34812 
L 708.0696 190.595967 
L 709.065072 179.123839 
L 710.060544 247.31029 
L 711.056016 185.42543 
L 712.051488 204.330205 
L 713.04696 202.391254 
L 714.042432 228.001568 
L 715.037904 227.43604 
L 716.033376 229.69815 
L 717.028848 248.845293 
L 718.02432 211.116534 
L 719.019792 199.967565 
L 720.015264 227.274461 
L 721.010736 217.822074 
L 722.006208 223.800507 
L 723.00168 222.831031 
L 723.997152 183.567269 
L 724.992624 207.64258 
L 725.988096 242.543702 
L 726.983568 244.401863 
L 727.97904 195.120187 
L 728.974512 200.290723 
L 729.969984 243.917126 
L 730.965456 235.918952 
L 731.960928 226.385775 
L 732.9564 211.92443 
L 733.951872 213.297854 
L 734.947344 222.99261 
L 735.942816 240.927909 
L 736.938288 235.272635 
L 737.93376 233.899211 
L 738.929232 256.358729 
L 739.924704 243.109229 
L 740.920176 253.692671 
L 741.915648 232.121839 
L 742.91112 184.536745 
L 743.906592 234.787897 
L 745.897536 257.085836 
L 746.893008 208.046528 
L 747.88848 191.403863 
L 748.883952 217.014177 
L 749.879424 186.556485 
L 750.874896 222.750241 
L 751.870368 231.79868 
L 752.86584 257.247415 
L 753.861312 236.888427 
L 754.856784 235.353424 
L 756.847728 260.155842 
L 757.8432 222.265504 
L 758.838672 178.477522 
L 759.834144 241.655016 
L 760.829616 276.556138 
L 761.825088 253.450302 
L 762.82056 262.094793 
L 763.816032 273.324552 
L 764.811504 248.198976 
L 765.806976 259.832684 
L 766.802448 243.109229 
L 767.79792 238.50422 
L 768.793392 253.127144 
L 769.788864 243.755546 
L 770.784336 259.105577 
L 771.779808 239.877644 
L 772.77528 240.443171 
L 774.766224 222.750241 
L 775.761696 251.915299 
L 776.757168 253.127144 
L 777.75264 254.662147 
L 778.748112 268.800333 
L 779.743584 246.179235 
L 780.739056 245.936866 
L 781.734528 252.561616 
L 782.73 232.283418 
L 783.725472 219.276287 
L 784.720944 246.421604 
L 785.716416 214.18654 
L 786.711888 233.495263 
L 787.70736 196.089662 
L 788.702832 230.586836 
L 789.698304 233.010525 
L 790.693776 226.708934 
L 791.689248 182.597793 
L 792.68472 201.260199 
L 793.680192 236.3229 
L 794.675664 239.635275 
L 795.671136 251.268982 
L 796.666608 207.481001 
L 797.66208 247.875818 
L 798.657552 270.739284 
L 799.653024 222.427083 
L 800.648496 238.261851 
L 801.643968 286.008525 
L 802.63944 279.222196 
L 803.634912 260.882949 
L 804.630384 239.473696 
L 805.625856 233.495263 
L 806.621328 175.569095 
L 807.6168 221.215238 
L 808.612272 216.125491 
L 809.607744 235.838162 
L 810.603216 224.608403 
L 811.598688 228.567095 
L 812.59416 226.951302 
L 813.589632 185.58701 
L 814.585104 195.120187 
L 815.580576 234.868687 
L 816.576048 251.026613 
L 817.57152 238.988958 
L 818.566992 222.346293 
L 819.562464 187.122013 
L 820.557936 228.001568 
L 821.553408 234.787897 
L 823.544352 244.240284 
L 824.539824 244.967391 
L 825.535296 237.534745 
L 826.530768 269.123491 
L 827.52624 237.777113 
L 828.521712 259.186366 
L 829.517184 283.665626 
L 830.512656 249.49161 
L 831.508128 258.45926 
L 832.5036 222.588662 
L 833.499072 198.83651 
L 834.494544 184.294376 
L 835.490016 163.693019 
L 836.485488 250.541876 
L 837.48096 229.61736 
L 838.476432 250.945824 
L 839.471904 219.841815 
L 840.467376 258.37847 
L 841.462848 226.224196 
L 842.45832 218.62997 
L 843.453792 238.42343 
L 844.449264 251.83451 
L 845.444736 216.44865 
L 846.440208 254.09662 
L 847.43568 247.229501 
L 848.431152 229.61736 
L 849.426624 203.603098 
L 850.422096 235.353424 
L 851.417568 214.105751 
L 852.41304 225.416299 
L 853.408512 241.170278 
L 854.403984 236.3229 
L 855.399456 226.789723 
L 856.394928 209.177583 
L 857.3904 146.888775 
L 858.385872 254.01583 
L 859.381344 188.414647 
L 860.376816 221.861555 
L 861.372288 240.604751 
L 862.36776 196.978348 
L 863.363232 197.139927 
L 864.358704 158.684062 
L 865.354176 144.949824 
L 866.349648 161.834857 
L 867.34512 198.028613 
L 868.340592 210.470217 
L 869.336064 198.109403 
L 870.331536 227.355251 
L 871.327008 205.945998 
L 872.32248 188.495437 
L 873.317952 180.093315 
L 874.313424 180.497263 
L 875.308896 199.886775 
L 876.304368 191.080705 
L 877.29984 207.884949 
L 878.295312 205.703629 
L 879.290784 190.676757 
L 880.286256 188.980174 
L 881.281728 205.38047 
L 882.2772 154.64458 
L 883.272672 182.678583 
L 884.268144 181.14358 
L 885.263616 196.251241 
L 887.25456 157.472217 
L 888.250032 179.043049 
L 889.245504 162.400385 
L 890.240976 196.332031 
L 891.236448 176.457781 
L 892.23192 191.727022 
L 893.227392 203.360729 
L 894.222864 150.524309 
L 895.218336 185.58701 
L 896.213808 191.484653 
L 897.20928 154.72537 
L 898.204752 199.644406 
L 899.200224 157.876165 
L 900.195696 170.883296 
L 901.191168 197.463086 
L 902.18664 180.739632 
L 903.182112 175.892254 
L 904.177584 192.777287 
L 905.173056 170.560138 
L 906.168528 188.980174 
L 907.164 187.041223 
L 908.159472 165.71276 
L 909.154944 165.955129 
L 910.150416 159.653537 
L 911.145888 148.908516 
L 912.14136 188.253068 
L 913.136832 159.895906 
L 915.127776 172.660668 
L 916.123248 175.892254 
L 917.11872 165.066443 
L 918.114192 194.797028 
L 919.109664 187.202802 
L 920.105136 158.603272 
L 921.100608 191.646232 
L 922.09608 162.400385 
L 923.091552 170.236979 
L 924.087024 167.732501 
L 925.082496 168.136449 
L 926.077968 185.102272 
L 927.07344 173.710934 
L 928.068912 219.437866 
L 929.064384 171.206455 
L 930.059856 196.332031 
L 931.055328 158.280113 
L 932.0508 173.872513 
L 933.046272 210.631796 
L 934.041744 213.136275 
L 935.037216 190.515177 
L 936.032688 185.667799 
L 937.02816 194.877818 
L 938.023632 193.342815 
L 939.019104 190.03044 
L 940.014576 198.190193 
L 941.010048 207.884949 
L 942.00552 188.818595 
L 943.000992 193.181235 
L 943.996464 178.639101 
L 944.991936 187.84912 
L 945.987408 162.804333 
L 946.98288 216.852598 
L 947.978352 184.294376 
L 948.973824 185.183062 
L 949.969296 206.269156 
L 950.964768 187.84912 
L 951.96024 212.732327 
L 952.955712 192.696498 
L 953.951184 194.635449 
L 954.946656 174.761199 
L 955.942128 187.283592 
L 956.9376 180.254894 
L 957.933072 212.813116 
L 958.928544 213.055485 
L 959.924016 225.981827 
L 960.919488 214.34812 
L 961.91496 222.265504 
L 962.910432 208.531266 
L 963.905904 240.120013 
L 965.896848 211.116534 
L 966.89232 214.671278 
L 967.887792 190.999915 
L 968.883264 208.127318 
L 969.878736 194.958607 
L 970.874208 185.344641 
L 971.86968 200.209934 
L 972.865152 204.734153 
L 973.860624 194.635449 
L 974.856096 198.190193 
L 975.851568 186.394906 
L 976.84704 223.881296 
L 977.842512 238.58501 
L 978.837984 182.517004 
L 979.833456 201.583357 
L 980.828928 165.228022 
L 981.8244 194.958607 
L 982.819872 181.06279 
L 983.815344 205.29968 
L 984.810816 201.01783 
L 985.806288 187.606751 
L 986.80176 186.152537 
L 987.797232 211.520482 
L 988.792704 179.366208 
L 989.788176 222.265504 
L 990.783648 236.888427 
L 991.77912 207.884949 
L 992.774592 226.789723 
L 993.770064 192.777287 
L 994.765536 199.967565 
L 995.761008 183.3249 
L 996.75648 207.157842 
L 997.751952 201.583357 
L 998.747424 164.904863 
L 999.742896 206.915473 
L 1000.738368 211.843641 
L 1001.73384 173.306985 
L 1002.729312 144.061138 
L 1003.724784 168.055659 
L 1004.720256 177.427257 
L 1005.715728 148.585357 
L 1006.7112 149.070095 
L 1007.706672 125.237153 
L 1008.702144 168.055659 
L 1009.697616 152.059312 
L 1010.693088 150.443519 
L 1011.68856 153.109577 
L 1012.684032 204.087836 
L 1013.679504 166.763025 
L 1014.674976 157.229848 
L 1015.670448 153.675104 
L 1016.66592 161.592488 
L 1017.661392 150.12036 
L 1018.656864 226.628144 
L 1019.652336 179.850946 
L 1020.647808 191.323074 
L 1021.64328 172.33751 
L 1022.638752 194.797028 
L 1023.634224 185.42543 
L 1024.629696 173.872513 
L 1025.625168 177.265677 
L 1026.62064 169.833031 
L 1027.616112 146.807985 
L 1028.611584 184.213586 
L 1029.607056 188.818595 
L 1030.602528 171.933562 
L 1031.598 172.418299 
L 1032.593472 172.418299 
L 1033.588944 177.831205 
L 1034.584416 212.409168 
L 1035.579888 194.47387 
L 1036.57536 193.827552 
L 1037.570832 186.475696 
L 1038.566304 161.834857 
L 1039.561776 180.901211 
L 1040.557248 181.305159 
L 1041.55272 177.184888 
L 1042.548192 180.901211 
L 1043.543664 199.805985 
L 1044.539136 165.955129 
L 1045.534608 165.066443 
L 1046.53008 159.815116 
L 1047.525552 153.432735 
L 1048.521024 141.556659 
L 1049.516496 155.290897 
L 1050.511968 124.913995 
L 1051.50744 103.423952 
L 1052.502912 143.737979 
L 1053.498384 128.307159 
L 1054.493856 139.21376 
L 1056.4848 178.154363 
L 1057.480272 168.217238 
L 1058.475744 132.42743 
L 1059.471216 159.491958 
L 1060.466688 159.00722 
L 1061.46216 166.763025 
L 1062.457632 132.750589 
L 1063.453104 182.678583 
L 1064.448576 193.342815 
L 1065.444048 170.640927 
L 1066.43952 199.725196 
L 1067.434992 203.441519 
L 1068.430464 203.27994 
L 1069.425936 208.854424 
L 1070.421408 188.818595 
L 1071.41688 220.164973 
L 1072.412352 202.956781 
L 1073.407824 199.563616 
L 1074.403296 211.358903 
L 1076.39424 269.608229 
L 1077.389712 261.367687 
L 1078.385184 293.037223 
L 1079.380656 296.107229 
L 1080.376128 286.978001 
L 1081.3716 217.094967 
L 1082.367072 240.281592 
L 1083.362544 289.886427 
L 1084.358016 211.682062 
L 1086.34896 191.727022 
L 1087.344432 192.21176 
L 1088.339904 228.567095 
L 1089.335376 173.387775 
L 1090.330848 172.499089 
L 1091.32632 185.50622 
L 1092.321792 204.491784 
L 1093.317264 209.581531 
L 1094.312736 186.152537 
L 1095.308208 141.718238 
L 1096.30368 125.075574 
L 1097.299152 178.80068 
L 1098.294624 201.744937 
L 1100.285568 144.303507 
L 1101.28104 168.944345 
L 1102.276512 177.750415 
L 1103.271984 191.161495 
L 1104.267456 193.585184 
L 1105.262928 172.33751 
L 1106.2584 167.086184 
L 1107.253872 174.114882 
L 1108.249344 178.477522 
L 1109.244816 170.721717 
L 1110.240288 215.479174 
L 1111.23576 245.20976 
L 1112.231232 171.529613 
L 1113.226704 143.091662 
L 1114.222176 140.587184 
L 1115.217648 150.847467 
L 1116.21312 173.145406 
L 1117.208592 172.25672 
L 1118.204064 140.910342 
L 1119.199536 155.452476 
L 1120.195008 168.136449 
L 1121.19048 182.355424 
L 1122.185952 186.314116 
L 1123.181424 181.385949 
L 1124.176896 158.037745 
L 1125.172368 186.798854 
L 1126.16784 187.283592 
L 1127.163312 173.145406 
L 1128.158784 191.646232 
L 1129.154256 214.913647 
L 1130.149728 187.929909 
L 1131.1452 184.698324 
L 1132.140672 182.920952 
L 1133.136144 199.482827 
L 1134.131616 186.718065 
L 1135.127088 209.662321 
L 1136.12256 169.105924 
L 1137.118032 181.628318 
L 1138.113504 178.315943 
L 1139.108976 179.204629 
L 1141.09992 192.696498 
L 1142.095392 191.080705 
L 1143.090864 154.64458 
L 1144.086336 171.933562 
L 1145.081808 155.694845 
L 1146.07728 168.217238 
L 1147.072752 199.725196 
L 1148.068224 182.355424 
L 1149.063696 171.610403 
L 1150.059168 207.884949 
L 1151.05464 209.581531 
L 1152.050112 194.47387 
L 1153.045584 186.233327 
L 1154.041056 175.488305 
L 1155.036528 177.508046 
L 1156.032 202.633623 
L 1156.032 202.633623 
" style="fill:none;stroke:#a22c51;stroke-linecap:square;stroke-opacity:0.9;stroke-width:1.5;"/>
   </g>
   <g id="patch_8">
    <path d="M 160.56 514.5624 
L 160.56 69.3792 
" style="fill:none;stroke:#000000;stroke-linecap:square;stroke-linejoin:miter;stroke-width:0.8;"/>
   </g>
   <g id="patch_9">
    <path d="M 1156.032 514.5624 
L 1156.032 69.3792 
" style="fill:none;stroke:#000000;stroke-linecap:square;stroke-linejoin:miter;stroke-width:0.8;"/>
   </g>
   <g id="patch_10">
    <path d="M 160.56 514.5624 
L 1156.032 514.5624 
" style="fill:none;stroke:#000000;stroke-linecap:square;stroke-linejoin:miter;stroke-width:0.8;"/>
   </g>
   <g id="patch_11">
    <path d="M 160.56 69.3792 
L 1156.032 69.3792 
" style="fill:none;stroke:#000000;stroke-linecap:square;stroke-linejoin:miter;stroke-width:0.8;"/>
   </g>
  </g>
 </g>
 <defs>
  <clipPath id="pcc1a5c640e">
   <rect height="445.1832" width="995.472" x="160.56" y="69.3792"/>
  </clipPath>
 </defs>
</svg>
